<?xml version="1.0" encoding="utf-8"?>
<svg version="1.1" id="Camada_1" xmlns="http://www.w3.org/2000/svg" xmlns:xlink="http://www.w3.org/1999/xlink" x="0px" y="0px"
	 viewBox="0 0 960 560" style="enable-background:new 0 0 960 560;" xml:space="preserve">
<style type="text/css">
	.st0{display:none;}
	.st1{fill:#020202;}
</style>
<circle class="st0" cx="477.3" cy="282" r="277"/>
<path class="st0" d="M646.6,536.9h-336c-46.8,0-85-38.3-85-85v-336c0-46.8,38.3-85,85-85h336c46.8,0,85,38.3,85,85v336
	C731.6,498.7,693.3,536.9,646.6,536.9z"/>
<g>
	<path class="st1" d="M619.3,150.1c-7.4-3.5-8-3.6-7.4-3.5c8.3,1,22.9,10.6,28.2,16.4c15.2,16.6,22.4,36.5,24.7,58.6
		c3.4,33.8,3.4,67.5,0.6,101.3c-1.3,15.9-3.9,31.6-8.9,46.8c-7.6,23-22.5,38.2-46.8,42.3c-18.2,3.1-36.6,5.8-55,6.9
		c-59,3.7-118,1.6-177.1,2c-25,0.2-49.9,0-74.9,0c-1.7,0-3.3,0-5.4,0c0-24.3,0-48.4,0-73.2c1.7,0,3.5,0,5.2,0
		c66.1,0,132.3,0.2,198.4-0.1c16-0.1,32.1-1.6,48.1-2.7c3.1-0.2,6.1-1.1,9.1-1.6c10.9-2,16.9-9.2,19.3-19.3c1.7-7.3,2.8-15,3-22.5
		c0.3-17.6-0.1-35.2-0.6-52.8c-0.1-4.7-1.5-9.4-2.9-13.9c-4.2-13.3-12.7-21.4-27.3-21.9c-17.8-0.7-35.7-2.2-53.5-2.4
		c-35.3-0.4-70.5-0.1-105.8-0.1c-1.5,0-3,0-4.9,0c0-24.1,0-47.6,0-71.6c1.5,0,2.9,0,4.3,0c33.5,0,66.9-0.4,100.4,0.3
		c32.4,0.6,64.7,2.2,97.1,3.8c8.4,0.4,16.8,2.2,25.1,3.7C614.7,147.1,616.9,148.9,619.3,150.1"/>
	<path class="st1" d="M297.4,236.6c0-30.9,0.1-61.7-0.1-92.6c0-4,1.1-4.9,5-4.9c21,0.2,41.9,0.2,62.9,0c3.6,0,4.5,1.1,4.5,4.6
		c-0.1,62-0.1,124,0,186c0,3.6-1.2,4.6-4.6,4.6c-21.1-0.1-42.2-0.1-63.3,0c-3.6,0-4.5-1.2-4.5-4.6
		C297.4,298.6,297.4,267.6,297.4,236.6z"/>
	<path class="st1" d="M474.6,330.7c-12.1,0-24,0-36.1,0c0-31.3,0-62.3,0-93.6c12,0,23.9,0,36.1,0
		C474.6,268.2,474.6,299.2,474.6,330.7z"/>
	<path class="st1" d="M383.3,262c12.2,0,24.1,0,36.3,0c0,22.9,0,45.6,0,68.7c-12,0-24,0-36.3,0C383.3,307.9,383.3,285.2,383.3,262z"
		/>
</g>
</svg>
