<svg id="Camada_1" xmlns="http://www.w3.org/2000/svg" viewBox="0 0 960 560"><style>.st0{display:none}.st1{fill:#fff}</style><circle class="st0" cx="477.3" cy="282" r="277"/><path class="st0" d="M646.6 536.9h-336c-46.8 0-85-38.3-85-85v-336c0-46.8 38.3-85 85-85h336c46.8 0 85 38.3 85 85v336c0 46.8-38.3 85-85 85z"/><path class="st1" d="M619.3 150.1c-7.4-3.5-8-3.6-7.4-3.5 8.3 1 22.9 10.6 28.2 16.4 15.2 16.6 22.4 36.5 24.7 58.6 3.4 33.8 3.4 67.5.6 101.3-1.3 15.9-3.9 31.6-8.9 46.8-7.6 23-22.5 38.2-46.8 42.3-18.2 3.1-36.6 5.8-55 6.9-59 3.7-118 1.6-177.1 2-25 .2-49.9 0-74.9 0h-5.4v-73.2h5.2c66.1 0 132.3.2 198.4-.1 16-.1 32.1-1.6 48.1-2.7 3.1-.2 6.1-1.1 9.1-1.6 10.9-2 16.9-9.2 19.3-19.3 1.7-7.3 2.8-15 3-22.5.3-17.6-.1-35.2-.6-52.8-.1-4.7-1.5-9.4-2.9-13.9-4.2-13.3-12.7-21.4-27.3-21.9-17.8-.7-35.7-2.2-53.5-2.4-35.3-.4-70.5-.1-105.8-.1h-4.9v-71.6h4.3c33.5 0 66.9-.4 100.4.3 32.4.6 64.7 2.2 97.1 3.8 8.4.4 16.8 2.2 25.1 3.7 2.4.5 4.6 2.3 7 3.5"/><path class="st1" d="M297.4 236.6c0-30.9.1-61.7-.1-92.6 0-4 1.1-4.9 5-4.9 21 .2 41.9.2 62.9 0 3.6 0 4.5 1.1 4.5 4.6-.1 62-.1 124 0 186 0 3.6-1.2 4.6-4.6 4.6-21.1-.1-42.2-.1-63.3 0-3.6 0-4.5-1.2-4.5-4.6.1-31.1.1-62.1.1-93.1zM474.6 330.7h-36.1v-93.6h36.1v93.6zM383.3 262h36.3v68.7h-36.3V262z"/></svg>