<?xml version="1.0" encoding="utf-8"?>
<!-- Generator: Adobe Illustrator 20.1.0, SVG Export Plug-In . SVG Version: 6.00 Build 0)  -->
<svg version="1.1" id="Camada_1" xmlns="http://www.w3.org/2000/svg" xmlns:xlink="http://www.w3.org/1999/xlink" x="0px" y="0px"
	 viewBox="0 0 640 640" style="enable-background:new 0 0 640 640;" xml:space="preserve">
<style type="text/css">
	.st0{fill:#0E244A;}
	.st1{display:none;fill:#F0C841;}
	.st2{fill:#F0C841;}
	.st3{fill:#1C7CD6;}
	.st4{fill:#FFFFFF;}
</style>
<g>
	<path class="st0" d="M8,441c61.8,0,123.6,0.1,185.5-0.1c4.9,0,6.4,0.9,6.4,6.2c-0.3,45.2-0.2,90.3,0,135.5c0,4.7-1,6.1-5.9,6.1
		c-60.2-0.2-120.3-0.1-180.5-0.1c-1.8,0-3.6,0.2-5.4,0.4C8,539.7,8,490.3,8,441z M87,490c-6.6,0-12.1,5.5-12,12.1
		c0,6.4,5.3,11.8,11.7,11.9c6.6,0.2,12.2-5.2,12.3-11.8C99.1,495.6,93.7,490.1,87,490z M120,514c6.6,0,12-5.5,12-12.1
		c-0.1-6.6-5.6-12-12.2-11.9c-6.4,0.1-11.7,5.5-11.7,11.9C108,508.5,113.4,514,120,514z"/>
	<path class="st0" d="M634,589c-1.8-0.1-3.6-0.4-5.4-0.4c-60.1,0-120.2-0.1-180.4,0.1c-4.8,0-6.1-1.1-6-6c0.3-28.6,0.2-57.3,0-85.9
		c0-4.5,1.2-5.5,5.6-5.5c60.1,0.1,120.2,0.1,180.4,0.1c2,0,3.9-0.3,5.9-0.4C634,523.7,634,556.3,634,589z M504.9,549
		c6.6,0.1,12.1-5.4,12.1-12c0-6.6-5.5-12-12.1-12c-6.4,0.1-11.7,5.4-11.8,11.8C492.9,543.4,498.3,548.9,504.9,549z M550,536.8
		c-0.1-6.6-5.7-11.9-12.3-11.8c-6.4,0.1-11.6,5.5-11.7,11.9c0,6.6,5.5,12.1,12,12C544.7,549,550.1,543.4,550,536.8z M583,537.1
		c0.1-6.6-5.3-12.1-12-12.1c-6.4,0-11.8,5.2-12,11.6c-0.2,6.6,5.2,12.2,11.7,12.4C577.4,549.1,582.9,543.7,583,537.1z"/>
	<path class="st0" d="M425.3,484c0,33.2-0.1,66.3,0.1,99.5c0,4.1-1,5.2-5.2,5.2c-66-0.1-132-0.1-198,0c-4.2,0-5.6-0.8-5.6-5.4
		c0.2-66,0.2-132,0-198c0-4.4,1.1-5.5,5.5-5.5c66,0.2,132,0.1,198,0c4.1,0,5.3,0.9,5.3,5.1C425.2,418,425.3,451,425.3,484z
		 M320.7,439c-2.6,11-9.2,15.6-20,14.8c1.1,1.6,2,2.5,3,3.2c6.7,4.2,7.5,10.2,5.1,17.1c-0.3,0.8-1.5,1.7-0.4,2.6
		c0.9,0.9,2,0.2,2.7-0.4c7-6.2,13.7-4.2,20.4,0.7c0.3,0.2,0.9,0.1,2.3,0.3c-5-9.9-1.9-17.4,7-23.4
		C329.5,454.8,323.5,449.4,320.7,439z"/>
	<path class="st1" d="M254.1,252.6c-4.5-4.7-9-7.8-14.2-10.2c-7.7-3.5-15-7.8-22.3-12c-19.2-11.1-27.3-42.2-19.4-61.4
		c5.4-12.9,14.4-22.4,27.3-27.7c5.3-2.2,7-5.1,6.7-10.5c-0.5-8.7-0.1-10.1,8.3-8.8c24.9,3.8,133.8,4.1,158.5,0c7.4,0,8.7,1,7.8,8.5
		c-0.7,6.1,1.5,8.8,7,11.2c24.5,10.6,35.1,36.9,27,62.3c-5.6,17.6-18.4,27-33.6,34.6c-7.7,3.8-16,6.6-22.3,14
		c3.5,0.1,6.2,1.5,7.9,4.2c1.7,2.7,1.7,5.8,1.1,8.7c-1,5.3-8.8,9.7-15.1,8.8c-6.6-1-11.5-4.5-14.1-10.5c-1.6-3.7-2.5-3.3-4.8-0.4
		c-6.3,8.2-13.2,15.9-22.2,21.3c-3.3,2-4.7,5-4.7,8.8c0.1,8.5,0.2,17-0.1,25.5c-0.1,3.8,1.5,5.1,4.9,5.1c4.3,0,8.7,0,13,0
		c8.6,0,13.1,4.4,13.1,12.7c0,8.2-4.5,13-13,13.1c-18.5,0.1-37,0.1-55.5,0c-4.3,0-8.6,0.6-12.9-0.8c-6-1.9-8.6-7-7.6-15.4
		c0.6-5.6,4.6-9.4,10.3-9.6c5.2-0.2,10.3,0,15.5-0.1c3.4,0,4.9-1.3,4.7-5.2c-0.4-8.5-0.2-17-0.1-25.5c0.1-3.9-1.3-6.8-4.6-8.8
		c-9.1-5.4-15.9-13-22.2-21.3c-2.5-3.2-3.1-2.6-4.7,0.6c-5.2,10.7-18.2,13.9-26.2,6.5c-3.1-2.9-4.4-6.5-3-10.8
		C246.1,255.2,248.8,252.8,254.1,252.6z M379.9,229.8c10.5-4.9,19.7-9,28.7-13.6c24.9-12.8,20.8-43.3,0.8-55.7
		c-4.7-2.9-6.3-2.3-7.6,3.1c-3.5,14.2-7.2,28.3-12.5,42C386.4,213.2,383.5,220.7,379.9,229.8z M257.3,229.4c0.3-0.3,0.6-0.7,0.8-1
		c-0.3-0.7-0.5-1.5-0.8-2.2c-4.8-11.3-9.3-22.7-12.9-34.4c-2.9-9.4-5.6-18.7-7.5-28.3c-0.6-2.8-1.8-5.9-5.7-3.9
		c-17.6,8.8-24.8,33.4-11.5,48.7C229.6,219.7,244.9,221.9,257.3,229.4z"/>
</g>
<g>
	<path class="st2" d="M312,142.6c5.2,0,10.3-0.3,15.5,0c19.7,1.2,38,6.8,54.3,18.2c4.3,3,8.2,6.6,12.1,10.2
		c4.2,3.9,8.3,7.9,12.1,12.1c3,3.4,5.7,7.1,8.3,10.8c5.3,7.6,10.3,15.4,14.1,23.9c3.5,7.8,5.9,16,7.2,24.4c0.8,4.8,1.1,9.7,0.7,14.5
		c-0.7,7.4-2.4,14.6-6,21.2c-2.1,4-5.1,7.3-8,10.7c-2.4,2.7-5.6,3.9-9.1,4.4c-2.7,0.4-5.4,0.6-8.1,0.8c-0.8,0-1.1,0.4-1.3,1
		c-0.6,2-1.2,4.1-1.9,6.1c-2.9,7.7-8.7,11.9-16.5,13.8c-4.9,1.2-10,1.5-15,1.8c-4.2,0.3-8.3,0.8-12.5,1.3c-0.9,0.1-1.3,0.5-1.2,1.5
		c0.3,2.9,1.7,5.4,3.1,7.9c1.5,2.5,3,5,4.3,7.6c1.3,2.6,0.8,4.3-1.5,6c-2.9,2.1-6.1,3.2-9.7,3.2c-1,0-1.7-0.3-2.2-1.2
		c-6.3-9.6-14-18.1-22.3-26c-1.4-1.3-2.9-2.7-4.5-3.9c-0.9-0.6-2-0.9-3.1-1.4c-3.9-1.7-6.9-4.4-9-8.1c-0.6-1.1-1.2-1.4-2.4-1
		c-7.2,2.6-14.7,3.3-22.2,2.8c-6-0.4-11.7-2.1-17.4-4.1c-4.1-1.5-8.1-3-11.4-5.8c-4.5-3.8-6.3-8.8-5.8-14.6c0.3-3,0.1-5.9-1.1-8.7
		c-0.5-1-0.9-2.1-1.1-3.2c-0.2-0.9-0.7-1.1-1.5-1.1c-1.6,0.1-3.2,0.1-4.8,0c-6.3-0.1-12.4-1.5-18.4-3.5c-3.9-1.3-7.7-2.7-10.9-5.4
		c-5.9-5.1-10-11.3-11.6-19c-0.9-4.3-1.9-8.6-2.5-12.9c-0.8-5.6-0.7-11.3,0.9-16.8c1.4-4.7,2.6-9.4,4.3-14c1.7-4.8,4.7-8.9,7.8-12.9
		c1.2-1.6,2.3-3.3,3.6-4.8c3.5-4.2,7.2-8.1,11.6-11.3c5-3.7,10-7.3,15.2-10.7c5.5-3.6,11.8-5.5,18.1-7.3c7-1.9,14-3.9,21.2-4.9
		c4.3-0.6,8.6-1.3,12.9-1.6c5.2-0.4,10.5-0.5,15.7-0.8C312,142.3,312,142.5,312,142.6z M285.2,276.9c1.5-3.6,4.2-5.8,7.7-7.1
		c2.9-1.2,3.4-2.4,2.1-5.2c-0.3-0.6-0.7-1.2-0.9-1.8c-0.6-1.4-1.3-2.7-1.6-4.2c-0.8-3.6,0-7,1.1-10.5c0.5-1.8,1.1-3.6,1.5-5.4
		c0.4-1.8-0.2-2.7-2-3c-0.5-0.1-0.9-0.1-1.4-0.2c-5.4-1.2-10.5-0.6-15.2,2.3c-2.6,1.6-4.9,3.5-7.2,5.4c-3.8,3.3-7.6,6.6-11.2,10.1
		c-2.6,2.5-4.1,5.7-4.2,9.4c-0.2,6.1,1.6,11.5,6.2,15.8c2.6,2.4,5.4,4.5,8.9,5.7c-1,0.1-2,0.3-2.9,0.1c-1.5-0.3-3-1-4.5-1.4
		c-1.6-0.5-2.4,0.3-2,1.9c0.2,0.7,0.5,1.6,1,2.1c2.8,3.3,6.4,5.7,10.4,7c4.6,1.5,9.3,2.6,14.2,2.9c6.4,0.5,12.6,0.1,18.8-1.2
		c7.8-1.6,15.1-4.5,22.3-7.7c1.1-0.5,2.1-1,3.3-1.6c-0.5-0.3-0.8-0.5-1.1-0.7c-3.6-2.1-6.5-4.9-8.1-8.9c-0.1-0.3-0.7-0.6-1-0.6
		c-0.9,0-1.7,0.1-2.6,0.3c-2.7,0.5-5.4,1-7.7,2.7c-1.4,1-2.2,2.4-2.2,4.1c0,1.1-0.1,2.3-0.3,3.4c-0.5,2.6-1.6,5-4.2,6.7
		c0.5-0.8,0.8-1.5,1.2-2c1.2-1.7,1.6-3.6,1.5-5.7c-0.1-2.4-1.4-3.9-3.7-4.4c-2.6-0.6-4.9,0.2-7.3,1.1c1.1-0.9,2.1-1.9,3.3-2.3
		c2.2-0.8,4.6-1.2,6.9-1.9c2.9-0.9,5.7-1.8,8.5-2.9c1.2-0.5,2.3-1.5,2.4-3c0.1-1.1,0.1-2.2,0.3-3.3c0.3-2.2,0.8-4.2,2.4-6
		c-0.3,1.1-0.7,2.1-1,3.2c-0.5,2.1-0.1,4.1,1.4,5.7c2.2,2.1,5,2.4,7.8,2.2c2.8-0.2,4.2-1.9,5.1-4.3c0.2-0.5,0.5-1,0.8-1.4
		c0.3-0.4,0.8-0.8,1.4-1.4c-0.3,0.9-0.5,1.4-0.7,1.9c-0.8,2.3-0.1,4.2,2.2,5.2c1.2,0.5,2.6,0.9,3.9,0.7c2.1-0.3,4.2-1,6.3-1.6
		c1.3-0.4,2.6-0.9,4-1.1c2.1-0.3,3.7,1,5.5,1.9c2.4,1.2,4.7,2.8,7.3,3.5c6.1,1.8,12.3,1.6,18.6,1.1c6.9-0.6,12.4-7,11.9-13.9
		c-0.2-2.6-0.7-5.2-1.2-7.8c-0.6-3.5-2-3.8-5.1-3.5c-4.4,0.4-8.7,0.2-12.6-1.9c-4.1-2.3-8-2-11.9,0.2c-0.2,0.1-0.4,0.2-0.7,0.3
		c-2.3,0.8-4.5,1.8-6.8,2.4c-1.4,0.3-3,0.1-4.5,0.1c4.3-1.1,8.3-2.7,12-5.1c3-2,4.6-4.8,4.6-8.4c0-1.7-0.6-2.1-2.2-1.6
		c-1,0.3-1.9,0.6-2.9,0.8c-1.4,0.2-2.8,0.3-4.3,0.4c0-0.1-0.1-0.3-0.1-0.4c3.8-0.9,6.7-3.4,9.6-5.7c2.1-1.7,3.8-4.1,5.3-6.3
		c1.3-1.9,2.2-4.1,3.3-6.2c3.2-6.4,4.9-13.3,5.7-20.4c0.4-3.2,0.7-6.4,1-9.6c0.4-4.6-0.3-8.9-2.8-12.9c-1.1-1.8-2.6-3.4-5-3.6
		c0.9-0.1,1.8-0.1,2.7,0.1c2.5,0.4,4.1,2.1,5.5,4.1c1,1.4,1.9,1.6,3.5,1.2c0.8-0.2,1.5-0.3,2.3-0.4c1.5-0.1,3-0.1,4.5-0.2
		c1.7-0.1,3.2-1,3.3-2.3c0.2-1.5,0-3-1.1-4.1c-3.2-3.2-6.4-6.5-9.6-9.6c-1.4-1.3-3-2.2-5-1.7c-2.2,0.5-3.7,2.6-3.8,5.1
		c0,1.1,0,2.1,0,3.2c-1.6-3.3-2.2-6.7-0.4-10.1c0.5-1,1.1-2.2,0.3-3.3c-0.9-1.1-2.3-0.7-3.3-0.3c-1.8,0.8-3.4,2-5.2,3
		c-0.9,0.5-2.1,1.1-3,0.9c-3.1-0.7-5.6-2.5-7.5-5.1c1,0.5,2,1,2.9,1.5c3.1,1.8,6.1,1.8,9.2,0c1.5-0.9,1.9-2,0.4-3.1
		c-1.1-0.9-2.5-1.6-3.9-2c-5.7-1.6-11.3-1.5-16.6,1.4c-0.9,0.5-1.5,1.6-2.1,2.5c-0.3,0.5-0.1,1.5-0.6,1.9c-0.5,0.4-1.4,0.2-2.1,0.3
		c-0.6,0.1-1.2,0.2-1.7,0.3c-5.7,1-10.9,3.3-15,7.6c-2.1,2.2-1.9,4.4,0.6,6.1c0.8,0.5,1.5,1.1,2.2,1.6c2.2,1.7,1.1,3.4-0.5,4.4
		c-0.6,0.4-1.3,0.7-2.1,0.9c-2,0.5-4,1-6,1.3c-3.7,0.6-7.2,1.7-9.5,5c-0.8,1.2-1.6,2.5-2.3,3.7c-3.2,5.6-5.8,11.5-6.1,18.1
		c-0.2,3.7,0.6,7.1,3.6,9.6c0.6,0.5,0.3,0.9,0.1,1.4c-0.7,1.7-1.4,3.5-2,5.2c-0.4,1-0.2,2.1,0.7,2.8c1,0.8,1.9,0.1,2.7-0.5
		c3.2-2.1,6.4-4.2,9.6-6.2c2.3-1.5,4.9-2.6,7.1-4.3c3.1-2.5,4.4-4.9,2.9-8.9c-0.4-1-0.7-2-0.9-3c-0.8-2.6-0.3-4.9,1.6-7.1
		c-0.9,3.5-0.5,6.7,1.2,9.7c1.8,3.1,4,5.8,7.7,6.4c1.4,0.2,2.9,0.4,4.4,0.4c5,0.1,9.4-1.3,12.1-5.9c1.6-2.8,2.6-5.9,3.9-8.8
		c0.8-2,1.5-4.1,2.5-6c0.9-1.7,2.3-3,4.3-3.9c-0.3,0.3-0.6,0.5-0.8,0.7c-3.3,3.6-5.1,7.8-4.9,12.8c0.1,1.9-0.4,3.5-1.7,4.8
		c-1.2,1.3-2.5,2.4-3.7,3.6c-1.1,1.1-2.2,2.2-3.1,3.4c-0.7,0.9-0.5,1.7,0.5,2.4c1.8,1.2,3,2.8,3.7,4.8c0.4,1.2,0.7,2.5,0.1,3.9
		c-0.3-0.9-0.6-1.8-1-2.5c-1.8-3.4-4.8-5-8.5-5.3c-2.5-0.2-5-0.3-7.5-0.5c-3.6-0.2-7.3-0.3-10.6,1.5c-3.4,1.8-6.8,3.8-9.9,6.1
		c-4.2,3-8.2,6.4-12.4,9.5c-1.6,1.2-3.6,2.1-5.1,3.4c-3.5,3.2-5.2,7.5-5.9,12.1c-0.5,3.1-0.4,6.1,1.1,8.9c1.4,2.7,2.6,3.3,5,0.4
		c1.1-1.2,1.8-2.8,2.7-4.1c-0.3,2.5-1.6,4.6-3.4,6.4c-2.2,2.4-2.4,4.4-0.4,6.9c1.1,1.4,2.7,2.5,3.8,3.6c-1.6-0.3-3.2-1.1-4.3-2.6
		c-1.4-2-3.3-1.9-5.2-1.5C290.4,271.8,287.5,273.9,285.2,276.9z M242.1,198.3c-0.6,0-0.8-0.1-1.1,0c-2.2,0.6-3.9-0.4-5.3-2
		c-0.6-0.7-1.3-1.4-2-2.1c-1.9-1.8-4-2.1-6.2-0.8c-2,1.1-4,2.3-5.8,3.8c-2.5,2-5.1,3.9-7.1,6.4c-2.9,3.6-4.4,8-5.4,12.5
		c-0.6,2.7-1,5.5,0.1,8c-0.6,0.4-1.5,0.7-1.8,1.3c-0.5,1-0.9,2.2-1,3.3c-0.2,4.7,0.1,9.3,1.3,13.9c0.6,2.1,1.7,3.6,3.5,4.6
		c4.2,2.5,8.9,1,10.7-3.5c0.3-0.8,0.7-1.6,1-2.4c-0.2,2.6,0.4,4.9,2.3,6.6c0.9,0.9,1.9,1.8,3.1,2.4c3.1,1.6,6.3,3,9.5,4.4
		c2.7,1.2,5.5,1.7,8.4,1.8c3.7,0.1,7-0.8,9.6-3.8c1.2-1.4,2.5-2.8,3.9-4.1c2.4-2.2,4.9-4.2,7.2-6.4c0.5-0.5,0.9-1.2,1.3-1.9
		c-7.6-1.6-12-7.9-13.7-13.1c0.6,0.6,1,1.1,1.4,1.6c2.2,2.3,4.5,4.4,7.3,5.9c4,2.2,7.8,1.1,8.7-3.5c0.2-1,1-1.8,1.5-2.7
		c0.8-1.5,1.7-2.9,2.2-4.4c1-3.1,0.6-6.3,0.4-9.8c0.4,1,0.8,1.8,1.1,2.6c1.3,3.8,1.8,7.6,0,11.3c-0.5,1.1-1.2,2.1-1.8,3.2
		c-0.9,1.6-0.5,3,0.4,4.5c0.5,0.7,0.9,0.8,1.6,0.3c1.5-1,3.2-1.5,5-1.4c3,0.2,5.9,0.4,8.9,0.6c3.5,0.2,6.7-0.3,9.1-3.1
		c1.1-1.2,2.2-2.4,3-3.8c1.9-3.3,3.1-6.7,0.3-10.1c-2.5-3.1-3.1-6.9-2.6-10.7c0.4-3.6,1-7.2,1.8-10.7c1.7-7.6,6.3-12.6,13.9-14.6
		c1.6-0.4,3.2-0.7,4.7-1.1c1.5-0.5,2.3-1.6,2.4-3.2c0.2-3.6-0.7-6.6-3.8-8.8c1.1,0.5,2.2,0.9,3.3,1.4c3.5-5.2,8.6-7.6,14.4-9.1
		c2.4-0.6,4.7-1.5,6.9-2.6c2.2-1,2.6-3,0.9-4.7c0,0,0-0.1,0.1-0.2c2.1,0.6,4.3,0.8,6.4-0.1c1.2-0.6,1.6-1.6,0.6-2.5
		c-1-0.9-2.3-1.7-3.6-2.1c-3.7-1-7.3-0.3-10.8,1c-2.4,0.9-5,1.2-7.7,1c0.8-0.6,1.5-1,2.2-1.5c0.9-0.8,0.8-1.8-0.1-2.4
		c-1-0.6-2.1-1.2-3.3-1.6c-5.7-1.8-11.6-1.7-17.5-1.5c-1.7,0.1-3.4,0.4-5,1c-4.2,1.4-5.5,4-4.3,8c-1.6-1-2-2.7-2.4-4.3
		c-0.2-1-0.8-1.6-1.8-1.6c-3.4-0.3-7.9,2.2-9.1,5.3c-0.3,0.8-0.7,1-1.5,1c-3.8,0.1-7.5,0.7-10.7,2.8c2.1-2.1,4.4-3.8,7.5-3.9
		c2.1-0.1,4-0.7,5.1-2.7c0.2-0.4,0.3-1,0.1-1.4c-0.1-0.3-0.8-0.4-1.2-0.4c-0.9,0-1.8,0.2-2.7,0.3c-3.2,0.5-6.5,0.8-9.6,1.5
		c-3.9,0.9-7.7,2.1-11.6,3.2c-2.1,0.6-3.6,1.9-4.6,3.8c-0.3,0.6-0.5,1.7-0.2,2.3c0.3,0.5,1.4,0.7,2.1,0.6c2.1-0.4,4.1,0,6,0.6
		c2.2,0.7,4.3,2.5,4.1,5.2c0,0.2,0.1,0.4,0.2,0.6c1.8-1.2,3.4-2.4,5.1-3.6c0.1,0.1,0.1,0.2,0.2,0.3c-2.8,2.3-5.1,4.9-6.1,8.5
		c-0.6,2.2,0.1,3.8,1.7,5.3c2.2,2,4.3,4.2,6.4,6.3c0.8,0.9,1.7,1.5,2.9,1.7c4,0.8,7.1-2.2,6.3-6.2c-0.7-3-0.9-6,0.1-9
		c1.1-3.3,2.3-6.6,1.8-10.2c0.6,1.2,1,2.5,1.3,3.8c0.5,2.3-0.2,4.5-0.8,6.6c-0.7,2.5-1.2,5-0.4,7.6c0.6,1.8,1.7,2.8,3.5,2.6
		c1.8-0.2,3.7-0.4,5.3-1.2c2-0.9,3.8-2.4,5.6-3.7c-0.3,0.3-0.5,0.7-0.8,1.1c-2,2.8-4.8,4.5-7.8,5.9c-2.8,1.4-5.8,2.5-8.4,4.1
		c-3.7,2.2-3.6,3.3-2.7,6.3c0.5,1.6,0.8,3.3,0.7,4.9c-0.1,1.8-0.8,3.6-1.3,5.3c-0.5,1.5-0.5,2.9,0.3,4.2c0.6,1.1,1.2,2.1,1.8,3.2
		c1.5,2.6,2.6,5.2,2.4,8c-0.9-1.8-1.8-3.9-2.9-5.8c-1.6-2.7-4.5-4.9-8.3-3.9c-1.9,0.5-3.9,1-5.7,1.8c-5.2,2.3-10.7,3.4-16.3,4.2
		c-4.3,0.6-8.1,1.9-10,6.4c-1,2.5-3.1,4-5.2,5.4c-1.1,0.7-2.2,1.5-3.1,2.4c-3.1,3.2-3,6.9,0.4,9.7c1.6,1.3,3.4,2.3,5.3,3.1
		c2.1,1,4.4,1.6,6.5,2.4c-1.6,0-3.3,0.1-5,0c-1.8-0.2-3.6-0.6-5.4-1.1c-3.7-1.2-5.8-4.1-7.8-7.1c-1.5-2.1-3.4-3.5-6-4.1
		c-2-0.4-4-0.9-5.9-1.5c-2-0.6-3.6-1.8-4.5-3.8c0.9,0.5,1.7,1,2.6,1.4c3.4,1.4,7,1.6,10.6,1.2c1.7-0.2,3.4-0.8,4.8-1.6
		c2.3-1.2,2.2-2.3-0.1-3.5c-1.7-0.9-3.3-2-3.9-4.2c0.4,0.4,0.7,0.6,1,0.9c4.1,3.5,10.9,4,14.3-1.7c0.6-1,1.3-2,2-2.9
		c1.2-1.7,2.9-2.8,5-3.1c3-0.4,6-0.6,9-1.1c3.6-0.5,6.9-1.7,9.8-3.9c2-1.5,4.1-2.8,6.1-4.1c1-0.6,2-1,3-1.6
		c4.4-2.5,5.5-6.9,2.7-10.9c-1-1.5-1.9-3.1-2.8-4.7c-2-3.6-4.3-6.9-8.2-8.7c-3.3-1.5-3.3-1.6-2.1-5.1c0.1-0.4,0.3-0.8,0.4-1.2
		c0.3-1.5,0.8-3.1,1-4.6c0.2-2.9-1.5-5.1-4.4-5.2c-2.4-0.1-4.8,0.2-7.2,0.7c-2.3,0.4-4.3,1.7-5.6,3.8c-0.8,1.2-1.1,2.5-0.3,3.9
		c0.7,1.3,1.9,1.6,3.3,1.6c1,0,2,0.3,3,0.5c-0.4,0.3-0.7,0.4-1,0.4c-0.3,0-0.7,0.1-1,0.1c-6.3,0.9-11.3,3.7-13.8,9.8
		c-0.8,2-1.4,4.1-0.7,6.2c0.4,1.3,1.2,1.7,2.6,1.3c1.2-0.4,2.5-0.8,3.8-0.9c3.2-0.4,6.5-0.6,9.3,1.4c2.7,1.9,5.7,2.3,8.9,2.2
		c0.4,0,0.7,0,1.4,0c-3,1.5-6.9,1.4-9.8,0.1c-2.5-1.1-5-1.9-7.8-1.6c-4.4,0.5-6.8,1.8-7.5,6.6c-0.3,1.8-0.8,3.5-1.4,5.2
		c-0.4,1-1.2,1.8-1.9,2.7c-0.2-0.1-0.3-0.2-0.5-0.3C240.8,203.3,241.4,200.9,242.1,198.3z M394.3,247.1c0.5-0.6,0.7-0.9,1-1.3
		c1.6-2.3,3.2-4.5,3.7-7.3c0.3-1.7-0.1-2.2-1.8-2.1c-5.2,0.3-9.2-2-12.6-5.6c-1.3-1.3-2.2-2.9-3.4-4.3c-1.2-1.4-2.3-1.3-3.3,0.3
		c-0.6,1-1,2-1.5,3c-1.3,3-2.8,6-5.1,8.5c-2.3,2.6-3.9,5.5-4.2,8.9c-0.3,2.5-0.1,4.2,3,4.9c0.6,0.1,1.2,0.4,1.8,0.6
		c5.5,2.2,11,3.8,17.1,3c3.8-0.5,7.7-0.3,11.1-2.6c-0.5,0.6-1.1,1.3-1.7,1.7c-1.3,0.8-2.8,1.4-4.1,2.2c-0.6,0.4-1.3,1.1-1.4,1.7
		c-0.2,1.3-0.2,2.7,0,4c0.4,4,1.6,5.8,6.1,6.8c3.6,0.9,7.1,0.2,10.5-1.4c2.8-1.3,5-3.3,7-5.6c-5.1,8.9-12.6,11.3-22.2,8.4
		c-0.1,0.8-0.1,1.6-0.4,2.2c-0.7,1.7-1.4,3.4-2.3,5c-1.6,2.6-1.2,7.4,2.5,9c4.5,1.9,9.1,2.9,14,2.7c3.8-0.2,7.4-0.9,10.6-3.1
		c2.2-1.5,4.4-3.2,5.4-5.8c0.2-0.6,0.3-1.5,0-2c-1-1.6-2.2-2-4.1-1.5c-2.1,0.6-4.2,1.4-6.3,2.2c-0.3,0.1-0.5,0.4-0.6,0.7
		c-1.1,3.3-4,4.3-6.9,5.2c0.2-0.3,0.5-0.5,0.7-0.7c1-1,2.2-1.8,3.1-2.9c0.9-1.1,0.5-1.7-0.7-2.2c-1.1-0.5-2.2-1.1-3.3-1.7
		c0-0.1,0.1-0.2,0.1-0.4c4.4,1.7,8.4,1.2,11.9-1.8c0.2-0.2,0.8-0.3,1.1-0.1c2,0.7,3.9,0.5,5.9-0.2c2.6-1,4.8-4.1,4-7
		c-0.9-3.2-2.8-5.4-5.7-7.3c2.3,0.5,4.2,1.5,5.7,3.1c1.1,1.1,2.4,0.8,2.7-0.8c0.2-1.3,0.3-2.6,0.4-3.9c0.3-3.5-0.4-6.8-2.9-9.4
		c-1.6-1.7-3.6-2.8-5.9-3.4c-0.8,6.6-1.5,8.6-3.2,9.7c1.7-4.1,2.4-8.2-1.2-11.9c0.4-0.7,0.8-1.3,1.1-1.9c1-2.1,2-4.2,1.9-6.5
		c0-3.2-1.5-5.5-4.5-6.9c0.3-0.2,0.6-0.4,0.8-0.6c5.3-3.9,7.7-11.7,3.5-18c-2.6-3.9-8.1-4.2-11-0.5c-1.9,2.4-3.8,4.8-5.8,7.1
		c-1.7,1.9-3.8,2.4-6.3,1.7c-2.4-0.7-4-2.3-4.4-4.8c-0.3-1.8-0.3-3.6-0.6-5.3c-0.3-2.3-0.6-4.6-1.2-6.9c-0.3-1.1-1.3-2-1.9-2.9
		c-0.2,0-0.1,0-0.1,0c0.2,0.1,0.4,0.2,0.6,0.3c2.4,1.5,3.7,3.7,4,6.5c0.1,1,0.4,1.1,1.3,0.9c3-0.6,5.1-2.9,5.2-6
		c0-1.5-0.2-3.1-0.3-4.3c0.2,0.5,0.6,1.3,0.9,2.1c1.2,3.9,0.7,7.3-3.3,8.9c-0.2,0.1-0.3,0.2-0.4,0.2c-2.6,1.6-2.7,5.5-0.2,7.2
		c3,2.1,7.3,0.6,8.7-2.9c0.4-1,0.5-2,0.8-3c0.7-2.6,2-4.6,5.1-4.3c0.7,0.1,1.4,0.1,2.1,0c1.8-0.2,2.7-1.9,1.6-3.3
		c-1.8-2.4-3.6-4.8-5.6-7.1c-2.3-2.7-5-4.9-8.4-6c-3.9-1.2-7.8-2.1-11.8-2.9c-3.7-0.7-6.4,0.9-6.1,5c0.2,2.2,0.2,4.4-0.1,6.5
		c-0.7,5-1.6,10-2.3,15c-0.3,2.4-0.5,4.8-0.2,7.1c0.7,6.1,4.1,10.6,9,14c5.9,4.1,15.6,2.2,17.7-6.7c0.3-1.1,0.5-2.3,0.8-3.4
		c0.1,0,0.3,0,0.4,0c0.6,3.1,1.6,6.2,1.8,9.3c0.5,6.9-0.6,13.7-3.7,20c-1.3,2.5-2.6,4.4-3.6,5c1.1-3.4,2.5-7.2,3.6-11
		c1-3.5,1.7-7.1,1.1-10.8c-0.3-2-1.6-2.8-3.4-1.8c-2.1,1.2-4.1,2.7-5.1,5.1C399.2,242.1,397.3,244.8,394.3,247.1z M226.7,185.4
		c0.3-0.1,0.7-0.4,1.2-0.5c2.7-0.5,5.4-1.1,8.1-1.5c2.1-0.3,4.2-0.7,5.5-2.5c1.9-2.6,4.5-4.6,7-6.6c1.5-1.2,2.3-2.8,2.3-4.8
		c0-1.9-0.8-3.4-2.1-4.7c0.8-0.1,1.5-0.2,2.1-0.2c1.8-0.1,3.4-0.8,4.4-2.3c1.2-1.7,2.2-3.6,3.3-5.4c0.2-0.3,0.2-0.6,0.3-0.9
		c0.1-1.1-0.4-1.5-1.4-1.2c-3.5,0.8-6.8,2.1-9.7,4.3c-2.9,2.2-5.8,4.3-8.9,6.4c-4.5,3-9.2,5.7-13.6,8.8c-1.4,0.9-2.3,2.5-3.3,3.8
		c-0.3,0.3-0.3,1.3,0,1.6c0.4,0.4,1.1,0.5,1.7,0.4c0.7-0.1,1.4-0.5,2-1c1.3-1,2.5-2.2,3.8-3.3c2.7-2.4,5.8-3.4,9.2-3.1
		c-2,0.9-4.1,1.7-6.1,2.7c-2.1,1.1-4,2.5-5,4.7c-0.4,1-1.1,1.2-2,1.5c-1.3,0.4-2.7,0.9-3.9,1.7c-4.9,3.3-8.3,8-11.1,13.1
		c-0.4,0.8-0.5,1.9-0.5,2.8c0,1.3,1,1.8,2.1,2.2c0.9,0.4,1.7,0.3,2.4-0.6c0.9-1.1,1.9-2.1,2.9-3.1c2.8-2.6,6-4.6,9.8-5.7
		c3.1-0.9,6.1-0.8,8.4,1.9c0.4,0.5,1,0.8,1.5,1.2c1,0.7,2,0.7,3,0c1.8-1.2,2.4-3.2,1.4-5.2c-1.6-3.2-4.3-4.7-7.8-4.8
		C231.3,185,229,185.3,226.7,185.4z M331.3,313.8c2.3,2.6,4.3,5.2,6.6,7.5c4.1,4.4,8.3,8.6,11.6,13.6c1.1,1.7,2.6,3.2,4.1,4.6
		c1.7,1.5,3.5,1.4,5.3,0.1c0.8-0.6,1.5-1.3,2.2-2c0.7-0.6,0.9-1.4,0.5-2.3c-0.7-1.4-1.5-2.7-2.3-4c-2-3.1-4.6-6-6-9.3
		c-1.2-2.7-2.5-3.4-5.2-3.2c-3.4,0.2-6.5-1-8.8-3.5c-1.3-1.4-2.4-2.1-4.4-1.7C333.7,313.8,332.6,313.7,331.3,313.8z M329.1,278.9
		c0,0.1,0,0.1-0.1,0.2c-0.2,0-0.4,0-0.6,0c-2.6,0.1-3.7,1.6-2.8,4.1c0.8,2.3,2.5,3.8,4.4,5.2c1.1,0.8,2.2,1,3.6,0.7
		c2.1-0.4,4.3-0.5,6.5-0.6c2.6-0.1,5.2,0,7.7-0.3c2.9-0.3,5.7-0.8,8.3-2.3c2.1-1.2,2-3.1,0-4.4c-1.3-0.8-2.4-1.9-3.7-2.7
		c-0.8-0.5-1.7-1.1-2.6-1c-1.3,0.1-2.7,0.5-3.9,1.2c-3.9,2.5-7.8,2.8-12.1,1.2C332.3,279.6,330.7,279.3,329.1,278.9z M420.9,243.6
		c1.1,0.4,2.1,0.7,3,1.1c1,0.4,1.9,0.8,2.9,1.2c3,1.2,4.2,0.4,4-3.1c0-0.1,0-0.2,0-0.3c-0.7-3.5-1.3-7-2-10.4
		c-0.4-1.9-0.9-3.8-1.7-5.6c-0.7-1.6-2-1.8-3.3-0.7c-1.1,1-2.2,2.1-3.3,3.1C424.5,233.8,423.9,238.6,420.9,243.6z M361.4,294.5
		c0.2,0,0.5,0.1,0.7,0.1c3.2,0.2,6.4,0.2,9.5,0.5c5.6,0.5,11.1,1.7,16.4,3.9c2.8,1.2,5.4,2.8,8.2,4.3c0.5-0.8,1.3-1.9,2.1-3
		c-0.7-0.6-1.2-1.2-1.9-1.6c-2.5-1.3-5-2.7-7.7-3.6c-7.9-2.7-16.2-3.2-24.5-3.5C362.2,291.6,361.6,292.2,361.4,294.5z M380.9,311.2
		c0.1-0.1,0.1-0.2,0.2-0.4c-0.4-0.2-0.7-0.4-1.1-0.6c-2.3-1.1-4.7-2.1-6.9-3.3c-4.1-2.3-7.8-4.9-10.4-8.9c-0.6-1-2.7-1.2-3.6-0.4
		c-1.1,1.1-2.1,2.3-3.3,3.6C363.5,306.3,371.4,310.9,380.9,311.2z M365.5,296.9c-0.1,0.2-0.2,0.4-0.3,0.6c1.4,1.4,2.8,2.8,4.3,4
		c4.8,3.8,10.4,6.2,16.1,8.1c1.5,0.5,2.6,0.1,3.8-0.9c-0.1-0.1-0.2-0.2-0.3-0.3c-0.7-0.3-1.4-0.6-2-0.9c-4.1-1.8-7.8-4.2-10.6-7.6
		c-1.3-1.6-2.6-2.6-4.7-2.7C369.6,297.3,367.5,297.1,365.5,296.9z M231.2,255.8c-2.6-2.2-4.9-4.3-7.9-5.1c-1.5-0.4-3.1-0.3-4.7-0.4
		c-2.5-0.1-5,0-7.6,0c0.4,0.6,0.9,1.4,1.5,2.1c1.5,1.8,2.9,3.6,5.4,4.1C222.3,257.4,226.6,256.7,231.2,255.8z M399.3,297.9
		c0.3-1.4,0.7-2.6,0.8-3.8c0-0.3-0.3-0.8-0.5-0.9c-4.2-1.5-8.3-3.3-12.7-4.2c-5.2-1.1-10.4-2.1-15.7-0.8c-1.1,0.3-2.2,0.5-3.4,0.8
		c5.6,0.8,11,1.5,16.3,2.4C389.5,292.4,394.7,294.3,399.3,297.9z M377,313.4c0-0.1,0-0.3,0-0.4c-1.2-0.3-2.4-0.5-3.6-0.8
		c-6.6-1.6-12.6-4.7-18.3-8.3c-1.8-1.1-1.8-1.1-3.4,0.4c1.5,1.5,2.8,3,4.4,4.4c2.7,2.4,5.7,4.6,9.3,5.1c3,0.4,6.2,0,9.3-0.1
		C375.5,313.6,376.3,313.5,377,313.4z M240.3,263.5c2.2-0.4,4.3-0.8,6.5-1.3c0.8-0.2,1.8-0.6,1.7-1.7c-0.1-1.1-1.2-1.2-2-1.4
		c-0.5-0.1-1-0.1-1.5-0.1c-1.4,0-2.9,0.1-4.3,0c-2.5-0.1-5.1-0.4-7.2-1.8c-1.4-0.9-2.4-0.7-3.6,0.2c-0.3,0.2-0.6,0.4-0.8,0.6
		c-1.4,1.1-1.3,2.4,0.4,3C232.9,262.2,236.5,263.2,240.3,263.5z M204.5,229.3c0.2,0,0.3,0,0.5,0c0.1-0.4,0.1-0.9,0.2-1.3
		c0.6-3.8,1-7.7,1.8-11.5c0.7-3.5,1.9-6.9,2.8-10.4c0.2-0.8,0.1-1.8-0.2-2.7c-0.1-0.4-0.8-0.8-1.3-0.8c-0.4,0-0.9,0.5-1.1,0.8
		c-2.7,6.2-4.5,12.5-3.7,19.3C203.7,225,204.1,227.2,204.5,229.3z M357.8,291c-0.1-0.1-0.2-0.2-0.3-0.4c-1.3,0.1-2.7,0.3-4,0.2
		c-1.2-0.1-1.7,0.4-2.1,1.5c-1.2,3.5-3.2,6.6-6.1,9c-1.3,1.1-2.8,2-4.3,3.1c-0.4,0.3-0.8,0.7-1.2,1.1c0.5,0,1,0,1.6-0.1
		c0.3,0,0.6-0.2,0.9-0.3c5.4-2.3,10.1-5.6,13.5-10.6C356.7,293.5,357.2,292.2,357.8,291z M334.1,309.1c-0.2-0.4-0.4-0.7-0.6-1
		c-2.3-3.3-4.6-6.7-6.9-10c-0.2-0.2-0.5-0.5-0.8-0.4c-1.8,0.5-3.6,1.1-5.4,1.6C321.4,303.5,328.8,308.1,334.1,309.1z M333.6,302.9
		c0.5,1.6,0.7,1.7,2.1,1.2c4.1-1.4,7.6-3.6,10.3-7.1c1.3-1.7,2.4-3.5,3-5.5c-2.7-0.4-4.5,0.3-5.9,2.7
		C341,298.1,338.3,301.7,333.6,302.9z M393.8,305.7c-4.4-4.2-9.8-5.8-15.6-7.2c0.1,1.3,0.8,2,1.5,2.6c3,2.6,6.4,4.5,10.1,5.9
		C391.7,307.7,392.4,307.5,393.8,305.7z M330.5,310.8c-0.9-0.4-1.4-0.7-2-0.9c-4.3-2-8.2-4.6-10.4-9c-0.1-0.3-0.7-0.6-1-0.5
		c-1.2,0.3-2.4,0.7-3.5,1.1C314.9,306.5,324.4,311.9,330.5,310.8z M345,307.9c-2.2,0.7-4.3,1.3-6.3,1.9c1.2,4.3,8.6,7.6,12.8,5.7
		C348.6,313.6,346.4,311.1,345,307.9z M341.4,292.3c-3.5,0.6-6.7,1.4-9.2,3.7c-0.3,0.3-0.5,0.7-0.6,1.1c-0.4,0.9,0.2,3.5,1,3.8
		c0.7,0.2,1.8-0.1,2.6-0.5C338.2,298.6,339.8,295.6,341.4,292.3z M360.4,314.7c-4.1-2.4-7.5-5.2-10.5-8.6c-0.8-0.9-1.5,0-2.1,0.3
		c-0.2,0.1-0.3,0.9-0.1,1.2c2,3.8,5.2,6.3,9.3,7.5C358,315.5,359.2,315.6,360.4,314.7z"/>
	<path class="st2" d="M346.3,245.3c-6.3,0.8-12.2,1.5-17.9,3.6c-1,0.4-1.9,0.8-2.8,1.4c-2.2,1.5-2.2,3.7,0.1,5c2,1.2,4.3,2,6.5,2.9
		c2,0.9,4,1.7,5.9,2.7c0.7,0.4,1.2,1.4,1.7,2.1c-2.2-0.9-4.4-1.9-6.7-2.8c-1.2-0.4-2.5-0.7-3.8-0.8c-2-0.3-3.6,0.9-4.2,3.2
		c-0.6,2.5-1.2,5-1.8,7.7c0-2.8-0.1-5.5,0-8.1c0.1-3.9-0.7-7.3-3.3-10.4c-3.4-4.2-7.8-6.5-12.5-8.8c1.6,0.3,3.2,0.7,4.7,1.1
		c1.6,0.4,3.2,0.9,4.8,1.4c1.5,0.4,3,1,4.5,1.4c2.6,0.7,5-0.1,7.5-0.8c3.8-1,7.7-1.2,11.6-1C342.5,245,344.2,245.2,346.3,245.3z"/>
	<path class="st2" d="M290.9,292.6c-1.9-0.2-3.7-0.3-5.6-0.5c-2.1-0.3-3.4,0.3-4.5,2.1c-0.7,1.1-1.3,2.2-2.1,3.2
		c1.4-3.2,0.7-6.3-0.7-9.2c-1.6-3.3-3.3-6.5-5-9.8c-0.3-0.6-0.6-1.3-0.6-1.9c-0.2-3.4-2.5-5-5.2-6.1c-1.6-0.6-3.6-0.5-4.9-0.7
		c1.8-0.8,4.1-1.2,6.6-0.6c0.3,0.1,0.6,0.1,0.8,0.3c3.3,1.2,3.5,0.1,4.2-2.6c0.6-2.1,1-4.2,1.6-6.3c0.5-1.7,1.5-3,3.1-3.9
		c2.3-1.3,4.4-2.9,5.9-5.2c0.5-0.8,0.8-1.7,1.3-2.5c0.4,2-0.5,3.7-1.8,5.1c-1.1,1.2-2.2,2.3-3.4,3.4c-2,1.8-3.3,4.1-3.7,6.8
		c-0.5,3.3-1.2,6.7-1.3,10c-0.3,5.9,1.4,11.1,6.3,14.9c2.7,2.1,5.9,2.8,9.2,3.2C291,292.3,291,292.4,290.9,292.6z"/>
	<path class="st2" d="M341.5,172.6c2.3,0,4.3,0.5,6,1.8c1.7,1.2,3.4,1.5,5.4,0.8c2.7-0.9,5.4-1.2,8.3-0.9c2.1,0.2,4.3-0.3,6.5-0.2
		c-1.7,0.5-3.4,1-5.2,1.3c-1.5,0.3-3.1,0.3-4.6,0.3c-2.5,0-4.4,1-5.8,3c-1.2,1.8-2.5,3.7-3.8,5.4c-1.4,1.7-2.8,3.4-4.5,4.9
		c-3.1,2.7-6.1,9.6-4,14.3c0.1,0.2,0.1,0.4,0.2,0.7c-1.6-0.6-2.5-2.2-2.6-4.4c-0.1-1.9-0.1-3.8-0.3-5.6c-0.1-1.1-0.8-1.6-1.8-2
		c-4-1.4-7.7-0.2-11.3,1.2c-1.1,0.4-2.1,0.9-3.2,1.4c1.5-2,5.2-4.1,8.4-4.8c2.4-0.5,4.8-0.5,7.2,0.1c2.2,0.6,3.9,0.1,5.6-1.3
		c2.9-2.4,4.9-5.5,5.9-9.1c0.6-2,0-3.4-1.7-4.7c-0.7-0.5-1.4-0.9-2.1-1.3C343.3,173.1,342.4,172.9,341.5,172.6z"/>
	<path class="st2" d="M354.7,268.6c3.1,1.2,6.1,0.8,9.1-0.3c2.4-0.9,4.8-1.6,7.3-2.2c1.2-0.3,2.4,0,3.7,0c0,0.1,0,0.3,0,0.4
		c-1,0.2-1.9,0.3-2.9,0.6c-2.8,0.8-3.2,2.7-1.2,4.7c0.2,0.2,0.5,0.4,0.7,0.8c-0.4-0.2-0.9-0.4-1.3-0.6c-2.4-1.6-4.9-1.9-7.7-1.3
		C359.6,271.2,357.1,270.2,354.7,268.6z"/>
	<path class="st2" d="M308.4,160.8c-1.4-4.4-0.5-8.2,3-11.2c-1.1,1.8-2.3,3.7-1.9,6c0.2,1.2,0.7,2.5,1.4,3.5
		c1.5,1.8,3.9,1.5,5.4-0.3c1.3-1.5,2.5-3.1,4.1-4.3c1.1-0.9,2.7-1.1,4.2-1.5c-4.9,2.4-10.1,9.1-10.5,14c-3.9-4.8-8.8-5.2-14.2-3.6
		C301,162,301.8,161.8,308.4,160.8z"/>
	<path class="st2" d="M227.1,207.8c-2-2.1-1.6-4.6-1.3-7.1c1.5,3.8,4.2,6.4,8.1,8.3c-6.7,1-12,4-16.6,8.7c0.8-2.5,2.2-4.3,4.1-5.8
		C223.1,210.4,225.1,209.2,227.1,207.8z"/>
</g>
<g>
	<path class="st3" d="M439.5,396.8c-1.2,0-2.3,0-3.4,0c-0.4,0-0.9,0.1-1.3,0.1c-0.1,0-0.3,0.1-0.3,0.2c-0.6,1.4-1.2,2.7-1.8,4.1
		c0,0.1,0.1,0.2,0.1,0.5c-0.9-0.4-1.7-0.8-2.5-1.1c-0.8-0.3-1.6-0.7-2.4-0.9c-0.2-0.1-0.5,0.1-0.7,0.2c-1.2,1.1-2.3,2.3-3.6,3.6
		c-0.3-0.4-0.6-0.7-1-1.1c-0.3-0.3-0.7-0.5-1-0.8c-0.2-0.2-0.3-0.5-0.5-0.7c-0.6-0.9-1.5-1.1-2.6-0.5c-0.9,0.4-1.9,0.9-2.8,1.4
		c-0.3,0.1-0.6,0.2-0.6-0.3c0-0.4-0.2-0.7-0.4-1c-0.4-0.9-0.9-1.7-1.3-2.6c-0.5-1.1-0.5-1-1.7-0.9c-0.4,0-0.9-0.1-1.4-0.1
		c-0.6,0-1.3,0.1-1.9,0.1c-0.5,0-0.7-0.2-0.7-0.7c0-1,0-2.1,0-3.1c0-1.2-0.5-1.8-1.6-2c-0.3-0.1-0.7-0.2-1-0.3
		c-0.5-0.2-0.9-0.4-1.4-0.4c-0.6-0.1-0.7-0.4-0.5-0.9c0.4-1.1,0.8-2.2,1.2-3.3c0.1-0.2,0.1-0.4,0.3-0.5c0.4-0.5,0.3-0.8-0.1-1.2
		c-0.4-0.3-0.7-0.7-1.1-1.1c-0.7-0.7-1.5-1.3-2.2-2.1c-0.1-0.1,0-0.5,0.1-0.7c0.8-0.9,1.7-1.7,2.5-2.5c0.8-0.8,0.9-1.2,0.2-2.2
		c-0.2-0.3-0.3-0.7-0.4-1c-0.2-0.4-0.4-0.8-0.7-1.2c-0.3-0.4-0.4-0.8,0.2-1.1c1-0.5,2.1-1,3.2-1.4c0.2-0.1,0.4-0.2,0.6-0.2
		c0.8-0.2,0.9-0.7,0.9-1.4c-0.1-0.6,0-1.2,0-1.8c0-0.6-0.1-1.3-0.1-1.9c0-0.5,0.1-0.7,0.6-0.7c1.2,0.1,2.5,0.1,3.7,0.1
		c0.7,0,1-0.2,1.2-0.8c0.4-1.2,0.9-2.3,1.4-3.4c0.1-0.1,0.1-0.3,0.2-0.6c0.6,0.3,1.3,0.5,1.9,0.8c0.7,0.3,1.4,0.6,2.1,0.9
		c0.5,0.2,1,0.2,1.4-0.3c0.9-1,1.9-2,2.9-2.9c0.3-0.3,0.6-0.6,1,0.1c0.2,0.3,0.6,0.5,0.9,0.8c0.1,0.1,0.3,0.2,0.4,0.4
		c0.1,0.2,0.2,0.4,0.4,0.6c0.5,0.5,1,0.9,1.6,1.5c0.8-0.4,1.7-0.9,2.7-1.3c0.5-0.2,1.1-0.5,1.6-0.5c0.3,0,0.7,0.5,0.9,0.8
		c0.6,1.3,1,2.6,1.6,3.9c1,0,2.1,0,3.2,0c0.7,0,1.3,0.1,2,0.1c0.1,0,0.4,0.3,0.4,0.5c0,1.3,0,2.5-0.1,3.8c0,0.6,0.1,0.9,0.8,1
		c0.5,0.1,0.9,0.4,1.4,0.6c0.7,0.3,1.4,0.6,2.1,0.8c0.7,0.2,0.5,0.6,0.4,1c-0.4,1-0.9,2-1.4,3c-0.2,0.4-0.3,0.7-0.5,1.2
		c1.3,1.3,2.6,2.6,3.9,4c-1.3,1.2-2.4,2.3-3.6,3.4c0.5,1.1,1,2.1,1.5,3.1c0.2,0.4,0.3,0.9,0.4,1.4c0,0.1-0.2,0.4-0.4,0.5
		c-1.4,0.7-2.7,1.3-4.1,2c-0.1,0.1-0.3,0.2-0.3,0.3c0,1,0,2,0,3C439.6,395.4,439.5,396,439.5,396.8z M424.6,396.7
		c4.4-0.4,8.3-2.1,11.2-5.5c2.8-3.3,4.2-7.3,3.7-11.7c-0.4-4.6-2.6-8.4-6.2-11.2c-3.3-2.5-7.2-3.5-11.3-3.1
		c-3.5,0.3-6.5,1.7-9.1,4.2c-4.7,4.6-6.1,10-4.3,16.3c1.1,3.6,3.3,6.4,6.4,8.5C417.8,396.1,421,397,424.6,396.7z"/>
	<path class="st3" d="M413.6,405.7c1.7-0.7,3.3-1.4,4.9-2.1c0.2-0.1,0.4-0.2,0.6-0.3c0.4-0.3,0.5,0,0.7,0.3c0.3,0.4,0.6,0.7,1,1
		c0.4,0.3,0.8,1,0.6,1.5c-0.6,1.6-1.1,3.2-1.7,4.8c-0.6,1.6-1.1,3.2-1.7,4.8c-0.5,1.5-1,2.9-1.5,4.4c-0.5,1.4-1,2.8-1.5,4.2
		c-0.5,1.5-1.1,3.1-1.6,4.6c-0.3,1-0.6,1.9-0.9,2.9c-0.1,0-0.2,0-0.3,0c-0.2-0.3-0.3-0.6-0.5-0.9c-0.3-0.4-0.6-0.7-0.9-1.1
		c-0.2-0.3-0.2-0.6-0.4-0.9c-0.7-0.9-1.4-1.8-2-2.7c-0.3-0.4-0.5-0.8-0.7-1.2c-0.2-0.4-0.5-0.5-1-0.4c-1.3,0.4-2.6,0.8-3.9,1.1
		c-1,0.3-2,0.5-3,0.8c-0.4,0.1-0.9,0.3-1.4,0.5c0.2-0.6,0.4-1.1,0.5-1.6c0.6-1.8,1.3-3.6,1.9-5.4c0.5-1.5,1-3,1.6-4.6
		c0.5-1.6,1.1-3.1,1.6-4.7c0.5-1.4,1.1-2.8,1.6-4.3c0.5-1.5,1-3,1.5-4.5c0.2-0.5,0.3-1,0.4-1.6c0.2-0.7,0.6-0.8,1.2-0.8
		c0.7,0.1,1.5,0,2.2,0c0.3,0,0.6-0.1,0.5,0.4c0,0.2,0.1,0.4,0.2,0.6c0.5,1,1,2,1.4,3C413.3,404.4,413.4,405,413.6,405.7z"/>
	<path class="st3" d="M448.6,426c-1.1-0.2-2.1-0.5-3.2-0.7c-1.1-0.2-2.2-0.4-3.3-0.6c-0.4-0.1-0.7-0.3-1.1-0.4
		c-1.1-0.3-1.3-0.2-1.9,0.8c-1.2,2.1-2.4,4.2-3.6,6.2c-0.1,0.2-0.3,0.4-0.5,0.6c-0.5-1.2-0.9-2.3-1.4-3.4c-0.4-1-0.9-1.9-1.3-2.9
		c-0.2-0.5-0.4-1-0.6-1.6c-0.5-1.3-1-2.5-1.5-3.8c-0.4-1-1-1.9-1.4-2.9c-0.4-1.1-0.8-2.2-1.2-3.2c-0.4-1-0.9-1.9-1.4-2.9
		c-0.2-0.4-0.2-0.8-0.4-1.2c-0.4-1-0.9-2-1.3-3c-0.1-0.2,0-0.5,0.1-0.7c1-1.1,2.1-2.1,3.1-3.1c0.2-0.2,0.6-0.1,0.9,0
		c0.5,0.1,1,0.3,1.5,0.6c0.4,0.2,0.7,0.4,1,0.5c0.8,0.3,1.5,0.6,2.3,0.9c0.5,0.2,0.6,0.1,0.8-0.4c0.3-1,0.7-2,1.1-2.9
		c0.2-0.6,0.5-1.3,0.9-1.8c0.3-0.3,0.9-0.3,1.4-0.5c3.7,8.8,7.3,17.4,10.9,26.1C448.7,425.9,448.7,426,448.6,426z"/>
	<path class="st4" d="M424.6,396.7c-3.5,0.3-6.8-0.7-9.6-2.6c-3.1-2-5.3-4.8-6.4-8.5c-1.8-6.3-0.4-11.7,4.3-16.3
		c2.6-2.5,5.6-3.9,9.1-4.2c4.1-0.4,8,0.6,11.3,3.1c3.7,2.8,5.8,6.6,6.2,11.2c0.4,4.4-0.9,8.3-3.7,11.7
		C432.8,394.7,429,396.3,424.6,396.7z M420,368.5c-2.5,0.9-4.7,2.3-6.5,4.3c-1.8,2.1-2.8,4.6-3,7.3c-0.2,4.8,1.6,8.8,5.6,11.7
		c2.8,2,6.2,2.7,9.6,2.1c2.3-0.4,4.5-1.2,6.3-2.8c3.9-3.5,5.2-7.9,4.3-12.9c-0.5-3-2.1-5.6-4.5-7.4
		C428.4,368.2,424.4,367.3,420,368.5z"/>
	<path class="st3" d="M420,368.5c4.4-1.2,8.4-0.3,11.9,2.4c2.3,1.8,3.9,4.4,4.5,7.4c0.9,5-0.4,9.4-4.3,12.9c-1.8,1.6-4,2.4-6.3,2.8
		c-3.4,0.6-6.7-0.1-9.6-2.1c-4-2.8-5.8-6.9-5.6-11.7c0.1-2.7,1.2-5.2,3-7.3C415.3,370.7,417.5,369.4,420,368.5z"/>
</g>
</svg>
