<?xml version="1.0" encoding="utf-8"?>
<!-- Generator: Adobe Illustrator 20.1.0, SVG Export Plug-In . SVG Version: 6.00 Build 0)  -->
<svg version="1.1" id="Camada_1" xmlns="http://www.w3.org/2000/svg" xmlns:xlink="http://www.w3.org/1999/xlink" x="0px" y="0px"
	 viewBox="0 0 640 640" style="enable-background:new 0 0 640 640;" xml:space="preserve">
<style type="text/css">
	.st0{fill:#1B1B1B;}
	.st1{fill:#F4C6A4;}
	.st2{fill:#1c7cd6;}
	.st3{fill:#ffe066;}
</style>
<g>
	<path class="st0" d="M338.8,385.3c20-23.9,40.1-47.7,60-71.8c2.7-3.2,3.7-2.4,5.7,0.4c19.9,26.4,32.9,56.2,41,88
		c18.3,71.7,16.5,142.8-7.1,213.2c-1.2,3.6-2.9,5.3-6.8,6.1c-73.8,15.9-147.7,16.2-221.7,1.4c-3.6-0.7-5.3-2.3-6.5-5.8
		c-16.1-45.6-21.8-92.7-19.2-140.9c2.1-40.4,10.1-79.5,26.3-116.8c7.3-16.8,16.5-32.6,27.7-47.2c2.3-3,3.3-3,5.8,0
		c20.3,24.3,40.9,48.4,61.4,72.5c3.4,0.9,5,3.9,7,6.3c2.5,2.9,5.2,5.6,7.4,8.7c1.9,2.7,3.6,2.4,5.6-0.1c3.1-3.9,6.4-7.6,9.6-11.3
		C336.1,386.8,337.2,385.7,338.8,385.3z"/>
	<path class="st0" d="M221.3,145c-16.4-7.4-32.8-14.8-49.1-22.3c-4.2-1.2-8-3.5-11.8-5.6c-14.1-6.3-28.2-12.6-43.4-19.4
		c13.1-5.9,25.2-11.4,37.2-16.8C208.4,56.5,262.6,32,316.8,7.5c2.1-1,3.9-1.4,6.2-0.3C388.8,37,454.5,66.6,520.2,96.3
		c0.7,0.3,1.4,0.7,2.8,1.4c-3,1.4-5.4,2.6-7.7,3.7c-30.2,13.6-60.5,27.3-90.7,40.9c-1.2,0.5-2.2,1.2-3.3,1.8c-2,2.9-5.4,3.4-8.2,4.7
		c-29.6,13.4-59.2,26.6-88.7,40.1c-2.9,1.3-5.4,1.3-8.3,0c-29.4-13.4-58.8-26.6-88.2-39.9C225.5,148.1,223,147.1,221.3,145z"/>
	<path class="st1" d="M221.3,145c24.7,11.1,49.5,22.1,74.2,33.2c6.9,3.1,13.8,6.1,20.6,9.4c2.8,1.4,5.1,1.4,8,0.1
		c30.4-13.8,60.8-27.5,91.2-41.2c1.9-0.8,3.8-1.5,5.8-2.3c4.4,16.2,5.5,32.7,4,49.5c-1.5,17.1-5.4,33.5-12.8,49
		c-15.6,32.5-39.1,56-75.7,63.1c-26.3,5.1-50-2.1-70.9-18.3c-25.2-19.6-39.2-46.2-45.5-77c-4.3-21-4-42,0.8-62.9
		C221.3,146.7,221.3,145.8,221.3,145z"/>
	<path class="st2" d="M338.8,385.3c-4.4,5.3-9,10.4-13.2,15.8c-2.5,3.2-4.1,2.4-6.2-0.3c-4.5-5.6-9.3-10.9-13.9-16.4
		c3.3-7.7,4-16.1,6.1-24.1c1.6-5.9,2.6-11.9,4.1-17.8c0.6-2.5,0.2-4-2.2-5.4c-5.6-3.2-10.9-6.9-16.4-10.1c-2.5-1.5-3.6-3.1-3.4-6.1
		c0.3-3.3,0.1-6.7,0.1-10.6c18.6,9.8,37.1,9.9,55.6,0.8c0.2,0.5,0.3,0.8,0.3,1.1c0.5,11.8,0.5,11.8-9.4,18.2
		c-4,2.6-9.8,4.1-11.5,8.2c-1.7,4.2,1.3,9.3,2.4,13.9C333.6,363.5,335.2,374.6,338.8,385.3z"/>
	<path class="st3" d="M160.4,117.1c4.4,0.8,8.6,2.2,11.8,5.6c0,21.9-0.1,43.7-0.2,65.6c0,2.3,1,4,2,5.8c5.6,9.7,11.2,19.4,17.1,29.6
		c-16.7,0-32.8,0-49,0c-0.7-1.3,0.6-2.2,1.1-3.2c3-5.3,5.7-10.9,9.2-15.8c6.6-9.2,8.6-19,8.2-30.3
		C159.9,155.4,160.4,136.3,160.4,117.1z"/>
</g>
</svg>
