<svg id="Camada_1" xmlns="http://www.w3.org/2000/svg" viewBox="0 0 640 640"><style>.st0{fill:#0e244a}.st1{display:none}.st1,.st2{fill:#f0c841}.st3{fill:#1c7cd6}.st4{fill:#fff}</style><path class="st0" d="M8 441c61.8 0 123.6.1 185.5-.1 4.9 0 6.4.9 6.4 6.2-.3 45.2-.2 90.3 0 135.5 0 4.7-1 6.1-5.9 6.1-60.2-.2-120.3-.1-180.5-.1-1.8 0-3.6.2-5.4.4C8 539.7 8 490.3 8 441zm79 49c-6.6 0-12.1 5.5-12 12.1 0 6.4 5.3 11.8 11.7 11.9 6.6.2 12.2-5.2 12.3-11.8.1-6.6-5.3-12.1-12-12.2zm33 24c6.6 0 12-5.5 12-12.1-.1-6.6-5.6-12-12.2-11.9-6.4.1-11.7 5.5-11.7 11.9-.1 6.6 5.3 12.1 11.9 12.1zM634 589c-1.8-.1-3.6-.4-5.4-.4-60.1 0-120.2-.1-180.4.1-4.8 0-6.1-1.1-6-6 .3-28.6.2-57.3 0-85.9 0-4.5 1.2-5.5 5.6-5.5 60.1.1 120.2.1 180.4.1 2 0 3.9-.3 5.9-.4-.1 32.7-.1 65.3-.1 98zm-129.1-40c6.6.1 12.1-5.4 12.1-12s-5.5-12-12.1-12c-6.4.1-11.7 5.4-11.8 11.8-.2 6.6 5.2 12.1 11.8 12.2zm45.1-12.2c-.1-6.6-5.7-11.9-12.3-11.8-6.4.1-11.6 5.5-11.7 11.9 0 6.6 5.5 12.1 12 12 6.7.1 12.1-5.5 12-12.1zm33 .3c.1-6.6-5.3-12.1-12-12.1-6.4 0-11.8 5.2-12 11.6-.2 6.6 5.2 12.2 11.7 12.4 6.7.1 12.2-5.3 12.3-11.9zM425.3 484c0 33.2-.1 66.3.1 99.5 0 4.1-1 5.2-5.2 5.2-66-.1-132-.1-198 0-4.2 0-5.6-.8-5.6-5.4.2-66 .2-132 0-198 0-4.4 1.1-5.5 5.5-5.5 66 .2 132 .1 198 0 4.1 0 5.3.9 5.3 5.1-.2 33.1-.1 66.1-.1 99.1zm-104.6-45c-2.6 11-9.2 15.6-20 14.8 1.1 1.6 2 2.5 3 3.2 6.7 4.2 7.5 10.2 5.1 17.1-.3.8-1.5 1.7-.4 2.6.9.9 2 .2 2.7-.4 7-6.2 13.7-4.2 20.4.7.3.2.9.1 2.3.3-5-9.9-1.9-17.4 7-23.4-11.3.9-17.3-4.5-20.1-14.9z"/><path class="st1" d="M254.1 252.6c-4.5-4.7-9-7.8-14.2-10.2-7.7-3.5-15-7.8-22.3-12-19.2-11.1-27.3-42.2-19.4-61.4 5.4-12.9 14.4-22.4 27.3-27.7 5.3-2.2 7-5.1 6.7-10.5-.5-8.7-.1-10.1 8.3-8.8 24.9 3.8 133.8 4.1 158.5 0 7.4 0 8.7 1 7.8 8.5-.7 6.1 1.5 8.8 7 11.2 24.5 10.6 35.1 36.9 27 62.3-5.6 17.6-18.4 27-33.6 34.6-7.7 3.8-16 6.6-22.3 14 3.5.1 6.2 1.5 7.9 4.2 1.7 2.7 1.7 5.8 1.1 8.7-1 5.3-8.8 9.7-15.1 8.8-6.6-1-11.5-4.5-14.1-10.5-1.6-3.7-2.5-3.3-4.8-.4-6.3 8.2-13.2 15.9-22.2 21.3-3.3 2-4.7 5-4.7 8.8.1 8.5.2 17-.1 25.5-.1 3.8 1.5 5.1 4.9 5.1h13c8.6 0 13.1 4.4 13.1 12.7 0 8.2-4.5 13-13 13.1-18.5.1-37 .1-55.5 0-4.3 0-8.6.6-12.9-.8-6-1.9-8.6-7-7.6-15.4.6-5.6 4.6-9.4 10.3-9.6 5.2-.2 10.3 0 15.5-.1 3.4 0 4.9-1.3 4.7-5.2-.4-8.5-.2-17-.1-25.5.1-3.9-1.3-6.8-4.6-8.8-9.1-5.4-15.9-13-22.2-21.3-2.5-3.2-3.1-2.6-4.7.6-5.2 10.7-18.2 13.9-26.2 6.5-3.1-2.9-4.4-6.5-3-10.8 1.5-4.3 4.2-6.7 9.5-6.9zm125.8-22.8c10.5-4.9 19.7-9 28.7-13.6 24.9-12.8 20.8-43.3.8-55.7-4.7-2.9-6.3-2.3-7.6 3.1-3.5 14.2-7.2 28.3-12.5 42-2.9 7.6-5.8 15.1-9.4 24.2zm-122.6-.4c.3-.3.6-.7.8-1-.3-.7-.5-1.5-.8-2.2-4.8-11.3-9.3-22.7-12.9-34.4-2.9-9.4-5.6-18.7-7.5-28.3-.6-2.8-1.8-5.9-5.7-3.9-17.6 8.8-24.8 33.4-11.5 48.7 9.9 11.4 25.2 13.6 37.6 21.1z"/><g><path class="st2" d="M312 142.6c5.2 0 10.3-.3 15.5 0 19.7 1.2 38 6.8 54.3 18.2 4.3 3 8.2 6.6 12.1 10.2 4.2 3.9 8.3 7.9 12.1 12.1 3 3.4 5.7 7.1 8.3 10.8 5.3 7.6 10.3 15.4 14.1 23.9 3.5 7.8 5.9 16 7.2 24.4.8 4.8 1.1 9.7.7 14.5-.7 7.4-2.4 14.6-6 21.2-2.1 4-5.1 7.3-8 10.7-2.4 2.7-5.6 3.9-9.1 4.4-2.7.4-5.4.6-8.1.8-.8 0-1.1.4-1.3 1-.6 2-1.2 4.1-1.9 6.1-2.9 7.7-8.7 11.9-16.5 13.8-4.9 1.2-10 1.5-15 1.8-4.2.3-8.3.8-12.5 1.3-.9.1-1.3.5-1.2 1.5.3 2.9 1.7 5.4 3.1 7.9 1.5 2.5 3 5 4.3 7.6 1.3 2.6.8 4.3-1.5 6-2.9 2.1-6.1 3.2-9.7 3.2-1 0-1.7-.3-2.2-1.2-6.3-9.6-14-18.1-22.3-26-1.4-1.3-2.9-2.7-4.5-3.9-.9-.6-2-.9-3.1-1.4-3.9-1.7-6.9-4.4-9-8.1-.6-1.1-1.2-1.4-2.4-1-7.2 2.6-14.7 3.3-22.2 2.8-6-.4-11.7-2.1-17.4-4.1-4.1-1.5-8.1-3-11.4-5.8-4.5-3.8-6.3-8.8-5.8-14.6.3-3 .1-5.9-1.1-8.7-.5-1-.9-2.1-1.1-3.2-.2-.9-.7-1.1-1.5-1.1-1.6.1-3.2.1-4.8 0-6.3-.1-12.4-1.5-18.4-3.5-3.9-1.3-7.7-2.7-10.9-5.4-5.9-5.1-10-11.3-11.6-19-.9-4.3-1.9-8.6-2.5-12.9-.8-5.6-.7-11.3.9-16.8 1.4-4.7 2.6-9.4 4.3-14 1.7-4.8 4.7-8.9 7.8-12.9 1.2-1.6 2.3-3.3 3.6-4.8 3.5-4.2 7.2-8.1 11.6-11.3 5-3.7 10-7.3 15.2-10.7 5.5-3.6 11.8-5.5 18.1-7.3 7-1.9 14-3.9 21.2-4.9 4.3-.6 8.6-1.3 12.9-1.6 5.2-.4 10.5-.5 15.7-.8v.8zm-26.8 134.3c1.5-3.6 4.2-5.8 7.7-7.1 2.9-1.2 3.4-2.4 2.1-5.2-.3-.6-.7-1.2-.9-1.8-.6-1.4-1.3-2.7-1.6-4.2-.8-3.6 0-7 1.1-10.5.5-1.8 1.1-3.6 1.5-5.4.4-1.8-.2-2.7-2-3-.5-.1-.9-.1-1.4-.2-5.4-1.2-10.5-.6-15.2 2.3-2.6 1.6-4.9 3.5-7.2 5.4-3.8 3.3-7.6 6.6-11.2 10.1-2.6 2.5-4.1 5.7-4.2 9.4-.2 6.1 1.6 11.5 6.2 15.8 2.6 2.4 5.4 4.5 8.9 5.7-1 .1-2 .3-2.9.1-1.5-.3-3-1-4.5-1.4-1.6-.5-2.4.3-2 1.9.2.7.5 1.6 1 2.1 2.8 3.3 6.4 5.7 10.4 7 4.6 1.5 9.3 2.6 14.2 2.9 6.4.5 12.6.1 18.8-1.2 7.8-1.6 15.1-4.5 22.3-7.7 1.1-.5 2.1-1 3.3-1.6-.5-.3-.8-.5-1.1-.7-3.6-2.1-6.5-4.9-8.1-8.9-.1-.3-.7-.6-1-.6-.9 0-1.7.1-2.6.3-2.7.5-5.4 1-7.7 2.7-1.4 1-2.2 2.4-2.2 4.1 0 1.1-.1 2.3-.3 3.4-.5 2.6-1.6 5-4.2 6.7.5-.8.8-1.5 1.2-2 1.2-1.7 1.6-3.6 1.5-5.7-.1-2.4-1.4-3.9-3.7-4.4-2.6-.6-4.9.2-7.3 1.1 1.1-.9 2.1-1.9 3.3-2.3 2.2-.8 4.6-1.2 6.9-1.9 2.9-.9 5.7-1.8 8.5-2.9 1.2-.5 2.3-1.5 2.4-3 .1-1.1.1-2.2.3-3.3.3-2.2.8-4.2 2.4-6-.3 1.1-.7 2.1-1 3.2-.5 2.1-.1 4.1 1.4 5.7 2.2 2.1 5 2.4 7.8 2.2 2.8-.2 4.2-1.9 5.1-4.3.2-.5.5-1 .8-1.4.3-.4.8-.8 1.4-1.4-.3.9-.5 1.4-.7 1.9-.8 2.3-.1 4.2 2.2 5.2 1.2.5 2.6.9 3.9.7 2.1-.3 4.2-1 6.3-1.6 1.3-.4 2.6-.9 4-1.1 2.1-.3 3.7 1 5.5 1.9 2.4 1.2 4.7 2.8 7.3 3.5 6.1 1.8 12.3 1.6 18.6 1.1 6.9-.6 12.4-7 11.9-13.9-.2-2.6-.7-5.2-1.2-7.8-.6-3.5-2-3.8-5.1-3.5-4.4.4-8.7.2-12.6-1.9-4.1-2.3-8-2-11.9.2-.2.1-.4.2-.7.3-2.3.8-4.5 1.8-6.8 2.4-1.4.3-3 .1-4.5.1 4.3-1.1 8.3-2.7 12-5.1 3-2 4.6-4.8 4.6-8.4 0-1.7-.6-2.1-2.2-1.6-1 .3-1.9.6-2.9.8-1.4.2-2.8.3-4.3.4 0-.1-.1-.3-.1-.4 3.8-.9 6.7-3.4 9.6-5.7 2.1-1.7 3.8-4.1 5.3-6.3 1.3-1.9 2.2-4.1 3.3-6.2 3.2-6.4 4.9-13.3 5.7-20.4.4-3.2.7-6.4 1-9.6.4-4.6-.3-8.9-2.8-12.9-1.1-1.8-2.6-3.4-5-3.6.9-.1 1.8-.1 2.7.1 2.5.4 4.1 2.1 5.5 4.1 1 1.4 1.9 1.6 3.5 1.2.8-.2 1.5-.3 2.3-.4 1.5-.1 3-.1 4.5-.2 1.7-.1 3.2-1 3.3-2.3.2-1.5 0-3-1.1-4.1-3.2-3.2-6.4-6.5-9.6-9.6-1.4-1.3-3-2.2-5-1.7-2.2.5-3.7 2.6-3.8 5.1v3.2c-1.6-3.3-2.2-6.7-.4-10.1.5-1 1.1-2.2.3-3.3-.9-1.1-2.3-.7-3.3-.3-1.8.8-3.4 2-5.2 3-.9.5-2.1 1.1-3 .9-3.1-.7-5.6-2.5-7.5-5.1 1 .5 2 1 2.9 1.5 3.1 1.8 6.1 1.8 9.2 0 1.5-.9 1.9-2 .4-3.1-1.1-.9-2.5-1.6-3.9-2-5.7-1.6-11.3-1.5-16.6 1.4-.9.5-1.5 1.6-2.1 2.5-.3.5-.1 1.5-.6 1.9-.5.4-1.4.2-2.1.3-.6.1-1.2.2-1.7.3-5.7 1-10.9 3.3-15 7.6-2.1 2.2-1.9 4.4.6 6.1.8.5 1.5 1.1 2.2 1.6 2.2 1.7 1.1 3.4-.5 4.4-.6.4-1.3.7-2.1.9-2 .5-4 1-6 1.3-3.7.6-7.2 1.7-9.5 5-.8 1.2-1.6 2.5-2.3 3.7-3.2 5.6-5.8 11.5-6.1 18.1-.2 3.7.6 7.1 3.6 9.6.6.5.3.9.1 1.4-.7 1.7-1.4 3.5-2 5.2-.4 1-.2 2.1.7 2.8 1 .8 1.9.1 2.7-.5 3.2-2.1 6.4-4.2 9.6-6.2 2.3-1.5 4.9-2.6 7.1-4.3 3.1-2.5 4.4-4.9 2.9-8.9-.4-1-.7-2-.9-3-.8-2.6-.3-4.9 1.6-7.1-.9 3.5-.5 6.7 1.2 9.7 1.8 3.1 4 5.8 7.7 6.4 1.4.2 2.9.4 4.4.4 5 .1 9.4-1.3 12.1-5.9 1.6-2.8 2.6-5.9 3.9-8.8.8-2 1.5-4.1 2.5-6 .9-1.7 2.3-3 4.3-3.9-.3.3-.6.5-.8.7-3.3 3.6-5.1 7.8-4.9 12.8.1 1.9-.4 3.5-1.7 4.8-1.2 1.3-2.5 2.4-3.7 3.6-1.1 1.1-2.2 2.2-3.1 3.4-.7.9-.5 1.7.5 2.4 1.8 1.2 3 2.8 3.7 4.8.4 1.2.7 2.5.1 3.9-.3-.9-.6-1.8-1-2.5-1.8-3.4-4.8-5-8.5-5.3-2.5-.2-5-.3-7.5-.5-3.6-.2-7.3-.3-10.6 1.5-3.4 1.8-6.8 3.8-9.9 6.1-4.2 3-8.2 6.4-12.4 9.5-1.6 1.2-3.6 2.1-5.1 3.4-3.5 3.2-5.2 7.5-5.9 12.1-.5 3.1-.4 6.1 1.1 8.9 1.4 2.7 2.6 3.3 5 .4 1.1-1.2 1.8-2.8 2.7-4.1-.3 2.5-1.6 4.6-3.4 6.4-2.2 2.4-2.4 4.4-.4 6.9 1.1 1.4 2.7 2.5 3.8 3.6-1.6-.3-3.2-1.1-4.3-2.6-1.4-2-3.3-1.9-5.2-1.5-3.4.8-6.3 2.9-8.6 5.9zm-43.1-78.6c-.6 0-.8-.1-1.1 0-2.2.6-3.9-.4-5.3-2-.6-.7-1.3-1.4-2-2.1-1.9-1.8-4-2.1-6.2-.8-2 1.1-4 2.3-5.8 3.8-2.5 2-5.1 3.9-7.1 6.4-2.9 3.6-4.4 8-5.4 12.5-.6 2.7-1 5.5.1 8-.6.4-1.5.7-1.8 1.3-.5 1-.9 2.2-1 3.3-.2 4.7.1 9.3 1.3 13.9.6 2.1 1.7 3.6 3.5 4.6 4.2 2.5 8.9 1 10.7-3.5.3-.8.7-1.6 1-2.4-.2 2.6.4 4.9 2.3 6.6.9.9 1.9 1.8 3.1 2.4 3.1 1.6 6.3 3 9.5 4.4 2.7 1.2 5.5 1.7 8.4 1.8 3.7.1 7-.8 9.6-3.8 1.2-1.4 2.5-2.8 3.9-4.1 2.4-2.2 4.9-4.2 7.2-6.4.5-.5.9-1.2 1.3-1.9-7.6-1.6-12-7.9-13.7-13.1.6.6 1 1.1 1.4 1.6 2.2 2.3 4.5 4.4 7.3 5.9 4 2.2 7.8 1.1 8.7-3.5.2-1 1-1.8 1.5-2.7.8-1.5 1.7-2.9 2.2-4.4 1-3.1.6-6.3.4-9.8.4 1 .8 1.8 1.1 2.6 1.3 3.8 1.8 7.6 0 11.3-.5 1.1-1.2 2.1-1.8 3.2-.9 1.6-.5 3 .4 4.5.5.7.9.8 1.6.3 1.5-1 3.2-1.5 5-1.4 3 .2 5.9.4 8.9.6 3.5.2 6.7-.3 9.1-3.1 1.1-1.2 2.2-2.4 3-3.8 1.9-3.3 3.1-6.7.3-10.1-2.5-3.1-3.1-6.9-2.6-10.7.4-3.6 1-7.2 1.8-10.7 1.7-7.6 6.3-12.6 13.9-14.6 1.6-.4 3.2-.7 4.7-1.1 1.5-.5 2.3-1.6 2.4-3.2.2-3.6-.7-6.6-3.8-8.8 1.1.5 2.2.9 3.3 1.4 3.5-5.2 8.6-7.6 14.4-9.1 2.4-.6 4.7-1.5 6.9-2.6 2.2-1 2.6-3 .9-4.7 0 0 0-.1.1-.2 2.1.6 4.3.8 6.4-.1 1.2-.6 1.6-1.6.6-2.5-1-.9-2.3-1.7-3.6-2.1-3.7-1-7.3-.3-10.8 1-2.4.9-5 1.2-7.7 1 .8-.6 1.5-1 2.2-1.5.9-.8.8-1.8-.1-2.4-1-.6-2.1-1.2-3.3-1.6-5.7-1.8-11.6-1.7-17.5-1.5-1.7.1-3.4.4-5 1-4.2 1.4-5.5 4-4.3 8-1.6-1-2-2.7-2.4-4.3-.2-1-.8-1.6-1.8-1.6-3.4-.3-7.9 2.2-9.1 5.3-.3.8-.7 1-1.5 1-3.8.1-7.5.7-10.7 2.8 2.1-2.1 4.4-3.8 7.5-3.9 2.1-.1 4-.7 5.1-2.7.2-.4.3-1 .1-1.4-.1-.3-.8-.4-1.2-.4-.9 0-1.8.2-2.7.3-3.2.5-6.5.8-9.6 1.5-3.9.9-7.7 2.1-11.6 3.2-2.1.6-3.6 1.9-4.6 3.8-.3.6-.5 1.7-.2 2.3.3.5 1.4.7 2.1.6 2.1-.4 4.1 0 6 .6 2.2.7 4.3 2.5 4.1 5.2 0 .2.1.4.2.6 1.8-1.2 3.4-2.4 5.1-3.6.1.1.1.2.2.3-2.8 2.3-5.1 4.9-6.1 8.5-.6 2.2.1 3.8 1.7 5.3 2.2 2 4.3 4.2 6.4 6.3.8.9 1.7 1.5 2.9 1.7 4 .8 7.1-2.2 6.3-6.2-.7-3-.9-6 .1-9 1.1-3.3 2.3-6.6 1.8-10.2.6 1.2 1 2.5 1.3 3.8.5 2.3-.2 4.5-.8 6.6-.7 2.5-1.2 5-.4 7.6.6 1.8 1.7 2.8 3.5 2.6 1.8-.2 3.7-.4 5.3-1.2 2-.9 3.8-2.4 5.6-3.7-.3.3-.5.7-.8 1.1-2 2.8-4.8 4.5-7.8 5.9-2.8 1.4-5.8 2.5-8.4 4.1-3.7 2.2-3.6 3.3-2.7 6.3.5 1.6.8 3.3.7 4.9-.1 1.8-.8 3.6-1.3 5.3-.5 1.5-.5 2.9.3 4.2.6 1.1 1.2 2.1 1.8 3.2 1.5 2.6 2.6 5.2 2.4 8-.9-1.8-1.8-3.9-2.9-5.8-1.6-2.7-4.5-4.9-8.3-3.9-1.9.5-3.9 1-5.7 1.8-5.2 2.3-10.7 3.4-16.3 4.2-4.3.6-8.1 1.9-10 6.4-1 2.5-3.1 4-5.2 5.4-1.1.7-2.2 1.5-3.1 2.4-3.1 3.2-3 6.9.4 9.7 1.6 1.3 3.4 2.3 5.3 3.1 2.1 1 4.4 1.6 6.5 2.4-1.6 0-3.3.1-5 0-1.8-.2-3.6-.6-5.4-1.1-3.7-1.2-5.8-4.1-7.8-7.1-1.5-2.1-3.4-3.5-6-4.1-2-.4-4-.9-5.9-1.5-2-.6-3.6-1.8-4.5-3.8.9.5 1.7 1 2.6 1.4 3.4 1.4 7 1.6 10.6 1.2 1.7-.2 3.4-.8 4.8-1.6 2.3-1.2 2.2-2.3-.1-3.5-1.7-.9-3.3-2-3.9-4.2.4.4.7.6 1 .9 4.1 3.5 10.9 4 14.3-1.7.6-1 1.3-2 2-2.9 1.2-1.7 2.9-2.8 5-3.1 3-.4 6-.6 9-1.1 3.6-.5 6.9-1.7 9.8-3.9 2-1.5 4.1-2.8 6.1-4.1 1-.6 2-1 3-1.6 4.4-2.5 5.5-6.9 2.7-10.9-1-1.5-1.9-3.1-2.8-4.7-2-3.6-4.3-6.9-8.2-8.7-3.3-1.5-3.3-1.6-2.1-5.1.1-.4.3-.8.4-1.2.3-1.5.8-3.1 1-4.6.2-2.9-1.5-5.1-4.4-5.2-2.4-.1-4.8.2-7.2.7-2.3.4-4.3 1.7-5.6 3.8-.8 1.2-1.1 2.5-.3 3.9.7 1.3 1.9 1.6 3.3 1.6 1 0 2 .3 3 .5-.4.3-.7.4-1 .4-.3 0-.7.1-1 .1-6.3.9-11.3 3.7-13.8 9.8-.8 2-1.4 4.1-.7 6.2.4 1.3 1.2 1.7 2.6 1.3 1.2-.4 2.5-.8 3.8-.9 3.2-.4 6.5-.6 9.3 1.4 2.7 1.9 5.7 2.3 8.9 2.2h1.4c-3 1.5-6.9 1.4-9.8.1-2.5-1.1-5-1.9-7.8-1.6-4.4.5-6.8 1.8-7.5 6.6-.3 1.8-.8 3.5-1.4 5.2-.4 1-1.2 1.8-1.9 2.7-.2-.1-.3-.2-.5-.3.7-2 1.3-4.4 2-7zm152.2 48.8c.5-.6.7-.9 1-1.3 1.6-2.3 3.2-4.5 3.7-7.3.3-1.7-.1-2.2-1.8-2.1-5.2.3-9.2-2-12.6-5.6-1.3-1.3-2.2-2.9-3.4-4.3-1.2-1.4-2.3-1.3-3.3.3-.6 1-1 2-1.5 3-1.3 3-2.8 6-5.1 8.5-2.3 2.6-3.9 5.5-4.2 8.9-.3 2.5-.1 4.2 3 4.9.6.1 1.2.4 1.8.6 5.5 2.2 11 3.8 17.1 3 3.8-.5 7.7-.3 11.1-2.6-.5.6-1.1 1.3-1.7 1.7-1.3.8-2.8 1.4-4.1 2.2-.6.4-1.3 1.1-1.4 1.7-.2 1.3-.2 2.7 0 4 .4 4 1.6 5.8 6.1 6.8 3.6.9 7.1.2 10.5-1.4 2.8-1.3 5-3.3 7-5.6-5.1 8.9-12.6 11.3-22.2 8.4-.1.8-.1 1.6-.4 2.2-.7 1.7-1.4 3.4-2.3 5-1.6 2.6-1.2 7.4 2.5 9 4.5 1.9 9.1 2.9 14 2.7 3.8-.2 7.4-.9 10.6-3.1 2.2-1.5 4.4-3.2 5.4-5.8.2-.6.3-1.5 0-2-1-1.6-2.2-2-4.1-1.5-2.1.6-4.2 1.4-6.3 2.2-.3.1-.5.4-.6.7-1.1 3.3-4 4.3-6.9 5.2.2-.3.5-.5.7-.7 1-1 2.2-1.8 3.1-2.9.9-1.1.5-1.7-.7-2.2-1.1-.5-2.2-1.1-3.3-1.7 0-.1.1-.2.1-.4 4.4 1.7 8.4 1.2 11.9-1.8.2-.2.8-.3 1.1-.1 2 .7 3.9.5 5.9-.2 2.6-1 4.8-4.1 4-7-.9-3.2-2.8-5.4-5.7-7.3 2.3.5 4.2 1.5 5.7 3.1 1.1 1.1 2.4.8 2.7-.8.2-1.3.3-2.6.4-3.9.3-3.5-.4-6.8-2.9-9.4-1.6-1.7-3.6-2.8-5.9-3.4-.8 6.6-1.5 8.6-3.2 9.7 1.7-4.1 2.4-8.2-1.2-11.9.4-.7.8-1.3 1.1-1.9 1-2.1 2-4.2 1.9-6.5 0-3.2-1.5-5.5-4.5-6.9.3-.2.6-.4.8-.6 5.3-3.9 7.7-11.7 3.5-18-2.6-3.9-8.1-4.2-11-.5-1.9 2.4-3.8 4.8-5.8 7.1-1.7 1.9-3.8 2.4-6.3 1.7-2.4-.7-4-2.3-4.4-4.8-.3-1.8-.3-3.6-.6-5.3-.3-2.3-.6-4.6-1.2-6.9-.3-1.1-1.3-2-1.9-2.9h-.1l.6.3c2.4 1.5 3.7 3.7 4 6.5.1 1 .4 1.1 1.3.9 3-.6 5.1-2.9 5.2-6 0-1.5-.2-3.1-.3-4.3.2.5.6 1.3.9 2.1 1.2 3.9.7 7.3-3.3 8.9-.2.1-.3.2-.4.2-2.6 1.6-2.7 5.5-.2 7.2 3 2.1 7.3.6 8.7-2.9.4-1 .5-2 .8-3 .7-2.6 2-4.6 5.1-4.3.7.1 1.4.1 2.1 0 1.8-.2 2.7-1.9 1.6-3.3-1.8-2.4-3.6-4.8-5.6-7.1-2.3-2.7-5-4.9-8.4-6-3.9-1.2-7.8-2.1-11.8-2.9-3.7-.7-6.4.9-6.1 5 .2 2.2.2 4.4-.1 6.5-.7 5-1.6 10-2.3 15-.3 2.4-.5 4.8-.2 7.1.7 6.1 4.1 10.6 9 14 5.9 4.1 15.6 2.2 17.7-6.7.3-1.1.5-2.3.8-3.4h.4c.6 3.1 1.6 6.2 1.8 9.3.5 6.9-.6 13.7-3.7 20-1.3 2.5-2.6 4.4-3.6 5 1.1-3.4 2.5-7.2 3.6-11 1-3.5 1.7-7.1 1.1-10.8-.3-2-1.6-2.8-3.4-1.8-2.1 1.2-4.1 2.7-5.1 5.1-1.4 3.4-3.3 6.1-6.3 8.4zm-167.6-61.7c.3-.1.7-.4 1.2-.5 2.7-.5 5.4-1.1 8.1-1.5 2.1-.3 4.2-.7 5.5-2.5 1.9-2.6 4.5-4.6 7-6.6 1.5-1.2 2.3-2.8 2.3-4.8 0-1.9-.8-3.4-2.1-4.7.8-.1 1.5-.2 2.1-.2 1.8-.1 3.4-.8 4.4-2.3 1.2-1.7 2.2-3.6 3.3-5.4.2-.3.2-.6.3-.9.1-1.1-.4-1.5-1.4-1.2-3.5.8-6.8 2.1-9.7 4.3-2.9 2.2-5.8 4.3-8.9 6.4-4.5 3-9.2 5.7-13.6 8.8-1.4.9-2.3 2.5-3.3 3.8-.3.3-.3 1.3 0 1.6.4.4 1.1.5 1.7.4.7-.1 1.4-.5 2-1 1.3-1 2.5-2.2 3.8-3.3 2.7-2.4 5.8-3.4 9.2-3.1-2 .9-4.1 1.7-6.1 2.7-2.1 1.1-4 2.5-5 4.7-.4 1-1.1 1.2-2 1.5-1.3.4-2.7.9-3.9 1.7-4.9 3.3-8.3 8-11.1 13.1-.4.8-.5 1.9-.5 2.8 0 1.3 1 1.8 2.1 2.2.9.4 1.7.3 2.4-.6.9-1.1 1.9-2.1 2.9-3.1 2.8-2.6 6-4.6 9.8-5.7 3.1-.9 6.1-.8 8.4 1.9.4.5 1 .8 1.5 1.2 1 .7 2 .7 3 0 1.8-1.2 2.4-3.2 1.4-5.2-1.6-3.2-4.3-4.7-7.8-4.8-2.4-.1-4.7.2-7 .3zm104.6 128.4c2.3 2.6 4.3 5.2 6.6 7.5 4.1 4.4 8.3 8.6 11.6 13.6 1.1 1.7 2.6 3.2 4.1 4.6 1.7 1.5 3.5 1.4 5.3.1.8-.6 1.5-1.3 2.2-2 .7-.6.9-1.4.5-2.3-.7-1.4-1.5-2.7-2.3-4-2-3.1-4.6-6-6-9.3-1.2-2.7-2.5-3.4-5.2-3.2-3.4.2-6.5-1-8.8-3.5-1.3-1.4-2.4-2.1-4.4-1.7-1.2.2-2.3.1-3.6.2zm-2.2-34.9c0 .1 0 .1-.1.2h-.6c-2.6.1-3.7 1.6-2.8 4.1.8 2.3 2.5 3.8 4.4 5.2 1.1.8 2.2 1 3.6.7 2.1-.4 4.3-.5 6.5-.6 2.6-.1 5.2 0 7.7-.3 2.9-.3 5.7-.8 8.3-2.3 2.1-1.2 2-3.1 0-4.4-1.3-.8-2.4-1.9-3.7-2.7-.8-.5-1.7-1.1-2.6-1-1.3.1-2.7.5-3.9 1.2-3.9 2.5-7.8 2.8-12.1 1.2-1.5-.6-3.1-.9-4.7-1.3zm91.8-35.3c1.1.4 2.1.7 3 1.1 1 .4 1.9.8 2.9 1.2 3 1.2 4.2.4 4-3.1v-.3c-.7-3.5-1.3-7-2-10.4-.4-1.9-.9-3.8-1.7-5.6-.7-1.6-2-1.8-3.3-.7-1.1 1-2.2 2.1-3.3 3.1 4 4.9 3.4 9.7.4 14.7zm-59.5 50.9c.2 0 .5.1.7.1 3.2.2 6.4.2 9.5.5 5.6.5 11.1 1.7 16.4 3.9 2.8 1.2 5.4 2.8 8.2 4.3.5-.8 1.3-1.9 2.1-3-.7-.6-1.2-1.2-1.9-1.6-2.5-1.3-5-2.7-7.7-3.6-7.9-2.7-16.2-3.2-24.5-3.5-2 0-2.6.6-2.8 2.9zm19.5 16.7c.1-.1.1-.2.2-.4-.4-.2-.7-.4-1.1-.6-2.3-1.1-4.7-2.1-6.9-3.3-4.1-2.3-7.8-4.9-10.4-8.9-.6-1-2.7-1.2-3.6-.4-1.1 1.1-2.1 2.3-3.3 3.6 7.7 5.1 15.6 9.7 25.1 10zm-15.4-14.3l-.3.6c1.4 1.4 2.8 2.8 4.3 4 4.8 3.8 10.4 6.2 16.1 8.1 1.5.5 2.6.1 3.8-.9l-.3-.3c-.7-.3-1.4-.6-2-.9-4.1-1.8-7.8-4.2-10.6-7.6-1.3-1.6-2.6-2.6-4.7-2.7-2.2.1-4.3-.1-6.3-.3zm-134.3-41.1c-2.6-2.2-4.9-4.3-7.9-5.1-1.5-.4-3.1-.3-4.7-.4-2.5-.1-5 0-7.6 0 .4.6.9 1.4 1.5 2.1 1.5 1.8 2.9 3.6 5.4 4.1 4.4.9 8.7.2 13.3-.7zm168.1 42.1c.3-1.4.7-2.6.8-3.8 0-.3-.3-.8-.5-.9-4.2-1.5-8.3-3.3-12.7-4.2-5.2-1.1-10.4-2.1-15.7-.8-1.1.3-2.2.5-3.4.8 5.6.8 11 1.5 16.3 2.4 5.4 1 10.6 2.9 15.2 6.5zM377 313.4v-.4c-1.2-.3-2.4-.5-3.6-.8-6.6-1.6-12.6-4.7-18.3-8.3-1.8-1.1-1.8-1.1-3.4.4 1.5 1.5 2.8 3 4.4 4.4 2.7 2.4 5.7 4.6 9.3 5.1 3 .4 6.2 0 9.3-.1.8-.1 1.6-.2 2.3-.3zm-136.7-49.9c2.2-.4 4.3-.8 6.5-1.3.8-.2 1.8-.6 1.7-1.7-.1-1.1-1.2-1.2-2-1.4-.5-.1-1-.1-1.5-.1-1.4 0-2.9.1-4.3 0-2.5-.1-5.1-.4-7.2-1.8-1.4-.9-2.4-.7-3.6.2-.3.2-.6.4-.8.6-1.4 1.1-1.3 2.4.4 3 3.4 1.2 7 2.2 10.8 2.5zm-35.8-34.2h.5c.1-.4.1-.9.2-1.3.6-3.8 1-7.7 1.8-11.5.7-3.5 1.9-6.9 2.8-10.4.2-.8.1-1.8-.2-2.7-.1-.4-.8-.8-1.3-.8-.4 0-.9.5-1.1.8-2.7 6.2-4.5 12.5-3.7 19.3.2 2.3.6 4.5 1 6.6zM357.8 291c-.1-.1-.2-.2-.3-.4-1.3.1-2.7.3-4 .2-1.2-.1-1.7.4-2.1 1.5-1.2 3.5-3.2 6.6-6.1 9-1.3 1.1-2.8 2-4.3 3.1-.4.3-.8.7-1.2 1.1.5 0 1 0 1.6-.1.3 0 .6-.2.9-.3 5.4-2.3 10.1-5.6 13.5-10.6.9-1 1.4-2.3 2-3.5zm-23.7 18.1c-.2-.4-.4-.7-.6-1-2.3-3.3-4.6-6.7-6.9-10-.2-.2-.5-.5-.8-.4-1.8.5-3.6 1.1-5.4 1.6 1 4.2 8.4 8.8 13.7 9.8zm-.5-6.2c.5 1.6.7 1.7 2.1 1.2 4.1-1.4 7.6-3.6 10.3-7.1 1.3-1.7 2.4-3.5 3-5.5-2.7-.4-4.5.3-5.9 2.7-2.1 3.9-4.8 7.5-9.5 8.7zm60.2 2.8c-4.4-4.2-9.8-5.8-15.6-7.2.1 1.3.8 2 1.5 2.6 3 2.6 6.4 4.5 10.1 5.9 1.9.7 2.6.5 4-1.3zm-63.3 5.1c-.9-.4-1.4-.7-2-.9-4.3-2-8.2-4.6-10.4-9-.1-.3-.7-.6-1-.5-1.2.3-2.4.7-3.5 1.1 1.3 5 10.8 10.4 16.9 9.3zm14.5-2.9c-2.2.7-4.3 1.3-6.3 1.9 1.2 4.3 8.6 7.6 12.8 5.7-2.9-1.9-5.1-4.4-6.5-7.6zm-3.6-15.6c-3.5.6-6.7 1.4-9.2 3.7-.3.3-.5.7-.6 1.1-.4.9.2 3.5 1 3.8.7.2 1.8-.1 2.6-.5 3-1.8 4.6-4.8 6.2-8.1zm19 22.4c-4.1-2.4-7.5-5.2-10.5-8.6-.8-.9-1.5 0-2.1.3-.2.1-.3.9-.1 1.2 2 3.8 5.2 6.3 9.3 7.5 1 .4 2.2.5 3.4-.4z"/><path class="st2" d="M346.3 245.3c-6.3.8-12.2 1.5-17.9 3.6-1 .4-1.9.8-2.8 1.4-2.2 1.5-2.2 3.7.1 5 2 1.2 4.3 2 6.5 2.9 2 .9 4 1.7 5.9 2.7.7.4 1.2 1.4 1.7 2.1-2.2-.9-4.4-1.9-6.7-2.8-1.2-.4-2.5-.7-3.8-.8-2-.3-3.6.9-4.2 3.2-.6 2.5-1.2 5-1.8 7.7 0-2.8-.1-5.5 0-8.1.1-3.9-.7-7.3-3.3-10.4-3.4-4.2-7.8-6.5-12.5-8.8 1.6.3 3.2.7 4.7 1.1 1.6.4 3.2.9 4.8 1.4 1.5.4 3 1 4.5 1.4 2.6.7 5-.1 7.5-.8 3.8-1 7.7-1.2 11.6-1 1.9-.1 3.6.1 5.7.2zM290.9 292.6c-1.9-.2-3.7-.3-5.6-.5-2.1-.3-3.4.3-4.5 2.1-.7 1.1-1.3 2.2-2.1 3.2 1.4-3.2.7-6.3-.7-9.2-1.6-3.3-3.3-6.5-5-9.8-.3-.6-.6-1.3-.6-1.9-.2-3.4-2.5-5-5.2-6.1-1.6-.6-3.6-.5-4.9-.7 1.8-.8 4.1-1.2 6.6-.6.3.1.6.1.8.3 3.3 1.2 3.5.1 4.2-2.6.6-2.1 1-4.2 1.6-6.3.5-1.7 1.5-3 3.1-3.9 2.3-1.3 4.4-2.9 5.9-5.2.5-.8.8-1.7 1.3-2.5.4 2-.5 3.7-1.8 5.1-1.1 1.2-2.2 2.3-3.4 3.4-2 1.8-3.3 4.1-3.7 6.8-.5 3.3-1.2 6.7-1.3 10-.3 5.9 1.4 11.1 6.3 14.9 2.7 2.1 5.9 2.8 9.2 3.2-.1 0-.1.1-.2.3zM341.5 172.6c2.3 0 4.3.5 6 1.8 1.7 1.2 3.4 1.5 5.4.8 2.7-.9 5.4-1.2 8.3-.9 2.1.2 4.3-.3 6.5-.2-1.7.5-3.4 1-5.2 1.3-1.5.3-3.1.3-4.6.3-2.5 0-4.4 1-5.8 3-1.2 1.8-2.5 3.7-3.8 5.4-1.4 1.7-2.8 3.4-4.5 4.9-3.1 2.7-6.1 9.6-4 14.3.1.2.1.4.2.7-1.6-.6-2.5-2.2-2.6-4.4-.1-1.9-.1-3.8-.3-5.6-.1-1.1-.8-1.6-1.8-2-4-1.4-7.7-.2-11.3 1.2-1.1.4-2.1.9-3.2 1.4 1.5-2 5.2-4.1 8.4-4.8 2.4-.5 4.8-.5 7.2.1 2.2.6 3.9.1 5.6-1.3 2.9-2.4 4.9-5.5 5.9-9.1.6-2 0-3.4-1.7-4.7-.7-.5-1.4-.9-2.1-1.3-.8-.4-1.7-.6-2.6-.9zM354.7 268.6c3.1 1.2 6.1.8 9.1-.3 2.4-.9 4.8-1.6 7.3-2.2 1.2-.3 2.4 0 3.7 0v.4c-1 .2-1.9.3-2.9.6-2.8.8-3.2 2.7-1.2 4.7.2.2.5.4.7.8-.4-.2-.9-.4-1.3-.6-2.4-1.6-4.9-1.9-7.7-1.3-2.8.5-5.3-.5-7.7-2.1zM308.4 160.8c-1.4-4.4-.5-8.2 3-11.2-1.1 1.8-2.3 3.7-1.9 6 .2 1.2.7 2.5 1.4 3.5 1.5 1.8 3.9 1.5 5.4-.3 1.3-1.5 2.5-3.1 4.1-4.3 1.1-.9 2.7-1.1 4.2-1.5-4.9 2.4-10.1 9.1-10.5 14-3.9-4.8-8.8-5.2-14.2-3.6 1.1-1.4 1.9-1.6 8.5-2.6zM227.1 207.8c-2-2.1-1.6-4.6-1.3-7.1 1.5 3.8 4.2 6.4 8.1 8.3-6.7 1-12 4-16.6 8.7.8-2.5 2.2-4.3 4.1-5.8 1.7-1.5 3.7-2.7 5.7-4.1z"/></g><g><path class="st3" d="M439.5 396.8h-3.4c-.4 0-.9.1-1.3.1-.1 0-.3.1-.3.2-.6 1.4-1.2 2.7-1.8 4.1 0 .1.1.2.1.5-.9-.4-1.7-.8-2.5-1.1-.8-.3-1.6-.7-2.4-.9-.2-.1-.5.1-.7.2-1.2 1.1-2.3 2.3-3.6 3.6-.3-.4-.6-.7-1-1.1-.3-.3-.7-.5-1-.8-.2-.2-.3-.5-.5-.7-.6-.9-1.5-1.1-2.6-.5-.9.4-1.9.9-2.8 1.4-.3.1-.6.2-.6-.3 0-.4-.2-.7-.4-1-.4-.9-.9-1.7-1.3-2.6-.5-1.1-.5-1-1.7-.9-.4 0-.9-.1-1.4-.1-.6 0-1.3.1-1.9.1-.5 0-.7-.2-.7-.7v-3.1c0-1.2-.5-1.8-1.6-2-.3-.1-.7-.2-1-.3-.5-.2-.9-.4-1.4-.4-.6-.1-.7-.4-.5-.9l1.2-3.3c.1-.2.1-.4.3-.5.4-.5.3-.8-.1-1.2-.4-.3-.7-.7-1.1-1.1-.7-.7-1.5-1.3-2.2-2.1-.1-.1 0-.5.1-.7.8-.9 1.7-1.7 2.5-2.5s.9-1.2.2-2.2c-.2-.3-.3-.7-.4-1-.2-.4-.4-.8-.7-1.2-.3-.4-.4-.8.2-1.1 1-.5 2.1-1 3.2-1.4.2-.1.4-.2.6-.2.8-.2.9-.7.9-1.4-.1-.6 0-1.2 0-1.8 0-.6-.1-1.3-.1-1.9 0-.5.1-.7.6-.7 1.2.1 2.5.1 3.7.1.7 0 1-.2 1.2-.8.4-1.2.9-2.3 1.4-3.4.1-.1.1-.3.2-.6.6.3 1.3.5 1.9.8l2.1.9c.5.2 1 .2 1.4-.3.9-1 1.9-2 2.9-2.9.3-.3.6-.6 1 .1.2.3.6.5.9.8.1.1.3.2.4.4.1.2.2.4.4.6.5.5 1 .9 1.6 1.5.8-.4 1.7-.9 2.7-1.3.5-.2 1.1-.5 1.6-.5.3 0 .7.5.9.8.6 1.3 1 2.6 1.6 3.9h3.2c.7 0 1.3.1 2 .1.1 0 .4.3.4.5 0 1.3 0 2.5-.1 3.8 0 .6.1.9.8 1 .5.1.9.4 1.4.6.7.3 1.4.6 2.1.8.7.2.5.6.4 1-.4 1-.9 2-1.4 3-.2.4-.3.7-.5 1.2 1.3 1.3 2.6 2.6 3.9 4-1.3 1.2-2.4 2.3-3.6 3.4.5 1.1 1 2.1 1.5 3.1.2.4.3.9.4 1.4 0 .1-.2.4-.4.5-1.4.7-2.7 1.3-4.1 2-.1.1-.3.2-.3.3v3c-.4.3-.5.9-.5 1.7zm-14.9-.1c4.4-.4 8.3-2.1 11.2-5.5 2.8-3.3 4.2-7.3 3.7-11.7-.4-4.6-2.6-8.4-6.2-11.2-3.3-2.5-7.2-3.5-11.3-3.1-3.5.3-6.5 1.7-9.1 4.2-4.7 4.6-6.1 10-4.3 16.3 1.1 3.6 3.3 6.4 6.4 8.5 2.8 1.9 6 2.8 9.6 2.5z"/><path class="st3" d="M413.6 405.7c1.7-.7 3.3-1.4 4.9-2.1l.6-.3c.4-.3.5 0 .7.3.3.4.6.7 1 1 .4.3.8 1 .6 1.5-.6 1.6-1.1 3.2-1.7 4.8-.6 1.6-1.1 3.2-1.7 4.8-.5 1.5-1 2.9-1.5 4.4l-1.5 4.2c-.5 1.5-1.1 3.1-1.6 4.6-.3 1-.6 1.9-.9 2.9h-.3c-.2-.3-.3-.6-.5-.9-.3-.4-.6-.7-.9-1.1-.2-.3-.2-.6-.4-.9-.7-.9-1.4-1.8-2-2.7-.3-.4-.5-.8-.7-1.2-.2-.4-.5-.5-1-.4-1.3.4-2.6.8-3.9 1.1-1 .3-2 .5-3 .8-.4.1-.9.3-1.4.5.2-.6.4-1.1.5-1.6.6-1.8 1.3-3.6 1.9-5.4.5-1.5 1-3 1.6-4.6.5-1.6 1.1-3.1 1.6-4.7.5-1.4 1.1-2.8 1.6-4.3l1.5-4.5c.2-.5.3-1 .4-1.6.2-.7.6-.8 1.2-.8.7.1 1.5 0 2.2 0 .3 0 .6-.1.5.4 0 .2.1.4.2.6.5 1 1 2 1.4 3 .3.9.4 1.5.6 2.2zM448.6 426c-1.1-.2-2.1-.5-3.2-.7l-3.3-.6c-.4-.1-.7-.3-1.1-.4-1.1-.3-1.3-.2-1.9.8-1.2 2.1-2.4 4.2-3.6 6.2-.1.2-.3.4-.5.6-.5-1.2-.9-2.3-1.4-3.4-.4-1-.9-1.9-1.3-2.9-.2-.5-.4-1-.6-1.6-.5-1.3-1-2.5-1.5-3.8-.4-1-1-1.9-1.4-2.9-.4-1.1-.8-2.2-1.2-3.2-.4-1-.9-1.9-1.4-2.9-.2-.4-.2-.8-.4-1.2-.4-1-.9-2-1.3-3-.1-.2 0-.5.1-.7 1-1.1 2.1-2.1 3.1-3.1.2-.2.6-.1.9 0 .5.1 1 .3 1.5.6.4.2.7.4 1 .5.8.3 1.5.6 2.3.9.5.2.6.1.8-.4.3-1 .7-2 1.1-2.9.2-.6.5-1.3.9-1.8.3-.3.9-.3 1.4-.5 3.7 8.8 7.3 17.4 10.9 26.1.2.2.2.3.1.3z"/><path class="st4" d="M424.6 396.7c-3.5.3-6.8-.7-9.6-2.6-3.1-2-5.3-4.8-6.4-8.5-1.8-6.3-.4-11.7 4.3-16.3 2.6-2.5 5.6-3.9 9.1-4.2 4.1-.4 8 .6 11.3 3.1 3.7 2.8 5.8 6.6 6.2 11.2.4 4.4-.9 8.3-3.7 11.7-3 3.6-6.8 5.2-11.2 5.6zm-4.6-28.2c-2.5.9-4.7 2.3-6.5 4.3-1.8 2.1-2.8 4.6-3 7.3-.2 4.8 1.6 8.8 5.6 11.7 2.8 2 6.2 2.7 9.6 2.1 2.3-.4 4.5-1.2 6.3-2.8 3.9-3.5 5.2-7.9 4.3-12.9-.5-3-2.1-5.6-4.5-7.4-3.4-2.6-7.4-3.5-11.8-2.3z"/><path class="st3" d="M420 368.5c4.4-1.2 8.4-.3 11.9 2.4 2.3 1.8 3.9 4.4 4.5 7.4.9 5-.4 9.4-4.3 12.9-1.8 1.6-4 2.4-6.3 2.8-3.4.6-6.7-.1-9.6-2.1-4-2.8-5.8-6.9-5.6-11.7.1-2.7 1.2-5.2 3-7.3 1.7-2.2 3.9-3.5 6.4-4.4z"/></g></svg>