<svg id="Camada_1" xmlns="http://www.w3.org/2000/svg" viewBox="0 0 640 640"><style>.st0{fill:#1b1b1b}.st1{fill:#f4c6a4}.st2{fill:#1c7cd6}.st3{fill:#ffe066}</style><path class="st0" d="M338.8 385.3c20-23.9 40.1-47.7 60-71.8 2.7-3.2 3.7-2.4 5.7.4 19.9 26.4 32.9 56.2 41 88 18.3 71.7 16.5 142.8-7.1 213.2-1.2 3.6-2.9 5.3-6.8 6.1-73.8 15.9-147.7 16.2-221.7 1.4-3.6-.7-5.3-2.3-6.5-5.8-16.1-45.6-21.8-92.7-19.2-140.9 2.1-40.4 10.1-79.5 26.3-116.8 7.3-16.8 16.5-32.6 27.7-47.2 2.3-3 3.3-3 5.8 0 20.3 24.3 40.9 48.4 61.4 72.5 3.4.9 5 3.9 7 6.3 2.5 2.9 5.2 5.6 7.4 8.7 1.9 2.7 3.6 2.4 5.6-.1 3.1-3.9 6.4-7.6 9.6-11.3 1.1-1.2 2.2-2.3 3.8-2.7zM221.3 145c-16.4-7.4-32.8-14.8-49.1-22.3-4.2-1.2-8-3.5-11.8-5.6-14.1-6.3-28.2-12.6-43.4-19.4 13.1-5.9 25.2-11.4 37.2-16.8C208.4 56.5 262.6 32 316.8 7.5c2.1-1 3.9-1.4 6.2-.3C388.8 37 454.5 66.6 520.2 96.3c.7.3 1.4.7 2.8 1.4-3 1.4-5.4 2.6-7.7 3.7-30.2 13.6-60.5 27.3-90.7 40.9-1.2.5-2.2 1.2-3.3 1.8-2 2.9-5.4 3.4-8.2 4.7-29.6 13.4-59.2 26.6-88.7 40.1-2.9 1.3-5.4 1.3-8.3 0-29.4-13.4-58.8-26.6-88.2-39.9-2.4-.9-4.9-1.9-6.6-4z"/><path class="st1" d="M221.3 145c24.7 11.1 49.5 22.1 74.2 33.2 6.9 3.1 13.8 6.1 20.6 9.4 2.8 1.4 5.1 1.4 8 .1 30.4-13.8 60.8-27.5 91.2-41.2 1.9-.8 3.8-1.5 5.8-2.3 4.4 16.2 5.5 32.7 4 49.5-1.5 17.1-5.4 33.5-12.8 49-15.6 32.5-39.1 56-75.7 63.1-26.3 5.1-50-2.1-70.9-18.3-25.2-19.6-39.2-46.2-45.5-77-4.3-21-4-42 .8-62.9.3-.9.3-1.8.3-2.6z"/><path class="st2" d="M338.8 385.3c-4.4 5.3-9 10.4-13.2 15.8-2.5 3.2-4.1 2.4-6.2-.3-4.5-5.6-9.3-10.9-13.9-16.4 3.3-7.7 4-16.1 6.1-24.1 1.6-5.9 2.6-11.9 4.1-17.8.6-2.5.2-4-2.2-5.4-5.6-3.2-10.9-6.9-16.4-10.1-2.5-1.5-3.6-3.1-3.4-6.1.3-3.3.1-6.7.1-10.6 18.6 9.8 37.1 9.9 55.6.8.2.5.3.8.3 1.1.5 11.8.5 11.8-9.4 18.2-4 2.6-9.8 4.1-11.5 8.2-1.7 4.2 1.3 9.3 2.4 13.9 2.4 11 4 22.1 7.6 32.8z"/><path class="st3" d="M160.4 117.1c4.4.8 8.6 2.2 11.8 5.6 0 21.9-.1 43.7-.2 65.6 0 2.3 1 4 2 5.8 5.6 9.7 11.2 19.4 17.1 29.6h-49c-.7-1.3.6-2.2 1.1-3.2 3-5.3 5.7-10.9 9.2-15.8 6.6-9.2 8.6-19 8.2-30.3-.7-19-.2-38.1-.2-57.3z"/></svg>