<svg id="Camada_1" xmlns="http://www.w3.org/2000/svg" viewBox="0 0 640 640"><style>.st0{fill:#2b2d30}.st1{fill:#f3c5a4}.st2{fill:#252527}.st3{fill:#1c7cd6}.st4{fill:#fefefe}.st5{fill:#383738}</style><path class="st0" d="M322.3 460.1c24-48.4 47.6-95.9 71.3-143.5 2.9-5.9 5.8-11.7 8.7-17.5 2.4-4.7 2.4-4.7 5.7-.3 16.6 21.9 28.3 46.3 36.8 72.3 15.1 45.8 20.3 92.9 17.6 141-1.9 34.4-8 67.9-19.3 100.5-1.4 3.9-3.2 5.8-7.4 6.7-77.1 16.6-154.3 16.8-231.6 1.3-3.5-.7-5.3-2.2-6.5-5.7-16.9-47.8-22.8-97.2-20.2-147.6 2.2-42.2 10.6-83.1 27.6-122 7.5-17.3 16.9-33.6 28.4-48.5 3.7-4.8 3.9-4.8 6.7.7l40.5 80.4c13 25.7 25.9 51.5 38.9 77.2.8 1.3 1.6 2.7 2.8 5zm79.4-56.3h17.6c2.2 0 4.3-.2 4.3-2.9 0-2.7-2.1-3-4.3-3H384c-2.2 0-4.3.2-4.3 3 0 2.7 2.1 3 4.3 2.9h17.7z"/><path class="st1" d="M427.8 131.6c.7 12.6 2.9 25.2 2.1 37.9-2.7 39.5-16.1 74.2-46.5 100.7-19.8 17.2-43.1 25.7-69.5 23.6-21.2-1.6-39.9-10.1-55.8-24.1-25.2-22.2-38.9-50.6-44.1-83.6-2.7-16.7-2.4-33.3.1-50 5.8-2.9 3.7-8.8 5.1-13.4.6-1.9.2-4.2 2.5-5.1 6.1-2.3 9.3-7.6 12.2-12.8 4.5-7.9 9.4-15.4 15.2-22.4 1.3-1.6 2.4-2.1 4.7-1.5 9.8 2.5 19.9 3.1 30 2.1 21.6-2.1 42.8-6.6 63-14.7 11.8-4.7 23.3-3 34.4 1.1 8.6 3.1 15.4 9.2 18.3 18.6 1.9 6.3 5.3 11.8 8.8 17.4 5.7 9.1 17.7 13.4 19.5 25.5-.1.4-.1.5 0 .7zm-204.6 3.9c-.6 3.6-.3 7.7 4.8 9.8 2.2.9 2.8 3 3.1 5.3.7 5.5 1.6 11 2.3 16.4 1.6 13 8.4 21.6 21.3 24.9 2.6.7 5.2 1.2 7.9 1.5 22.3 3.4 38.9-7.5 44.9-29.3 1-3.7 2.1-7.4 4.1-10.7 2.3-3.7 5.7-5.2 9.8-4.9 4.3.3 7.7 2.3 9.1 6.7 1.3 4.3 2.5 8.7 3.9 13 3.6 11 9.9 19.7 21.3 23.7 8.4 2.9 16.9 2 25.4.4 13.3-2.7 22.4-10.1 25.2-24 1.5-7 2.9-14.1 4.5-21.1.4-1.9 1-3.9 3.2-4.8 5.5-2.2 7.7-6.8 5.6-13.3-1.4-4.3-5.3-5.7-9.7-5.4-3 .2-5.9.4-9 0-17.3-1.9-34.6-2.1-51.5 2.7-17 4.8-33.6 6-50.9 1.2-14.9-4.2-30.3-5.7-45.9-4.2-5.7.6-11.4 1.6-17 1-9.3-.8-12.4 1.2-12.4 11.1z"/><path class="st2" d="M427.8 131.6c0-.2-.1-.3-.1-.5-1.7-12.1-13.8-16.4-19.5-25.5-3.5-5.6-6.9-11.1-8.8-17.4-2.9-9.4-9.7-15.5-18.3-18.6-11.1-4-22.6-5.8-34.4-1.1-20.2 8.1-41.4 12.6-63 14.7-10.1 1-20.1.4-30-2.1-2.2-.6-3.3-.1-4.7 1.5-5.8 7-10.7 14.5-15.2 22.4-2.9 5.2-6.1 10.5-12.2 12.8-2.3.9-1.9 3.2-2.5 5.1-1.4 4.5.7 10.5-5.1 13.4-4.2-7.9-4.3-16.7-6-25.2-1.8-9.1-1.6-18.5-.8-27.6 1.3-14.9 5.4-29.2 15.5-40.9 6.3-7.3 14.7-11.5 24.1-13.4 6-1.2 10.8-4.7 16.2-7 12.1-5.1 24.7-7.9 37.4-10.5 27-5.4 54.3-3.2 81.4-2.7 15.8.3 31.5 4.4 46.2 11.1 2.7 1.2 5 3.2 7.7 4.5 5.4 2.7 4.2 8 2.1 11.6-5.1 8.6-4.5 18.1-5 27.2-1.1 20.7-.5 41.6-3.4 62.2.1 2.1 1.2 4.8-1.6 6z"/><path class="st3" d="M323.4 453.6c-7.1-17.5-15.1-33-22.5-48.7-1.6-3.4-1.9-6.4-.9-10 5.6-22.2 10.9-44.5 16.5-66.8.7-3 .3-4.4-2.4-6-6.1-3.5-12-7.4-18-11.1-2-1.2-3.4-9.8-2-11.4.8-.9 1.9-.5 2.8-.5 3.9-.1 7.6.1 11.5 1.1 10.3 2.7 20.6 2.5 30.9-.1 1.9-.5 4-1.2 5.9-.9 2.4.3 6.2-2 6.8 1.5.6 3.7 2 8.2-3.4 10.8-5.2 2.6-9.9 6.4-15 9.2-3.4 1.9-4.1 4-3.2 7.7 3.9 15.9 7.5 31.9 11.2 47.9 1.5 6.7 2.9 13.4 4.5 20.1.6 2.5-.1 4.6-1.2 6.8-5.3 11-10.4 22.1-15.8 33.1-2.5 5.1-4.5 10.4-5.7 17.3z"/><path class="st4" d="M360.2 361.4c1 0 2 .1 2 1.4 0 1.2-1 1.4-2 1.4M344 364.1c-1 0-2-.1-2-1.4 0-1.2 1-1.4 2-1.4"/><path class="st5" d="M223.2 135.5c0-9.9 3.1-11.9 12.5-10.9 5.6.6 11.4-.4 17-1 15.6-1.5 31 0 45.9 4.2 17.3 4.9 33.9 3.6 50.9-1.2 16.8-4.7 34.2-4.6 51.5-2.7 3 .3 6 .2 9 0 4.4-.3 8.3 1.1 9.7 5.4 2.1 6.5-.1 11.1-5.6 13.3-2.2.9-2.8 2.8-3.2 4.8-1.6 7-3.1 14.1-4.5 21.1-2.9 13.8-11.9 21.3-25.2 24-8.4 1.7-16.9 2.6-25.4-.4-11.5-4-17.7-12.7-21.3-23.7-1.4-4.3-2.6-8.7-3.9-13-1.4-4.4-4.8-6.4-9.1-6.7-4.1-.3-7.5 1.2-9.8 4.9-2.1 3.4-3.1 7-4.1 10.7-6 21.8-22.6 32.6-44.9 29.3-2.6-.4-5.3-.9-7.9-1.5-12.9-3.3-19.7-11.9-21.3-24.9-.7-5.5-1.6-11-2.3-16.4-.3-2.3-.9-4.4-3.1-5.3-5.2-2.3-5.5-6.4-4.9-10zm14.1 16.4c0 1.3-.1 2.7 0 4 1.3 12.9 3.3 25.4 17.8 30.3 11.7 3.9 23.7 5.2 33.8-3.5 9.3-8 14.5-18.8 16.2-31 1.5-10.1-2-15.4-11.7-18.9-11.7-4.3-23.9-4.6-36.2-3.7-14.2 1.2-19.6 2.2-19.9 22.8zm139.3-23.4c-12.7 0-22.8 1.8-30.3 5.1-7.2 3.2-10.9 8.4-10.7 16.5.1 5.5 1.6 10.6 3.5 15.6 6.8 18 17.6 25 35.9 22.4 10.5-1.5 19.9-5.4 24.2-16.3 3.7-9.1 5.3-18.7 4.6-28.5-.7-9.3-4.3-12.8-13.4-13.9-4.9-.5-9.7-1.1-13.8-.9z"/><path class="st1" d="M237.3 151.9c.3-20.5 5.7-21.6 20-22.7 12.3-.9 24.5-.6 36.2 3.7 9.7 3.5 13.1 8.8 11.7 18.9-1.7 12.2-7 23-16.2 31-10.1 8.7-22.1 7.4-33.8 3.5-14.6-4.9-16.6-17.5-17.8-30.3-.2-1.4-.1-2.8-.1-4.1zM376.6 128.5c4.1-.2 8.9.3 13.7.9 9.1 1.1 12.7 4.6 13.4 13.9.7 9.9-.9 19.4-4.6 28.5-4.3 10.8-13.7 14.8-24.2 16.3-18.3 2.5-29.1-4.4-35.9-22.4-1.9-5-3.4-10.1-3.5-15.6-.2-8 3.5-13.3 10.7-16.5 7.6-3.3 17.7-5.1 30.4-5.1z"/></svg>