<?xml version="1.0" encoding="utf-8"?>
<svg version="1.1" id="Camada_1" xmlns="http://www.w3.org/2000/svg" xmlns:xlink="http://www.w3.org/1999/xlink" x="0px" y="0px"
	 viewBox="0 0 512 256" style="enable-background:new 0 0 512 256;" xml:space="preserve">
<style type="text/css">
	.st0{display:none;fill:#1C7CD6;}
	.st1{fill:#143674;}
	.st2{fill:#ffe066;}
</style>
<polygon class="st0" points="644,286 -81,787.7 -878,410.7 -950,-468 -225,-969.7 572,-592.7 "/>
<g>
	<path class="st1" d="M44.5,194.2c8.7-6.5,8.5-6.4,14,2.5c1.6,2.5,0.9,7.5,6.5,6.7c4.8-0.6,7.1-3.6,8.5-7.8
		c1.8-5.6,4.8-10.9,7.2-16.3c0.5,0,0.9-0.1,1.3-0.2c2.7-1.5,7.2-1.1,7.9-5c1.8-0.4,1.4-1.9,1.8-2.9c5.3-5.6,6.7-13.1,13.2-18.4
		c3.5-2.9,5.9-3.7,9.7-2.7c5.4,1.4,10.5,1.4,15.7-0.8c8.1-3.5,15.3-1.4,19.4,5.4c1.7,2.8,3.2,5.8,4.8,8.7c0,0.4,0.1,0.8,0.3,1.1
		c1.3,4.6,4.3,7.5,10.1,8.2c4.8,0.6,5.7,4.9,8,7.5c2.3,2.6,2.6,3,5.8,1c11.4-7.2,20.2-16.6,27.1-26.8c10-14.9,18.6-30.5,24.6-47
		c2.4-6.5,7.3-12.4,11.1-18.6c0.5,0,0.9-0.1,1.3-0.2c5.3,0.9,10.7,0.5,16,1.1c4.9,0.6,9.6-3.5,12.3-7.7c1.8-2.8,3.3-5.9,5-8.8
		c1.7-2.9,4.2-4.8,8.3-4.7c12.3,0.3,18.9-6.8,24.8-14.4c3.1-4,5.3-8.4,7.9-12.6c1.7-0.4,1.1-1.8,1.6-2.7c4-1.7,4.9-5.6,7.9-8.1
		c0.5,0,0.9-0.1,1.3-0.2c3.9,0,6.9-1.5,9.6-3.8c6.8-5.9,16.9-6.2,25-10.2c6-3,12.3,2.8,17.5,7.1c17,14.4,23.1,33.4,31.2,51.7
		c0.8,1.3-0.7,3.2,1.6,4.1c0.1,7.2,5.3,12.7,9,18.6c2.4,3.9,6,0.2,8.9-1c0.5-0.5,1.1-0.9,1.6-1.4c3-1.4,6.3-2.5,7.9-5.4
		c1.7-0.4,1.1-1.8,1.6-2.7c4.5-4.6,9-9,17.1-5.6c2.2,0,1.3-1.6,1.8-2.5c4-1.7,4.9-5.6,7.9-8.1c1.7-0.4,1.1-1.8,1.6-2.7
		c1.4-0.6,2.2-1.7,3-2.8c6.6-9.1,19.5-9.2,27.1-0.5c2.7,3,5.8,5.8,7.9,10.3c-5.9-1.3-7.4-5.2-9.5-8c-2.9-3.9-7.2-4.7-11.4-5.7
		c-5.3-1.3-9.3,0.5-11.8,5.1c-1.5,2.9-3.9,5.6-5.9,8.3c-0.5,0.5-1.1,0.9-1.6,1.4c-4,5.4-8.2,10.5-17.1,7c-1.1-0.3-1.5,0.4-1.8,1.1
		c-2.6,3.2-5.3,6.3-7.9,9.5c-1.1,0.9-2.1,1.8-3.2,2.7c-2.1-0.3-3.1,1.1-4.5,2.1c-7.5,5.2-11.4,4.2-16.2-2.8
		c-5.7-8.3-7.8-17.7-12.3-26.3c-1.9-2-0.2-4.9-2.6-6.8c-3.8-11.9-8.9-23.2-19.5-32.1c-1.8-1.5-3.4-3.2-4.8-5.1
		c-5.2-6.9-12-7.3-20.5-3.9c-7.3,2.9-14.1,7.1-21.1,9.2c-11.5,3.5-15.9,11-20.8,18.7c-3.8,5.9-7.5,11.5-13.5,16
		c-4.4,3.3-9.1,6-15.1,5.3c-5.1-0.5-7.4,1.5-9.3,5.2c-3,5.5-5.1,11.3-12.3,14.6c-3.6,1.7-6.2,2.1-10,1.2c-9.2-2.3-12.4-1.1-16.3,6.2
		c-10.3,19.4-18.1,39.9-31,58.2c-7.5,10.7-16.9,20.5-28.7,28.2c-3.1,2-5.3,1.8-7.1-0.7c-3.4-5-6.9-9.6-14.5-10.2
		c-1.9-0.1-2.5-1.7-3.1-3.4c-0.9-2.6-1.7-5.4-4.6-7.1c-3.7-1.5,0.4-5.4-2.9-7c-0.8-3.7-4.6-4.3-7.9-5.4c-0.3-0.7-0.7-1.4-1.8-1.1
		c-5.5,2.3-10.9,4.7-17.3,4.1c-0.5,0-1.1,0-1.6,0c-2.6-0.5-5.3-0.9-7.9-1.4c-1.1-0.3-1.5,0.4-1.8,1.1c-2.6,3.2-5.3,6.3-7.9,9.5
		c-1.7,0.4-1.1,1.8-1.6,2.7c-5.1,5.8-6.6,13.4-16.1,17.1c-4.1,1.6-4.9,9.6-7.3,14.6c-1.3,2.7-1.6,6.1-5.2,7.4
		c-5.2,1.9-10.3,3.2-12.5-3.5c-0.5-1.7-1.9-3.1-2.7-4.7c-1.7-3.6-2.5-4-7.2-1.5c-18.2,9.7-20.9,26.5-27.3,41.5
		c-3.1,7.4-6.5,14.2-14.7,18.4c-2.1-1.7-0.8-2.7,0.5-3.5c7.3-4.6,10.1-11.5,12.5-18.5c3.9-11.1,9.2-21.6,14.5-32.2
		c0.5-0.5,1.1-0.9,1.6-1.4c3.6,0,5.1-2.9,7.9-4.1C43.4,195.1,44,194.6,44.5,194.2z"/>
	<path class="st2" d="M373.2,116.9c0-22.2,0-44.3,0-66.5c0.5,0,1.1,0,1.6,0c0,22.2,0,44.3,0,66.5
		C374.3,116.9,373.7,116.9,373.2,116.9z"/>
	<path class="st2" d="M231.4,97.4c0-22,0-43.9,0-65.9c0.6,0,1.2,0,1.9,0c0,21.9,0,43.8,0,65.7C232.6,97.3,232,97.3,231.4,97.4z"/>
	<path class="st2" d="M346.4,30.7c0,22.2,0,44.3,0,66.5c-0.4,0-0.9,0-1.3,0c0-22.2,0-44.3,0-66.5C345.5,30.7,345.9,30.7,346.4,30.7z
		"/>
	<path class="st2" d="M432,95.5c-0.5,0.5-1.1,0.9-1.6,1.4c0-21.8,0-43.5,0-65.3c0.5,0,1.1,0,1.6,0C432,52.9,432,74.2,432,95.5z"/>
	<path class="st2" d="M82,179.1c-0.4,0.2-0.9,0.2-1.3,0.2c0-21.1,0-42.2,0-63.4c0.4,0,0.9,0,1.3,0C82,137,82,158,82,179.1z"/>
	<path class="st2" d="M44.5,194.2c-0.5,0.5-1.1,0.9-1.6,1.4c0-20,0-39.9,0-59.9c0.5,0,1.1,0,1.6,0C44.5,155.1,44.5,174.7,44.5,194.2
		z"/>
	<path class="st2" d="M72.8,107.2c0,18.8,0,37.5,0,56.3c-0.6,0-1.2,0-1.8,0c0-18.8,0-37.6,0-56.3C71.6,107.2,72.2,107.2,72.8,107.2z
		"/>
	<path class="st2" d="M14.5,202.2c0-19,0-38,0-57c0.4,0,0.9,0,1.3,0c0,19,0,38,0,57C15.4,202.1,15,202.1,14.5,202.2z"/>
	<path class="st2" d="M203.1,106.7c0-18.8,0-37.6,0-56.4c0.6,0,1.2,0,1.7,0c0,18.8,0,37.7,0,56.5
		C204.3,106.8,203.7,106.8,203.1,106.7z"/>
	<path class="st2" d="M250.3,78.2c0-18.8,0-37.6,0-56.4c0.6,0,1.2,0,1.8,0c0,18.9,0,37.8,0,56.7C251.5,78.4,250.9,78.3,250.3,78.2z"
		/>
	<path class="st2" d="M35,199.6c-0.5,0.5-1.1,0.9-1.6,1.4c0-18.9,0-37.8,0-56.7c0.5,0,1.1,0,1.6,0C35,162.7,35,181.2,35,199.6z"/>
	<path class="st2" d="M384.8,50.5c0,15.8,0,31.5,0,47.3c-0.4,0-0.9,0-1.3,0c0-15.8,0-31.6,0-47.4C383.9,50.4,384.3,50.5,384.8,50.5z
		"/>
	<path class="st2" d="M174.9,125.9c0-15.9,0-31.8,0-47.7c0.6,0,1.2,0,1.8,0c0,15.9,0,31.8,0,47.7C176,125.9,175.5,125.9,174.9,125.9
		z"/>
	<path class="st2" d="M477.1,135c0-15.8,0-31.5,0-47.3c0.5,0,0.9,0,1.4,0c0,15.8,0,31.6,0,47.5C478,135.2,477.6,135.1,477.1,135z"/>
	<path class="st2" d="M167.5,97.3c0,15.8,0,31.6,0,47.3c-0.6,0-1.2,0-1.7,0c0-15.9,0-31.7,0-47.6C166.3,97.1,166.9,97.2,167.5,97.3z
		"/>
	<path class="st2" d="M498.1,116.5c0,15.9,0,31.7,0,47.6c-0.5,0-0.9,0-1.4,0c0-15.9,0-31.7,0-47.6
		C497.2,116.5,497.6,116.5,498.1,116.5z"/>
	<path class="st2" d="M129.5,163.7c0,15.8,0,31.6,0,47.4c-0.7,0-1.3,0-2,0c0-15.8,0-31.6,0-47.4
		C128.2,163.7,128.8,163.7,129.5,163.7z"/>
	<path class="st2" d="M6.6,182.3c0,15.9,0,31.8,0,47.7c-0.6,0-1.2,0-1.8,0c0-15.9,0-31.8,0-47.7C5.4,182.3,6,182.3,6.6,182.3z"/>
	<path class="st2" d="M460.4,79.3c-0.6,0.9,0.4,2.5-1.8,2.5c0-13.7,0-27.3,0-41c0.6,0,1.2,0,1.8,0C460.4,53.6,460.4,66.4,460.4,79.3
		z"/>
	<path class="st2" d="M108.5,153.6c0.3-0.7,0.7-1.4,1.8-1.1c0,13.2,0,26.4,0,39.6c-0.6,0-1.2,0-1.8,0
		C108.5,179.3,108.5,166.5,108.5,153.6z"/>
	<path class="st2" d="M309.1,3.2c0,12.5,0,24.9,0,37.4c-0.7,0-1.3,0-2,0c0-12.5,0-25,0-37.6C307.8,3.1,308.4,3.1,309.1,3.2z"/>
	<path class="st2" d="M271.2,12.4c0,12.6,0,25.2,0,37.7c-0.7,0-1.4,0-2,0c0-12.6,0-25.2,0-37.7C269.9,12.4,270.6,12.4,271.2,12.4z"
		/>
	<path class="st2" d="M422.3,21.8c0,12.8,0,25.5,0,38.3c-0.6,0-1.1,0-1.7,0c0-12.8,0-25.5,0-38.3C421.2,21.8,421.8,21.8,422.3,21.8z
		"/>
	<path class="st2" d="M469.8,68.4c-0.5,0.9,0.1,2.3-1.6,2.7c0-13.2,0-26.4,0-39.6c0.5,0,1.1,0,1.6,0
		C469.8,43.8,469.8,56.1,469.8,68.4z"/>
	<path class="st2" d="M489,88.2c0,12.3-0.1,24.5,0.1,36.8c0,1.3-0.4,1.5-1.4,1.5c-1,0-1.6-0.1-1.6-1.4c0.1-12.3,0.1-24.5,0.1-36.8
		C487.2,88.3,488.1,88.3,489,88.2z"/>
	<path class="st2" d="M365.4,97c0,12.7,0,25.4,0,38.1c-0.5,0-0.9,0-1.4,0c0-12.7,0-25.4,0-38.1C364.4,97,364.9,97,365.4,97z"/>
	<path class="st2" d="M61.8,182.4c0-12.7,0-25.4,0-38.1c0.5,0,1.1,0,1.6,0c0,12.7,0,25.5,0,38.2C62.9,182.5,62.4,182.5,61.8,182.4z"
		/>
	<path class="st2" d="M91.7,171.2c-0.4,1.1,0,2.5-1.8,2.9c0-12.9,0-25.9,0-38.8c0.6,0,1.2,0,1.8,0C91.7,147.3,91.7,159.2,91.7,171.2
		z"/>
	<path class="st2" d="M118.3,153.8c0.5,0,1.1,0,1.6,0c0,12.8,0,25.6,0,38.4c-0.5,0-1.1,0-1.6,0C118.3,179.4,118.3,166.6,118.3,153.8
		z"/>
	<path class="st2" d="M356,78.1c0,12.7,0,25.5,0,38.2c-0.5,0-1.1,0-1.6,0c0-12.7,0-25.4,0-38.1C355,78.2,355.5,78.2,356,78.1z"/>
	<path class="st2" d="M412.6,79.3c-2.3-0.8-0.8-2.8-1.6-4.1c0-11.4,0-22.9,0-34.3c0.5,0,1.1,0,1.6,0
		C412.6,53.7,412.6,66.5,412.6,79.3z"/>
	<path class="st2" d="M146.9,156.3c3.3,1.6-0.8,5.5,2.9,7c-3.2,6-0.9,12.3-1.5,18.5c-0.3,3.3-0.1,6.7-1.4,10
		C146.9,180,146.9,168.2,146.9,156.3z"/>
	<path class="st2" d="M402.1,63c2.4,1.8,0.7,4.8,2.6,6.8c-3,7.1-0.4,14.5-1.3,21.7c-0.3,2.2,1,4.8-1.3,6.7
		C402.1,86.4,402.1,74.7,402.1,63z"/>
	<path class="st2" d="M137.2,149.8c1.1-0.3,1.5,0.4,1.8,1.1c0,10.5,0,21,0,31.5C136.1,171.6,137.7,160.7,137.2,149.8z"/>
	<path class="st2" d="M448.8,84.7c0.3-0.7,0.7-1.4,1.8-1.1c0,10.9,0,21.8,0,32.8c-0.6,0-1.2,0-1.8,0
		C448.8,105.8,448.8,95.2,448.8,84.7z"/>
	<path class="st2" d="M297.6,31.8c0-9.6,0-19.1,0-28.7C299,12.7,300.6,22.2,297.6,31.8z"/>
	<path class="st2" d="M259.8,12.6c1.4,9.5,3,19.1,0,28.6C259.8,31.7,259.8,22.1,259.8,12.6z"/>
	<path class="st2" d="M318.6,38.7c-0.5,0.9,0.1,2.3-1.6,2.7c0-9.6,0-19.3,0-28.9C319.9,21.1,317.4,30,318.6,38.7z"/>
	<path class="st2" d="M186.4,69.4c0,9.5,0,18.9,0,28.4C184.2,88.4,183.7,78.8,186.4,69.4z"/>
	<path class="st2" d="M280.9,12.7c0,9.5,0,18.9,0,28.4C278.5,31.6,278.5,22,280.9,12.7z"/>
	<path class="st2" d="M154.8,164.4c-0.2-0.4-0.3-0.7-0.3-1.1c3.3-4.3,1.1-9,1.5-13.6c0.4-5,0.1-9.9,1.7-14.8c0,8.7,0,17.3,0,26
		C157.6,162.6,158.1,164.7,154.8,164.4z"/>
	<path class="st2" d="M51.9,182.5c0-9.3,0-18.7,0-28c0.6,0,1.3,0,1.9,0c0,9.3,0,18.6,0,27.9C53.1,182.5,52.5,182.5,51.9,182.5z"/>
	<path class="st2" d="M392.2,116.3c0-9.6,0-19.2,0-28.8C395.1,97,393.4,106.6,392.2,116.3z"/>
	<path class="st2" d="M327.8,30.4c-0.4,0.2-0.9,0.2-1.3,0.2c0-9.2,0-18.3,0-27.5C328.9,12.1,327.3,21.3,327.8,30.4z"/>
	<path class="st2" d="M99.1,165.8c0.5-0.9-0.1-2.3,1.6-2.7c0,9.6,0,19.2,0,28.8c-0.5,0-1.1,0-1.6,0
		C99.1,183.2,99.1,174.5,99.1,165.8z"/>
	<path class="st2" d="M437.8,96.8c1.1-0.9,2.1-1.8,3.2-2.7c0,7.4,0,14.7,0,23.7C437.8,109.9,442.1,102.9,437.8,96.8z"/>
	<path class="st2" d="M467.7,76.6c0.5-0.5,1.1-0.9,1.6-1.4c0.3,7.4,1.1,14.7-1.6,22.1C467.7,90.4,467.7,83.5,467.7,76.6z"/>
	<path class="st2" d="M224.3,50.3c0,5.9-0.2,11.9,0.1,17.8c0.1,1.3-0.2,1.5-1.2,1.6c-1,0.1-2.1,0-1.7-1.3
		C223.3,62.5,221.4,56.5,224.3,50.3z"/>
	<path class="st2" d="M214,50.5c0.3,6,0.6,11.9,1.1,17.9c0.1,1.3-0.5,1.5-1.6,1.4c-1,0-1.5-0.1-1.4-1.5c0.6-5.9,0.7-11.9,1-17.9
		C213.4,50.4,213.7,50.4,214,50.5z"/>
	<path class="st2" d="M288.2,21.9c2.5,6.6,2,12.9,0,19.3C288.2,34.7,288.2,28.3,288.2,21.9z"/>
	<path class="st2" d="M195.7,88c0,6.5,0,13,0,19.5C193,101.1,193.3,94.6,195.7,88z"/>
	<path class="st2" d="M505,164.2c2.1-6.5-0.6-13.4,2.4-19.8c0,6.6,0,13.2,0,19.8C506.6,164.2,505.8,164.2,505,164.2z"/>
	<path class="st2" d="M25.4,201.6c-2.3-6.5-2.3-12.9,0-19.3C25.4,188.7,25.4,195.1,25.4,201.6z"/>
	<path class="st2" d="M441.5,87.4c-0.5,0.9,0.1,2.3-1.6,2.7c0-6.9,0-13.8,0-20.7c0.5,0,1.1,0,1.6,0
		C441.5,75.3,441.5,81.4,441.5,87.4z"/>
	<path class="st2" d="M242.7,88.5c-0.4,0.2-0.9,0.2-1.3,0.2c0-6.7,0-13.4,0-20.1c0.4,0,0.9,0,1.3,0
		C242.7,75.3,242.7,81.9,242.7,88.5z"/>
</g>
</svg>
