<svg id="Camada_1" xmlns="http://www.w3.org/2000/svg" viewBox="0 0 512 256"><style>.st0{display:none;fill:#1c7cd6}.st1{fill:#143674}.st2{fill:#ffe066}</style><path class="st0" d="M644 286L-81 787.7l-797-377-72-878.7 725-501.7 797 377z"/><path class="st1" d="M44.5 194.2c8.7-6.5 8.5-6.4 14 2.5 1.6 2.5.9 7.5 6.5 6.7 4.8-.6 7.1-3.6 8.5-7.8 1.8-5.6 4.8-10.9 7.2-16.3.5 0 .9-.1 1.3-.2 2.7-1.5 7.2-1.1 7.9-5 1.8-.4 1.4-1.9 1.8-2.9 5.3-5.6 6.7-13.1 13.2-18.4 3.5-2.9 5.9-3.7 9.7-2.7 5.4 1.4 10.5 1.4 15.7-.8 8.1-3.5 15.3-1.4 19.4 5.4 1.7 2.8 3.2 5.8 4.8 8.7 0 .4.1.8.3 1.1 1.3 4.6 4.3 7.5 10.1 8.2 4.8.6 5.7 4.9 8 7.5 2.3 2.6 2.6 3 5.8 1 11.4-7.2 20.2-16.6 27.1-26.8 10-14.9 18.6-30.5 24.6-47 2.4-6.5 7.3-12.4 11.1-18.6.5 0 .9-.1 1.3-.2 5.3.9 10.7.5 16 1.1 4.9.6 9.6-3.5 12.3-7.7 1.8-2.8 3.3-5.9 5-8.8 1.7-2.9 4.2-4.8 8.3-4.7 12.3.3 18.9-6.8 24.8-14.4 3.1-4 5.3-8.4 7.9-12.6 1.7-.4 1.1-1.8 1.6-2.7 4-1.7 4.9-5.6 7.9-8.1.5 0 .9-.1 1.3-.2 3.9 0 6.9-1.5 9.6-3.8 6.8-5.9 16.9-6.2 25-10.2 6-3 12.3 2.8 17.5 7.1C397 38 403.1 57 411.2 75.3c.8 1.3-.7 3.2 1.6 4.1.1 7.2 5.3 12.7 9 18.6 2.4 3.9 6 .2 8.9-1 .5-.5 1.1-.9 1.6-1.4 3-1.4 6.3-2.5 7.9-5.4 1.7-.4 1.1-1.8 1.6-2.7 4.5-4.6 9-9 17.1-5.6 2.2 0 1.3-1.6 1.8-2.5 4-1.7 4.9-5.6 7.9-8.1 1.7-.4 1.1-1.8 1.6-2.7 1.4-.6 2.2-1.7 3-2.8 6.6-9.1 19.5-9.2 27.1-.5 2.7 3 5.8 5.8 7.9 10.3-5.9-1.3-7.4-5.2-9.5-8-2.9-3.9-7.2-4.7-11.4-5.7-5.3-1.3-9.3.5-11.8 5.1-1.5 2.9-3.9 5.6-5.9 8.3-.5.5-1.1.9-1.6 1.4-4 5.4-8.2 10.5-17.1 7-1.1-.3-1.5.4-1.8 1.1-2.6 3.2-5.3 6.3-7.9 9.5-1.1.9-2.1 1.8-3.2 2.7-2.1-.3-3.1 1.1-4.5 2.1-7.5 5.2-11.4 4.2-16.2-2.8-5.7-8.3-7.8-17.7-12.3-26.3-1.9-2-.2-4.9-2.6-6.8-3.8-11.9-8.9-23.2-19.5-32.1-1.8-1.5-3.4-3.2-4.8-5.1-5.2-6.9-12-7.3-20.5-3.9-7.3 2.9-14.1 7.1-21.1 9.2-11.5 3.5-15.9 11-20.8 18.7-3.8 5.9-7.5 11.5-13.5 16-4.4 3.3-9.1 6-15.1 5.3-5.1-.5-7.4 1.5-9.3 5.2-3 5.5-5.1 11.3-12.3 14.6-3.6 1.7-6.2 2.1-10 1.2-9.2-2.3-12.4-1.1-16.3 6.2-10.3 19.4-18.1 39.9-31 58.2-7.5 10.7-16.9 20.5-28.7 28.2-3.1 2-5.3 1.8-7.1-.7-3.4-5-6.9-9.6-14.5-10.2-1.9-.1-2.5-1.7-3.1-3.4-.9-2.6-1.7-5.4-4.6-7.1-3.7-1.5.4-5.4-2.9-7-.8-3.7-4.6-4.3-7.9-5.4-.3-.7-.7-1.4-1.8-1.1-5.5 2.3-10.9 4.7-17.3 4.1h-1.6c-2.6-.5-5.3-.9-7.9-1.4-1.1-.3-1.5.4-1.8 1.1-2.6 3.2-5.3 6.3-7.9 9.5-1.7.4-1.1 1.8-1.6 2.7-5.1 5.8-6.6 13.4-16.1 17.1-4.1 1.6-4.9 9.6-7.3 14.6-1.3 2.7-1.6 6.1-5.2 7.4-5.2 1.9-10.3 3.2-12.5-3.5-.5-1.7-1.9-3.1-2.7-4.7-1.7-3.6-2.5-4-7.2-1.5-18.2 9.7-20.9 26.5-27.3 41.5-3.1 7.4-6.5 14.2-14.7 18.4-2.1-1.7-.8-2.7.5-3.5 7.3-4.6 10.1-11.5 12.5-18.5 3.9-11.1 9.2-21.6 14.5-32.2.5-.5 1.1-.9 1.6-1.4 3.6 0 5.1-2.9 7.9-4.1-.1-.5.5-1 1-1.4z"/><path class="st2" d="M373.2 116.9V50.4h1.6v66.5h-1.6zM231.4 97.4V31.5h1.9v65.7c-.7.1-1.3.1-1.9.2zM346.4 30.7v66.5h-1.3V30.7h1.3zM432 95.5c-.5.5-1.1.9-1.6 1.4V31.6h1.6v63.9zM82 179.1c-.4.2-.9.2-1.3.2v-63.4H82v63.2zM44.5 194.2c-.5.5-1.1.9-1.6 1.4v-59.9h1.6v58.5zM72.8 107.2v56.3H71v-56.3h1.8zM14.5 202.2v-57h1.3v57c-.4-.1-.8-.1-1.3 0zM203.1 106.7V50.3h1.7v56.5c-.5 0-1.1 0-1.7-.1zM250.3 78.2V21.8h1.8v56.7l-1.8-.3zM35 199.6c-.5.5-1.1.9-1.6 1.4v-56.7H35v55.3zM384.8 50.5v47.3h-1.3V50.4c.4 0 .8.1 1.3.1zM174.9 125.9V78.2h1.8v47.7h-1.8zM477.1 135V87.7h1.4v47.5c-.5 0-.9-.1-1.4-.2zM167.5 97.3v47.3h-1.7V97c.5.1 1.1.2 1.7.3zM498.1 116.5v47.6h-1.4v-47.6h1.4zM129.5 163.7v47.4h-2v-47.4h2zM6.6 182.3V230H4.8v-47.7h1.8zM460.4 79.3c-.6.9.4 2.5-1.8 2.5v-41h1.8v38.5zM108.5 153.6c.3-.7.7-1.4 1.8-1.1v39.6h-1.8v-38.5zM309.1 3.2v37.4h-2V3c.7.1 1.3.1 2 .2zM271.2 12.4v37.7h-2V12.4h2zM422.3 21.8v38.3h-1.7V21.8h1.7zM469.8 68.4c-.5.9.1 2.3-1.6 2.7V31.5h1.6v36.9zM489 88.2c0 12.3-.1 24.5.1 36.8 0 1.3-.4 1.5-1.4 1.5-1 0-1.6-.1-1.6-1.4.1-12.3.1-24.5.1-36.8 1 0 1.9 0 2.8-.1zM365.4 97v38.1H364V97h1.4zM61.8 182.4v-38.1h1.6v38.2c-.5 0-1 0-1.6-.1zM91.7 171.2c-.4 1.1 0 2.5-1.8 2.9v-38.8h1.8v35.9zM118.3 153.8h1.6v38.4h-1.6v-38.4zM356 78.1v38.2h-1.6V78.2c.6 0 1.1 0 1.6-.1zM412.6 79.3c-2.3-.8-.8-2.8-1.6-4.1V40.9h1.6v38.4zM146.9 156.3c3.3 1.6-.8 5.5 2.9 7-3.2 6-.9 12.3-1.5 18.5-.3 3.3-.1 6.7-1.4 10v-35.5zM402.1 63c2.4 1.8.7 4.8 2.6 6.8-3 7.1-.4 14.5-1.3 21.7-.3 2.2 1 4.8-1.3 6.7V63zM137.2 149.8c1.1-.3 1.5.4 1.8 1.1v31.5c-2.9-10.8-1.3-21.7-1.8-32.6zM448.8 84.7c.3-.7.7-1.4 1.8-1.1v32.8h-1.8V84.7zM297.6 31.8V3.1c1.4 9.6 3 19.1 0 28.7zM259.8 12.6c1.4 9.5 3 19.1 0 28.6V12.6zM318.6 38.7c-.5.9.1 2.3-1.6 2.7V12.5c2.9 8.6.4 17.5 1.6 26.2zM186.4 69.4v28.4c-2.2-9.4-2.7-19 0-28.4zM280.9 12.7v28.4c-2.4-9.5-2.4-19.1 0-28.4zM154.8 164.4c-.2-.4-.3-.7-.3-1.1 3.3-4.3 1.1-9 1.5-13.6.4-5 .1-9.9 1.7-14.8v26c-.1 1.7.4 3.8-2.9 3.5zM51.9 182.5v-28h1.9v27.9c-.7.1-1.3.1-1.9.1zM392.2 116.3V87.5c2.9 9.5 1.2 19.1 0 28.8zM327.8 30.4c-.4.2-.9.2-1.3.2V3.1c2.4 9 .8 18.2 1.3 27.3zM99.1 165.8c.5-.9-.1-2.3 1.6-2.7v28.8h-1.6v-26.1zM437.8 96.8c1.1-.9 2.1-1.8 3.2-2.7v23.7c-3.2-7.9 1.1-14.9-3.2-21zM467.7 76.6c.5-.5 1.1-.9 1.6-1.4.3 7.4 1.1 14.7-1.6 22.1V76.6zM224.3 50.3c0 5.9-.2 11.9.1 17.8.1 1.3-.2 1.5-1.2 1.6-1 .1-2.1 0-1.7-1.3 1.8-5.9-.1-11.9 2.8-18.1zM214 50.5c.3 6 .6 11.9 1.1 17.9.1 1.3-.5 1.5-1.6 1.4-1 0-1.5-.1-1.4-1.5.6-5.9.7-11.9 1-17.9.3 0 .6 0 .9.1zM288.2 21.9c2.5 6.6 2 12.9 0 19.3V21.9zM195.7 88v19.5c-2.7-6.4-2.4-12.9 0-19.5zM505 164.2c2.1-6.5-.6-13.4 2.4-19.8v19.8H505zM25.4 201.6c-2.3-6.5-2.3-12.9 0-19.3v19.3zM441.5 87.4c-.5.9.1 2.3-1.6 2.7V69.4h1.6v18zM242.7 88.5c-.4.2-.9.2-1.3.2V68.6h1.3v19.9z"/></svg>