<?xml version="1.0" encoding="utf-8"?>
<!-- Generator: Adobe Illustrator 20.1.0, SVG Export Plug-In . SVG Version: 6.00 Build 0)  -->
<svg version="1.1" id="Camada_1" xmlns="http://www.w3.org/2000/svg" xmlns:xlink="http://www.w3.org/1999/xlink" x="0px" y="0px"
	 viewBox="0 0 640 640" style="enable-background:new 0 0 640 640;" xml:space="preserve">
<style type="text/css">
	.st0{fill:#0E244A;}
	.st1{fill:#F0C841;}
	.st2{fill:#1C7CD6;}
	.st3{fill:#FFFFFF;}
</style>
<g>
	<path class="st0" d="M8,441c61.8,0,123.6,0.1,185.5-0.1c4.9,0,6.4,0.9,6.4,6.2c-0.3,45.2-0.2,90.3,0,135.5c0,4.7-1,6.1-5.9,6.1
		c-60.2-0.2-120.3-0.1-180.5-0.1c-1.8,0-3.6,0.2-5.4,0.4C8,539.7,8,490.3,8,441z M87,490c-6.6,0-12.1,5.5-12,12.1
		c0,6.4,5.3,11.8,11.7,11.9c6.6,0.2,12.2-5.2,12.3-11.8C99.1,495.6,93.7,490.1,87,490z M120,514c6.6,0,12-5.5,12-12.1
		c-0.1-6.6-5.6-12-12.2-11.9c-6.4,0.1-11.7,5.5-11.7,11.9C108,508.5,113.4,514,120,514z"/>
	<path class="st0" d="M634,589c-1.8-0.1-3.6-0.4-5.4-0.4c-60.1,0-120.2-0.1-180.4,0.1c-4.8,0-6.1-1.1-6-6c0.3-28.6,0.2-57.3,0-85.9
		c0-4.5,1.2-5.5,5.6-5.5c60.1,0.1,120.2,0.1,180.4,0.1c2,0,3.9-0.3,5.9-0.4C634,523.7,634,556.3,634,589z M504.9,549
		c6.6,0.1,12.1-5.4,12.1-12c0-6.6-5.5-12-12.1-12c-6.4,0.1-11.7,5.4-11.8,11.8C492.9,543.4,498.3,548.9,504.9,549z M550,536.8
		c-0.1-6.6-5.7-11.9-12.3-11.8c-6.4,0.1-11.6,5.5-11.7,11.9c0,6.6,5.5,12.1,12,12C544.7,549,550.1,543.4,550,536.8z M583,537.1
		c0.1-6.6-5.3-12.1-12-12.1c-6.4,0-11.8,5.2-12,11.6c-0.2,6.6,5.2,12.2,11.7,12.4C577.4,549.1,582.9,543.7,583,537.1z"/>
	<path class="st0" d="M425.3,484c0,33.2-0.1,66.3,0.1,99.5c0,4.1-1,5.2-5.2,5.2c-66-0.1-132-0.1-198,0c-4.2,0-5.6-0.8-5.6-5.4
		c0.2-66,0.2-132,0-198c0-4.4,1.1-5.5,5.5-5.5c66,0.2,132,0.1,198,0c4.1,0,5.3,0.9,5.3,5.1C425.2,418,425.3,451,425.3,484z
		 M320.7,439c-2.6,11-9.2,15.6-20,14.8c1.1,1.6,2,2.5,3,3.2c6.7,4.2,7.5,10.2,5.1,17.1c-0.3,0.8-1.5,1.7-0.4,2.6
		c0.9,0.9,2,0.2,2.7-0.4c7-6.2,13.7-4.2,20.4,0.7c0.3,0.2,0.9,0.1,2.3,0.3c-5-9.9-1.9-17.4,7-23.4
		C329.5,454.8,323.5,449.4,320.7,439z"/>
	<path class="st1" d="M254.1,252.6c-4.5-4.7-9-7.8-14.2-10.2c-7.7-3.5-15-7.8-22.3-12c-19.2-11.1-27.3-42.2-19.4-61.4
		c5.4-12.9,14.4-22.4,27.3-27.7c5.3-2.2,7-5.1,6.7-10.5c-0.5-8.7-0.1-10.1,8.3-8.8c24.9,3.8,133.8,4.1,158.5,0c7.4,0,8.7,1,7.8,8.5
		c-0.7,6.1,1.5,8.8,7,11.2c24.5,10.6,35.1,36.9,27,62.3c-5.6,17.6-18.4,27-33.6,34.6c-7.7,3.8-16,6.6-22.3,14
		c3.5,0.1,6.2,1.5,7.9,4.2c1.7,2.7,1.7,5.8,1.1,8.7c-1,5.3-8.8,9.7-15.1,8.8c-6.6-1-11.5-4.5-14.1-10.5c-1.6-3.7-2.5-3.3-4.8-0.4
		c-6.3,8.2-13.2,15.9-22.2,21.3c-3.3,2-4.7,5-4.7,8.8c0.1,8.5,0.2,17-0.1,25.5c-0.1,3.8,1.5,5.1,4.9,5.1c4.3,0,8.7,0,13,0
		c8.6,0,13.1,4.4,13.1,12.7c0,8.2-4.5,13-13,13.1c-18.5,0.1-37,0.1-55.5,0c-4.3,0-8.6,0.6-12.9-0.8c-6-1.9-8.6-7-7.6-15.4
		c0.6-5.6,4.6-9.4,10.3-9.6c5.2-0.2,10.3,0,15.5-0.1c3.4,0,4.9-1.3,4.7-5.2c-0.4-8.5-0.2-17-0.1-25.5c0.1-3.9-1.3-6.8-4.6-8.8
		c-9.1-5.4-15.9-13-22.2-21.3c-2.5-3.2-3.1-2.6-4.7,0.6c-5.2,10.7-18.2,13.9-26.2,6.5c-3.1-2.9-4.4-6.5-3-10.8
		C246.1,255.2,248.8,252.8,254.1,252.6z M379.9,229.8c10.5-4.9,19.7-9,28.7-13.6c24.9-12.8,20.8-43.3,0.8-55.7
		c-4.7-2.9-6.3-2.3-7.6,3.1c-3.5,14.2-7.2,28.3-12.5,42C386.4,213.2,383.5,220.7,379.9,229.8z M257.3,229.4c0.3-0.3,0.6-0.7,0.8-1
		c-0.3-0.7-0.5-1.5-0.8-2.2c-4.8-11.3-9.3-22.7-12.9-34.4c-2.9-9.4-5.6-18.7-7.5-28.3c-0.6-2.8-1.8-5.9-5.7-3.9
		c-17.6,8.8-24.8,33.4-11.5,48.7C229.6,219.7,244.9,221.9,257.3,229.4z"/>
</g>
<g>
	<path class="st2" d="M235.2,398.8c-1.2,0-2.3,0-3.4,0c-0.4,0-0.9,0.1-1.3,0.1c-0.1,0-0.3,0.1-0.3,0.2c-0.6,1.4-1.2,2.7-1.8,4.1
		c0,0.1,0.1,0.2,0.1,0.5c-0.9-0.4-1.7-0.8-2.5-1.1c-0.8-0.3-1.6-0.7-2.4-0.9c-0.2-0.1-0.5,0.1-0.7,0.2c-1.2,1.1-2.3,2.3-3.6,3.6
		c-0.3-0.4-0.6-0.7-1-1.1c-0.3-0.3-0.7-0.5-1-0.8c-0.2-0.2-0.3-0.5-0.5-0.7c-0.6-0.9-1.5-1.1-2.6-0.5c-0.9,0.4-1.9,0.9-2.8,1.4
		c-0.3,0.1-0.6,0.2-0.6-0.3c0-0.4-0.2-0.7-0.4-1c-0.4-0.9-0.9-1.7-1.3-2.6c-0.5-1.1-0.5-1-1.7-0.9c-0.4,0-0.9-0.1-1.4-0.1
		c-0.6,0-1.3,0.1-1.9,0.1c-0.5,0-0.7-0.2-0.7-0.7c0-1,0-2.1,0-3.1c0-1.2-0.5-1.8-1.6-2c-0.3-0.1-0.7-0.2-1-0.3
		c-0.5-0.2-0.9-0.4-1.4-0.4c-0.6-0.1-0.7-0.4-0.5-0.9c0.4-1.1,0.8-2.2,1.2-3.3c0.1-0.2,0.1-0.4,0.3-0.5c0.4-0.5,0.3-0.8-0.1-1.2
		c-0.4-0.3-0.7-0.7-1.1-1.1c-0.7-0.7-1.5-1.3-2.2-2.1c-0.1-0.1,0-0.5,0.1-0.7c0.8-0.9,1.7-1.7,2.5-2.5c0.8-0.8,0.9-1.2,0.2-2.2
		c-0.2-0.3-0.3-0.7-0.4-1c-0.2-0.4-0.4-0.8-0.7-1.2c-0.3-0.4-0.4-0.8,0.2-1.1c1-0.5,2.1-1,3.2-1.4c0.2-0.1,0.4-0.2,0.6-0.2
		c0.8-0.2,0.9-0.7,0.9-1.4c-0.1-0.6,0-1.2,0-1.8c0-0.6-0.1-1.3-0.1-1.9c0-0.5,0.1-0.7,0.6-0.7c1.2,0.1,2.5,0.1,3.7,0.1
		c0.7,0,1-0.2,1.2-0.8c0.4-1.2,0.9-2.3,1.4-3.4c0.1-0.1,0.1-0.3,0.2-0.6c0.6,0.3,1.3,0.5,1.9,0.8c0.7,0.3,1.4,0.6,2.1,0.9
		c0.5,0.2,1,0.2,1.4-0.3c0.9-1,1.9-2,2.9-2.9c0.3-0.3,0.6-0.6,1,0.1c0.2,0.3,0.6,0.5,0.9,0.8c0.1,0.1,0.3,0.2,0.4,0.4
		c0.1,0.2,0.2,0.4,0.4,0.6c0.5,0.5,1,0.9,1.6,1.5c0.8-0.4,1.7-0.9,2.7-1.3c0.5-0.2,1.1-0.5,1.6-0.5c0.3,0,0.7,0.5,0.9,0.8
		c0.6,1.3,1,2.6,1.6,3.9c1,0,2.1,0,3.2,0c0.7,0,1.3,0.1,2,0.1c0.1,0,0.4,0.3,0.4,0.5c0,1.3,0,2.5-0.1,3.8c0,0.6,0.1,0.9,0.8,1
		c0.5,0.1,0.9,0.4,1.4,0.6c0.7,0.3,1.4,0.6,2.1,0.8c0.7,0.2,0.5,0.6,0.4,1c-0.4,1-0.9,2-1.4,3c-0.2,0.4-0.3,0.7-0.5,1.2
		c1.3,1.3,2.6,2.6,3.9,4c-1.3,1.2-2.4,2.3-3.6,3.4c0.5,1.1,1,2.1,1.5,3.1c0.2,0.4,0.3,0.9,0.4,1.4c0,0.1-0.2,0.4-0.4,0.5
		c-1.4,0.7-2.7,1.3-4.1,2c-0.1,0.1-0.3,0.2-0.3,0.3c0,1,0,2,0,3C235.3,397.4,235.2,398.1,235.2,398.8z M220.3,398.8
		c4.4-0.4,8.3-2.1,11.2-5.5c2.8-3.3,4.2-7.3,3.7-11.7c-0.4-4.6-2.6-8.4-6.2-11.2c-3.3-2.5-7.2-3.5-11.3-3.1
		c-3.5,0.3-6.5,1.7-9.1,4.2c-4.7,4.6-6.1,10-4.3,16.3c1.1,3.6,3.3,6.4,6.4,8.5C213.5,398.1,216.8,399,220.3,398.8z"/>
	<path class="st2" d="M209.3,407.7c1.7-0.7,3.3-1.4,4.9-2.1c0.2-0.1,0.4-0.2,0.6-0.3c0.4-0.3,0.5,0,0.7,0.3c0.3,0.4,0.6,0.7,1,1
		c0.4,0.3,0.8,1,0.6,1.5c-0.6,1.6-1.1,3.2-1.7,4.8c-0.6,1.6-1.1,3.2-1.7,4.8c-0.5,1.5-1,2.9-1.5,4.4c-0.5,1.4-1,2.8-1.5,4.2
		c-0.5,1.5-1.1,3.1-1.6,4.6c-0.3,1-0.6,1.9-0.9,2.9c-0.1,0-0.2,0-0.3,0c-0.2-0.3-0.3-0.6-0.5-0.9c-0.3-0.4-0.6-0.7-0.9-1.1
		c-0.2-0.3-0.2-0.6-0.4-0.9c-0.7-0.9-1.4-1.8-2-2.7c-0.3-0.4-0.5-0.8-0.7-1.2c-0.2-0.4-0.5-0.5-1-0.4c-1.3,0.4-2.6,0.8-3.9,1.1
		c-1,0.3-2,0.5-3,0.8c-0.4,0.1-0.9,0.3-1.4,0.5c0.2-0.6,0.4-1.1,0.5-1.6c0.6-1.8,1.3-3.6,1.9-5.4c0.5-1.5,1-3,1.6-4.6
		c0.5-1.6,1.1-3.1,1.6-4.7c0.5-1.4,1.1-2.8,1.6-4.3c0.5-1.5,1-3,1.5-4.5c0.2-0.5,0.3-1,0.4-1.6c0.2-0.7,0.6-0.8,1.2-0.8
		c0.7,0.1,1.5,0,2.2,0c0.3,0,0.6-0.1,0.5,0.4c0,0.2,0.1,0.4,0.2,0.6c0.5,1,1,2,1.4,3C209,406.5,209.1,407.1,209.3,407.7z"/>
	<path class="st2" d="M244.3,428.1c-1.1-0.2-2.1-0.5-3.2-0.7c-1.1-0.2-2.2-0.4-3.3-0.6c-0.4-0.1-0.7-0.3-1.1-0.4
		c-1.1-0.3-1.3-0.2-1.9,0.8c-1.2,2.1-2.4,4.2-3.6,6.2c-0.1,0.2-0.3,0.4-0.5,0.6c-0.5-1.2-0.9-2.3-1.4-3.4c-0.4-1-0.9-1.9-1.3-2.9
		c-0.2-0.5-0.4-1-0.6-1.6c-0.5-1.3-1-2.5-1.5-3.8c-0.4-1-1-1.9-1.4-2.9c-0.4-1.1-0.8-2.2-1.2-3.2c-0.4-1-0.9-1.9-1.4-2.9
		c-0.2-0.4-0.2-0.8-0.4-1.2c-0.4-1-0.9-2-1.3-3c-0.1-0.2,0-0.5,0.1-0.7c1-1.1,2.1-2.1,3.1-3.1c0.2-0.2,0.6-0.1,0.9,0
		c0.5,0.1,1,0.3,1.5,0.6c0.4,0.2,0.7,0.4,1,0.5c0.8,0.3,1.5,0.6,2.3,0.9c0.5,0.2,0.6,0.1,0.8-0.4c0.3-1,0.7-2,1.1-2.9
		c0.2-0.6,0.5-1.3,0.9-1.8c0.3-0.3,0.9-0.3,1.4-0.5c3.7,8.8,7.3,17.4,10.9,26.1C244.4,428,244.4,428,244.3,428.1z"/>
	<path class="st3" d="M220.3,398.8c-3.5,0.3-6.8-0.7-9.6-2.6c-3.1-2-5.3-4.8-6.4-8.5c-1.8-6.3-0.4-11.7,4.3-16.3
		c2.6-2.5,5.6-3.9,9.1-4.2c4.1-0.4,8,0.6,11.3,3.1c3.7,2.8,5.8,6.6,6.2,11.2c0.4,4.4-0.9,8.3-3.7,11.7
		C228.5,396.7,224.7,398.4,220.3,398.8z M215.7,370.5c-2.5,0.9-4.7,2.3-6.5,4.3c-1.8,2.1-2.8,4.6-3,7.3c-0.2,4.8,1.6,8.8,5.6,11.7
		c2.8,2,6.2,2.7,9.6,2.1c2.3-0.4,4.5-1.2,6.3-2.8c3.9-3.5,5.2-7.9,4.3-12.9c-0.5-3-2.1-5.6-4.5-7.4
		C224.1,370.3,220.1,369.3,215.7,370.5z"/>
	<path class="st2" d="M215.7,370.5c4.4-1.2,8.4-0.3,11.9,2.4c2.3,1.8,3.9,4.4,4.5,7.4c0.9,5-0.4,9.4-4.3,12.9
		c-1.8,1.6-4,2.4-6.3,2.8c-3.4,0.6-6.7-0.1-9.6-2.1c-4-2.8-5.8-6.9-5.6-11.7c0.1-2.7,1.2-5.2,3-7.3
		C211,372.8,213.2,371.4,215.7,370.5z"/>
</g>
<g>
	<path class="st3" d="M347.9,167.8c-1.3-0.6-1.4-0.6-1.3-0.6c1.5,0.2,4,1.8,4.9,2.8c2.5,2.8,3.6,6.2,3.9,9.8
		c0.3,5.6,0,11.3-0.8,16.9c-0.4,2.6-1,5.3-2,7.8c-1.6,3.8-4.3,6.3-8.7,6.9c-3.3,0.5-6.5,0.9-9.8,1c-10.5,0.4-20.9-0.1-31.4-0.2
		c-4.4,0-8.8-0.2-13.3-0.2c-0.3,0-0.6,0-1,0c0.2-4.1,0.4-8.1,0.6-12.2c0.3,0,0.6,0,0.9,0c11.7,0.2,23.5,0.5,35.2,0.6
		c2.8,0,5.7-0.2,8.6-0.3c0.6,0,1.1-0.2,1.6-0.2c2-0.3,3.1-1.5,3.6-3.2c0.4-1.2,0.6-2.5,0.7-3.7c0.2-2.9,0.3-5.9,0.4-8.8
		c0-0.8-0.2-1.6-0.4-2.3c-0.6-2.2-2.1-3.6-4.6-3.7c-3.2-0.2-6.3-0.5-9.5-0.6c-6.3-0.2-12.5-0.2-18.8-0.4c-0.3,0-0.5,0-0.9,0
		c0.2-4,0.4-7.9,0.6-11.9c0.3,0,0.5,0,0.8,0c5.9,0.1,11.9,0.1,17.8,0.4c5.7,0.2,11.5,0.6,17.2,0.9c1.5,0.1,3,0.4,4.4,0.7
		C347.1,167.3,347.5,167.6,347.9,167.8"/>
	<path class="st3" d="M290.1,181.2c0.3-5.2,0.6-10.3,0.8-15.4c0-0.7,0.2-0.8,0.9-0.8c3.7,0.1,7.4,0.2,11.2,0.2
		c0.6,0,0.8,0.2,0.8,0.8c-0.6,10.3-1.1,20.7-1.6,31c0,0.6-0.3,0.8-0.9,0.8c-3.7-0.1-7.5-0.2-11.2-0.2c-0.6,0-0.8-0.2-0.8-0.8
		C289.5,191.6,289.8,186.4,290.1,181.2z"/>
	<path class="st3" d="M320.7,197.5c-2.1,0-4.3-0.1-6.4-0.1c0.3-5.2,0.6-10.4,0.8-15.6c2.1,0,4.2,0.1,6.4,0.1
		C321.2,187.1,321,192.2,320.7,197.5z"/>
	<path class="st3" d="M305.1,185.7c2.2,0,4.3,0.1,6.4,0.1c-0.2,3.8-0.4,7.6-0.6,11.5c-2.1,0-4.3-0.1-6.4-0.1
		C304.7,193.4,304.9,189.6,305.1,185.7z"/>
</g>
</svg>
