<svg id="Camada_1" xmlns="http://www.w3.org/2000/svg" viewBox="0 0 640 640"><style>.st0{fill:#fefefe}.st1{fill:#cbcbcc}.st2{fill:#c4c4c4}.st3{fill:#143674}.st4{fill:#1c7cd6}</style><path class="st0" d="M17 403c-.7 7.9 1 14.5 4.8 20.6 1.2 1.8 2.3 4.6 5.3 3 3.2-1.7 1.1-4 0-5.8-3.1-5.1-4.8-10.5-4.5-16.5.2-5.7 2.9-10.5 5.4-15.5.6-1.2 1.6-2.6-.1-3.6-1.3-.8-2.7-.6-3.8.5-.9.8-1.8 1.7-2.3 2.8-2.7 4.7-5.1 9.5-4.8 14.5z"/><path class="st0" d="M27.1 406.1c1.4 3.8 1 8.1 3.8 11.3 1.1 1.3 2.5 1.9 4.1 1.2 1.6-.7 1.9-2.3 1.2-3.5-3.5-6.4-3.2-12.6 0-18.9.6-1.3.4-2.8-1.1-3.6-1.6-.9-2.6.3-3.6 1.3-3.5 3.3-3 8.1-4.4 12.2z"/><path class="st1" d="M252.8 370.9v-84.5c0-2.7-.5-4.1-3.3-5.7-18.9-11.1-37.4-22.7-56.1-34.2-2.4-1.5-4.8-2.3-7.7-2.3-10.9.2-21.9.1-32.8.1v-3.8c11.2 0 22.4.1 33.6 0 2 0 3.9.1 5.7 1.2 18.9 11.6 37.7 23.2 56.6 34.8 1.7 1 3.4 2 4.5 3.8.5 1.2 1.7 1.8 2.7 2.4 21.9 13.5 43.8 27 65.8 40.4.1 1.8.2 3.7.2 5.5v79.9c0 1.6-.8 3.4.8 4.8 1.3 1.9 1 4.1 1 6.3 0 25.1.1 50.1.1 75.2h-3.8c0-25.4-.2-50.8.3-76.2.1-5-1.2-7.3-5.4-9.8-20.8-12.4-41.5-25.3-62.2-37.9z"/><path class="st2" d="M322.1 240.3h-1c0-30.2 0-60.3-.1-90.5-.3-.3-.6-.6-.8-.9-15.3 0-30.5-.4-45.8 0-8.9.2-15.5-7-15.3-15.5.5-23.9.2-47.8.2-71.6 0-9 5.2-14.5 14.1-14.6 32.2-.1 64.4-.1 96.6 0 8.4 0 14 5.9 14 14.4v72.1c0 9.3-5.9 15.1-15.3 15.1-14.3 0-28.7.1-43 .1-.3.3-.6.6-.8.9 0 28.4-.1 56.7 0 85.1-.1 2.5-.2 4.5-2.8 5.4zm-.5-169.9c-16.2 0-32.3.1-48.5-.1-4.1 0-5.7.9-5.6 5.4.2 18.9.1 37.9.1 56.8 0 5.8 2.2 8.2 8 8.2h92.9c5.5 0 7.3-1.7 7.3-7.1 0-19.6-.1-39.1.1-58.7 0-3.8-1.2-4.6-4.7-4.6-16.6.2-33.1.1-49.6.1zm12.6-15.6c-2.9-.4-3.8 1.2-3.9 4-.1 3.2 1.3 4.2 4.4 4.2 2.9 0 4-1.2 4-4.1.1-3.2-1.3-4.5-4.5-4.1zm16.9 0c-3.2-.4-4.2 1.2-4.2 4.3 0 3 1.4 3.9 4.2 4 3.2.1 4.3-1.3 4.2-4.4 0-3.1-1.3-4.3-4.2-3.9zm20.8 4.3c.2-2.4-.2-4.4-3.5-4.4-2.6 0-4.9.1-4.9 3.7 0 2.5.2 4.6 3.5 4.6 2.7-.1 5.2-.1 4.9-3.9zM449.5 243.1c2.8 0 5.8.6 8.3-.3 3.9-1.5 7.2-4 11.7-1 1.2.8 2.8-1.5 3.3-3.6.4-1.8.3-4.7 2.6-4.8 2.5-.2 3.1 2.6 3.7 4.6.4 1.3.3 3.1 2.2 2.8 1.4-.2 1.5-1.7 1.7-2.9.3-2 .8-3.9 1.3-5.8.3-1 .7-2.2 2.2-1.9 1.5.3 2 1.4 1.8 2.8-.4 2.2-1.4 4.4-.4 6.7.7.2 1.1 0 1.4-.7.7-1.4.4-4 2.3-4 2.2 0 1 2.4 1.5 3.7.7 2.2 1.9 1.5 3.1.6 2.6-2.1 3.3-5 3.3-8.2.1-3.2-.6-6.5.8-9.6.4-.9.1-2.4 1.5-2.4 1.5 0 1.9 1.6 2 2.7.2 3.1.1 6.2.2 9.2 0 1 .2 2 .7 3 3.6-6.9 1.7-15 4.6-23.3 1.7 3.7.9 6.5 1.1 9.1.2 1.8-.9 4.3 1.2 5 2 .6 4.4-.1 6.3-1.7 3.5-2.9 5.3-7.1 7.8-10.7 1-1.5 1.7-3 3.8-2.6 2.1.4 2.6 2.2 2.9 3.8.8 5.1 1.4 10.3 2 15.5.1.9-.2 2 .2 2.7.7 1.4.3 4.2 2.2 4 2.1-.2 1.1-2.8 1.3-4.3.2-2.6-.4-5.2.8-7.7.6-1.3.8-2.9 2.6-2.7 1.6.2 2 1.8 2.2 3.2.4 3.3-.4 6.7.6 10.5 2.2-2.3 1.1-4.6 1.3-6.7.5-3.6-.9-7.4.8-10.9.5-1.1.6-2.7 2.2-2.4 1.3.2 2.1 1.3 2.4 2.6 1 3.4 1.1 7 1 10.5-.1 3 0 6.1 0 9.2 2.4-.1 2.6-1.7 2.8-2.9.5-4.9.8-9.8 1.1-14.6.3-6.7.6-13.4 2.4-19.9.3-1.2.2-3.2 2.1-3.1 1.5.1 1.9 1.8 1.9 3.2.1 7.4.5 14.8-.4 22.1-.4 2.9-.9 5.7.7 8.8 1.8-1.5 1.6-3.3 1.6-5.1.1-5.1.1-10.1.1-15.2 0-1.3.1-2.7 1.7-2.9 1.4-.2 2.2 1 2.7 2.2.8 2 1.3 4.1 1.3 6.3-.1 5.5 0 11.1 0 16.6 0 2.2.1 4.3 1.3 6.3 2.2-.9 1.4-2.8 1.4-4.3 0-2.6 0-5.2.9-7.7.4-1.1.3-2.7 2-2.6 1.5.1 2.4 1.4 2.5 2.9.2 2.5.1 4.9.1 7.4 0 1.4-.1 2.8.2 4.1.2 1.1.6 2.6 2.2 2.6 1.5 0 2.1-1.1 2.3-2.4.6-2.7 1-5.4 1-8.2 0-1.3.1-3.5 2-3.6 1.4 0 2 1.6 2.5 3 .9 2.2.7 4.5.9 6.8.3 2.9.9 5.7 5.1 4 2.3-1 4.6-.2 6.7.7 4.9 2.3 9.9 3.1 15.2 2.7 1-.1 2.1-.2 3.1.8-1.2 1.4-2.7 1-3.9.9-4.6-.4-8.9.6-13 2.2-3.2 1.2-6.3 2.1-9.8 1-3.3-1-3 2.1-3.2 3.7-.4 2.5-.1 5.2-1.1 7.7-.5 1.2-1.2 2.5-2.4 2.6-1.9 0-1.8-2.1-1.9-3.1-.3-2.9-.4-5.8-1.1-8.6-.3-1.3-.9-2.4-2.3-2.4-1.6 0-2.1 1.5-2.2 2.6-.2 2.8-.1 5.5-.2 8.3 0 1.4 0 2.8-.4 4.1-.3 1-1.1 2-2.3 2-1.4.1-1.6-1.1-1.9-2.2-.6-2.4-1.2-4.7-1-7.2.1-1.7.7-3.7-1.1-5.4-1.7 1.3-1.5 3.1-1.5 4.9 0 6.2.1 12.3-.1 18.5-.1 3.1 0 7.9-3.7 7.8-3.4-.1-1.7-4.8-1.9-7.5-.4-5 .7-10.1-.8-15.3-1.8 2.7-2.2 3.6-1.7 6.8 1.1 7.3 1.1 14.6.8 22 0 .6 0 1.2-.1 1.8-.1 1.4-.3 3.2-1.8 3.4-2 .3-2.5-1.8-2.6-3.2-.8-6.2-2.2-12.3-2-18.6.2-6.4-.7-12.7-2.2-19.1-2.4 1.2-1.5 2.9-1.6 4.3-.2 4.9.2 9.8-.9 14.7-.4 1.8-.9 3.6-2.8 3.7-2.1.1-2.1-2.2-2.3-3.5-.4-3.3-.3-6.7-.4-10.1-.1-2 .4-4-.5-5.9-1.8 0-1.3 1.4-1.3 2.4-.1 2.6.1 5.2-.2 7.8-.1 1.3-.6 2.9-2.3 2.9-1.5 0-1.8-1.3-2.3-2.5-1.3-2.8-.7-5.8-.8-8.7-.1-1.4.5-3.3-1.1-3.6-2.2-.4-2 2.2-2.2 3.3-.9 5.9-1.6 11.8-2.2 17.7-.2 2.1-.5 4.2-2.8 4.8-2.6.8-3.3-1.7-4.4-3.2-2-2.7-3.8-5.6-5.6-8.5-1.1-1.7-2.6-2.6-4.4-3.2-3.3-1.3-5-.2-5.1 3.3-.1 3.1 0 6.3-.7 9.4-3.2-7.1-1.2-15.3-4.5-22.7-1.9 1.5-1.2 3.3-1.3 4.8-.1 2.3 0 4.6-.1 6.9 0 1.7 0 4.1-1.9 4.2-2.3.1-1.4-2.5-1.8-4-1.1-4.3-.2-8.9-1.6-13.2-.7-2-1.5-4-3.8-4.1-2.9-.2-1.5 2.4-2 3.7-.2.6-.3 1.2-1.1 1.3-.9.1-1.4-.5-1.6-1.3-.2-1.4-.4-2.7-1.8-3.9-2.1 2 0 4-.2 5.9-.2 1.7.9 4.3-1.8 4.5-2 .2-2.2-2.2-2.7-3.8v-.5c-.6-2.3 0-6.1-2.3-6.5-2.6-.5-2 3.4-3.1 5.2-.8 1.2-1.3 2.6-3.1 2.2-1.4-.3-1.6-1.6-1.8-2.9-1.3-6.7-2.2-7.1-8-4.1-.7.4-1.7 1.1-2.1.5-3.6-5.4-9.2-2.6-13.9-3.5-.1-1.2-.1-2.3-.1-3.5zM152.9 240.4v3.8c-3.3 8.9-11.6 12.7-18.4 8.2-3.9-2.6-6.6-6.4-6.5-11.5.1-2.7-.9-4.6-2.8-6.4-6.7-6.3-13.4-12.7-20-19.1-1.5-1.5-2.8-2.2-4.8-.9-6.2 3.8-12.1 2.1-17.7-1.4-2-1.2-2.9-1.3-4.4.6-3.6 4.4-7.6 8.4-11.4 12.6-3.5 3.8-2.5 6.8 2.4 8 1.2.3 2.4.6 3.5 1.1 4.2 1.8 7.8 2.5 11.6-1.4 3.1-3.2 10.6-3.1 14.2-.8 4 2.6 6.3 8.3 5.2 12.9-1 4.1-6.6 9.5-10.5 10.2-4.2.7-10.3-3-12.7-8.1-1.4-3.1-3.2-5-6.7-5.7-5-1-9.6-3.1-14.1 2-6.4 7.3-14.1 5.3-20.1.5-5.8-4.6-6.7-14-2.4-20.5 4.2-6.4 14.8-8.5 21.3-3.6 3 2.3 4.7 1.5 6.3-1 1.4-2.3 3.5-3.8 5.2-5.9 3.3-4.1 7.3-7.2 4.8-14.1-2.4-6.6 1.9-12.6 7.2-17 1.6-1.3 2.1-2.6 1.7-4.3-1.5-7.2-2.9-14.3-4.6-21.4-1-4.2-7.6-5.9-11.4-2.6-4.1 3.5-7.7 7.6-11.5 11.3-1.1 1.1-.7 2.1-.5 3.3 1 6.3-3.4 13.4-9.1 14.8-6.8 1.6-12.8-2.4-15.3-9.3-2.4-6.6 6.3-16.8 13.1-14.3 4.5 1.7 8.4.7 11.4-3.3 1.1-1.5 2.5-2.7 3.9-3.9 4.1-3.6 7.1-7 5.4-13.6-1.5-6.1 4.4-13.4 10.3-15.1 6.8-1.9 15 1.2 18.4 7.1 3.6 6.1 3 13.4-3.1 17.8-5.7 4.1-5.3 8-3.7 13.7 1.3 4.7 4 8.9 4.3 13.9.2 3.2 3.6 2.9 5.9 3.3 2.2.3 4.1.7 5.8 2.3 2.5 2.3 5.2 2 7.9-.2 5-4.2 10.1-8.4 15.3-12.5 2-1.6 1.9-3.3 1.3-5.7-1.5-5.9-.3-11.5 4.5-15.4 5.2-4.3 11.2-5.8 17.5-2.2 5.4 3.1 8.5 7.6 8.2 14.2-.2 6.3-3.8 10.1-8.6 13.2-4.2 2.7-8.5 1.6-12.8.4-2.1-.6-3.8-.5-5.5 1-6.1 5.2-12.2 10.2-18.5 15.2-1.3 1-1.6 1.8-1.2 3.4.8 4 .8 8-1.6 11.6-1.4 2.1-1.1 4 .9 5.7 7.2 6 13.7 12.8 20.3 19.5 1.6 1.6 2.8 1 4.5.4 8.4-3.4 16.9.8 17.6 9.2zm-48-43c0-5.6-6.1-11.6-11.5-11.4-6.2.2-12.4 6.3-12.3 12 .1 6.3 6.1 12.1 12.4 11.9 6.6-.1 11.5-5.5 11.4-12.5zm-53.8 28c-5.8-.3-9.8 2.6-10.1 7.2-.3 5 3.9 9.6 9 9.8 4.6.1 9.3-4.4 9.4-9.1.2-4.6-3.1-7.7-8.3-7.9zm38.1-86.6c0-5.5-2.9-8.4-8.7-8.4-5 0-8.9 3.6-9 8.4 0 4.9 4.2 9.3 8.9 9.3 5.1-.1 8.7-4 8.8-9.3zm61.9 21.4c.1-5.4-3.5-9.3-8.4-9.3-4.1 0-9.1 4.8-9.2 8.8-.1 5.1 3.7 8.8 9.1 8.8 5.6 0 8.5-2.7 8.5-8.3zm-53.6 83c0-3.7-2.3-6.5-5.6-6.3-3.4.2-5.7 2.3-6.2 5.7-.5 2.7 3.4 6.9 6.1 7 2.6.1 5.7-3.2 5.7-6.4zm-59.3-71.5c0 3.1 3.1 6.6 5.9 6.6 2.1 0 5.9-4 5.9-6.3.1-3.1-3.2-6.8-6.1-6.3-3.2.6-6 2-5.7 6zm108.3 70.7c0-3.9-1.6-6.2-5.3-6.5-3-.2-6.8 2.9-6.5 5.7.4 3.5 2.4 6.1 6.2 6.2 3.7.1 5.4-2.2 5.6-5.4zM469.7 398.7c2.2-7.4 7.6-11.8 14.3-14.7 15.7-6.7 32-7.6 48.8-5.9 9.7 1 19.1 2.6 27.9 7 8.4 4.2 12.9 10.4 12.6 20.5-.5 20.8-.5 41.6 0 62.4.2 9.2-3.7 15.3-11.3 19.4-9.7 5.2-20.4 7.7-31.3 8.2-15.2.8-30.4.4-44.8-5.5-5.3-2.2-10.3-4.7-13.5-9.7-1.8-2.8-2.7-5.7-2.7-9.1.1-23.3 0-46.5 0-69.8v-2.8zm51.9 19.5c11.1-.3 22.1-1.4 32.5-5.6 5.3-2.1 11.5-4.5 11.5-11.1s-6.1-9.2-11.5-11.1c-21.8-7.6-43.7-7.6-65.4.1-5.3 1.8-11.1 4.5-11.3 10.8-.2 6.7 6 9.2 11.3 11.3 10.5 4.1 21.7 5.3 32.9 5.6zm2 48.1c3 .6 7.9-.6 12.7-1.2 8.7-1.1 17.3-2.9 24.7-8 2.9-2 4.6-4.6 4.8-8 .2-3.2 0-6.5.1-9.7 0-2.5-.6-3.2-2.8-1.4-3 2.4-6.5 4.2-10.2 5.1-25.1 6.5-49.9 8-73.6-5.7-1.2-.7-1.8-.8-2.2.9-2.7 11.1 1 18.2 11.6 22.4 10.7 4.2 21.7 5.2 34.9 5.6zm-46.5-6.8v3.9c-.1 13.8 1.6 16 14.8 20.5 6.3 2.1 12.7 3.1 19.3 3.8 15.2 1.6 30 .2 44.3-5.4 10.1-4 13.5-12.8 9.7-22.4-29.3 13.6-58.3 13.8-88.1-.4zm46-15.4c3.3.5 8.4-.5 13.3-1.2 8.7-1.1 17.3-2.9 24.7-8.1 3.1-2.2 4.8-5.1 4.7-9 0-2.5-.1-4.9 0-7.4.1-2.4-.2-3.5-3-1.8-10.5 6.1-22.2 8.2-34 8.7-17.2.8-34.2-.3-49.6-9.2-1.3-.7-1.8-.6-2.1 1-2.4 10.5 1.2 17.3 11.2 21.3 10.7 4.2 21.8 5.3 34.8 5.7zM320.2 494.7H385c5.9 0 7.4 1.5 7.4 7.4v86c0 5.9-1.5 7.5-7.2 7.5H260.4c-6.1 0-6.7-.6-6.7-6.6v-87.8c0-5.7.7-6.4 6.4-6.4 20-.1 40-.1 60.1-.1zm2.8 91.5c18.5 0 36.9-.1 55.4.1 3.7 0 4.7-1 4.7-4.7-.2-24.3-.2-48.6 0-73 0-3.7-1-4.7-4.7-4.7-36.9.1-73.9.1-110.8 0-3.7 0-4.7 1-4.7 4.7.2 24.3.2 48.6 0 73 0 3.7 1 4.7 4.7 4.7 18.5-.2 37-.1 55.4-.1zM104.8 369.1c-1.6 12.3-3.1 24.5-4.7 36.8v.5c-.7 2 .2 5.3-2.4 5.9-2.9.6-2.6-2.9-3.6-4.5-1.5-2.5-2.6-5.2-4.2-8.5-3 4.7-3 9.9-4.5 14.5-1.3 4.1-2 8.3-2.9 12.5-.3 1.6-1 3.4-2.6 3.3-1.8 0-1.8-2-2-3.6-1.8-13.1-3.7-26.3-5.5-39.4-.2-1.1-.4-2.4-1.7-2.4-1.6 0-1.1 1.6-1.3 2.5-1.2 5.2-2.7 10.4-3.4 15.7-.5 3.1-1.9 3.8-4.6 3.7-2.3-.1-4.6 0-6.9 0-2.2-.1-4.2.1-5.9 1.9-2.1 2.2-4.3 1.2-6.1-.5-2.1-2-1.9-4.5-.2-6.7 1.6-2 3.9-1.6 5.9-.6 1.6.8 2.7 2.2 4.8 2.3 9.5.4 9.9.5 11.8-11.4 1.2-7.6 3.3-14.9 4.8-22.4.2-1.1.1-2.2 1.6-2.3 1.7-.1 1.9 1.1 2.1 2.4l3.6 24c1.1 7.6 2.2 15.2 4.3 22.8 1.7-7 3.3-14.1 5-21.1.4-1.5.2-3.7 2.3-4 1.9-.2 2.3 1.9 2.9 3.2 1.4 2.9 2.7 5.8 4.2 9.2 2.7-4.8 1.7-9.8 2.4-14.4 2.3-15.4 3.9-30.8 5.7-46.3.2-1.4.7-2.4 2.1-2.6 1.7-.2 2 1.4 2.2 2.5.6 3.9.6 7.9 1 11.9 1.3 13.4 1.9 26.9 3 40.3.8 9.7 1.9 19.5 3.5 29.3 1-6.6 2.4-13.1 2.8-19.7.5-7.2 2.7-14.1 3-21.3 0-1.3.7-2.1 1.9-2.2 1.9-.1 2.1 1.6 2.5 2.8 1.8 6.5 3.5 13 5.4 19.5.3 1.1.1 2.8 1.8 2.8 1.2 0 1.3-1.6 1.9-2.4.5-.8.8-1.6 1.3-2.5 1.2-2.3 2.1-5.7 4.5-5.9 2.7-.3 3 3.5 4 5.5 1.9 4 5.2 1.7 6.6.8 3.8-2.4 6.3-1 8.9 1.5v3.4c-2.7 2.5-5.2 4.9-9 1.4-.6-.6-2.1-.4-3.1-.3-2.6.2-4.5-.7-5.6-3.1-1.5-3.4-2.8-2.4-4.1.2-1.2 2.5-2.4 5-3.8 7.4-.7 1.1-1.6 2.7-3.1 2.4-1.4-.3-1.5-2-1.9-3.3-1.5-5.6-3.1-11.1-4.9-17.2-2.3 3-1.9 6.4-2.4 9.3-2.1 13.6-3.8 27.2-5.6 40.8-.2 1.5-.3 2.9-2.1 3-2 .1-2-2-2.1-3-.9-5.4-.5-11-1.2-16.5-2-17.6-2.3-35.3-4.7-52.9-.3-2-.1-4-.1-6V360c-1 3.1-2 6-1.6 9.1z"/><path class="st1" d="M160.2 406.1v-3.4c10.6 0 21.2-.1 31.8-.1 2.4 0 4.5-.5 6.6-1.7 16.5-9.7 32.9-19.5 49.4-29.1 2.2-1.3 4.3-3.7 7.5-2.5v-.1c.4 2.2-1.1 2.8-2.7 3.7l-51 30c-3.6 2.1-7.3 3.5-11.7 3.4-9.9-.3-19.9-.2-29.9-.2zM469.7 399.4v2.9c-5.4 0-10.8-.6-16.1 0-12.7 1.4-21.5-6-33-13.3-10.6-6.7-19.3-13.1-29.9-17.9-2.2-1-3.9-2.1-5.3-3.5.1-.6.1-.8.2-1.4 2-1.2 3.6.2 5.1 1.1 15.9 9.8 31.6 20 47.5 29.6 2.7 1.7 5.3 2.7 8.6 2.6 7.5-.2 15.2-.1 22.9-.1z"/><path class="st2" d="M17 403c-.3-5 2.1-9.8 4.7-14.5.6-1 1.5-1.9 2.3-2.8 1.1-1.1 2.5-1.3 3.8-.5 1.7 1.1.7 2.5.1 3.6-2.5 4.9-5.1 9.7-5.4 15.5-.3 6 1.5 11.4 4.5 16.5 1.1 1.8 3.2 4.1 0 5.8-2.9 1.6-4.1-1.1-5.3-3-3.8-6.1-5.5-12.7-4.7-20.6z"/><path class="st1" d="M449.5 243.1v3.4c-19 12.1-37.9 24.3-56.9 36.4-1.1.7-1.9 1.6-3.2.6-.2-.2-.2-.4-.1-.6 0-1.5.9-2.4 2.2-3.2 18.4-11.7 36.8-23.5 55.1-35.3.9-.4 1.9-.8 2.9-1.3z"/><path class="st2" d="M27.1 406.1c1.5-4 1-8.8 4.4-12.3 1-1 2-2.2 3.6-1.3 1.5.8 1.7 2.3 1.1 3.6-3.2 6.3-3.5 12.6 0 18.9.7 1.2.4 2.8-1.2 3.5-1.6.7-3 .1-4.1-1.2-2.8-3.1-2.4-7.4-3.8-11.2zM322.4 75.9c9.4 0 18.8.1 28.1-.1 3.6-.1 4.8 1.2 4.8 4.8 0 10.9.1 10.9-10.6 10.9-16.9 0-33.8-.1-50.8.1-4 0-5.4-1.2-5.3-5.3.3-12.2-1.4-10.4 10.6-10.5 7.9 0 15.5.1 23.2.1zM288.8 112.9c0-4.5.1-8.9 0-13.4-.1-3.2 1.3-4.4 4.4-4.3 5.4.1 10.8.1 16.1 0 3-.1 4.5.9 4.5 4.2-.1 8.9-.1 17.8 0 26.8 0 3.2-1.3 4.4-4.4 4.3-5.4-.1-10.8-.2-16.1 0-3.5.1-4.6-1.3-4.5-4.7.1-4.3 0-8.6 0-12.9z"/><path class="st1" d="M336.8 102.8h14.8c1.6 0 3.8-.5 3.6 2.2-.1 2-1.7 2.3-3.3 2.3h-31c-1.7 0-3.3-.3-3.2-2.3.1-2.1 1.8-2.2 3.4-2.2h15.7zM336.4 123h-14.8c-1.7 0-3.8.2-3.9-2.1-.1-2.4 1.9-2.3 3.7-2.4h30.5c1.5 0 3.4-.4 3.4 2 0 2.3-1.8 2.5-3.6 2.5h-15.3z"/><path class="st2" d="M336.3 99.1h-15.2c-1.4 0-3.1.1-3.1-1.9 0-1.9 1.7-1.9 3.1-1.9h31.4c1.4 0 3 0 2.8 2.1-.1 1.7-1.6 1.6-2.8 1.6-5.5.1-10.9.1-16.2.1zM336.8 111h15.6c1.2 0 2.7-.1 2.7 1.7 0 1.6-1.2 2-2.6 2h-32.2c-1.3 0-2.6-.4-2.5-2 .2-1.6 1.6-1.7 2.8-1.7h16.2zM336.4 130.5h-15.2c-1.4 0-3.1.2-3.3-1.7-.2-1.9 1.5-2 2.9-2h31.8c1.2 0 2.7-.1 2.6 1.8-.1 1.5-1.3 1.9-2.7 1.9-5.4 0-10.8-.1-16.1 0 0-.1 0 0 0 0zM558.5 451.5c-.4 2.2-1.6 3.7-4 3.5-2-.2-3.4-1.5-3.3-3.6.1-2.3 1.6-3.7 3.9-3.5 2 0 3.2 1.4 3.4 3.6zM554.9 469.8c2.3.6 3.8 1.8 3.5 4.2-.3 2-1.7 3.3-3.8 3.2-2.3-.2-3.6-1.7-3.4-4 .2-2.2 1.8-3.1 3.7-3.4zM554.8 425.5c2.4.5 3.9 1.8 3.6 4.1-.2 2-1.6 3.4-3.7 3.2-2.3-.2-3.7-1.6-3.4-4 .1-2.1 1.6-3 3.5-3.3zM352.2 550.3c1.8-2.2 3.3-4.1 4.8-6.1 1.4-1.8 2.7-3.6 4.5-6 3.8 11.4 7.5 22.3 11.2 33.1 1.2 3.5-1.4 3-3.3 3h-92c-4.6 0-4.9-.6-2.9-4.7 4.3-8.7 12.2-11.3 20.9-12 5-.4 10.2-.8 15.1.7 3 .9 4.5-1 5.8-3.2 5.4-8.4 10.9-16.8 16.2-25.2 1.8-2.8 2.8-3.5 5-.2 4.6 6.9 9.6 13.5 14.7 20.6zM294.5 542c-6.6 0-11.2-4.4-11.2-10.7 0-6 5-11.3 11-11.5 6.1-.2 11.3 5.1 11.3 11.4-.1 6.7-4.3 10.8-11.1 10.8z"/><path class="st3" d="M393 281.1c-10.9 5.6-21.1 12.4-31.6 18.6-13.2 7.7-26.3 15.6-39.5 23.4-21.9-13.5-43.9-26.9-65.8-40.4-1-.6-2.2-1.2-2.7-2.4 22.6-14.2 45.2-28.4 67.8-42.7h1l71.1 42.9c-.2.5-.2.5 0 0l-.3.6z"/><path class="st4" d="M322.9 413.3c-1.6-1.4-.8-3.2-.8-4.8-.1-26.6 0-53.3 0-79.9 0-1.8-.1-3.7-.2-5.5 13.2-7.8 26.3-15.7 39.5-23.4 10.6-6.2 20.7-13 31.6-18.6l.3 26.2c0 21.2 0 42.4-.1 63.6-.3.2-.6.5-.9.7-23.2 13.8-46.5 27.3-69.4 41.7z"/></svg>