<?xml version="1.0" encoding="utf-8"?>
<!-- Generator: Adobe Illustrator 20.1.0, SVG Export Plug-In . SVG Version: 6.00 Build 0)  -->
<svg version="1.1" id="Camada_1" xmlns="http://www.w3.org/2000/svg" xmlns:xlink="http://www.w3.org/1999/xlink" x="0px" y="0px"
	 viewBox="0 0 640 640" style="enable-background:new 0 0 640 640;" xml:space="preserve">
<style type="text/css">
	.st0{fill:#FEFEFE;}
	.st1{fill:#CBCBCC;}
	.st2{fill:#C4C4C4;}
	.st3{fill:#0171BB;}
	.st4{fill:#29AAE1;}
</style>
<path class="st0" d="M17,403c-0.7,7.9,1,14.5,4.8,20.6c1.2,1.8,2.3,4.6,5.3,3c3.2-1.7,1.1-4,0-5.8c-3.1-5.1-4.8-10.5-4.5-16.5
	c0.2-5.7,2.9-10.5,5.4-15.5c0.6-1.2,1.6-2.6-0.1-3.6c-1.3-0.8-2.7-0.6-3.8,0.5c-0.9,0.8-1.8,1.7-2.3,2.8C19.1,393.2,16.7,398,17,403
	z"/>
<path class="st0" d="M27.1,406.1c1.4,3.8,1,8.1,3.8,11.3c1.1,1.3,2.5,1.9,4.1,1.2c1.6-0.7,1.9-2.3,1.2-3.5c-3.5-6.4-3.2-12.6,0-18.9
	c0.6-1.3,0.4-2.8-1.1-3.6c-1.6-0.9-2.6,0.3-3.6,1.3C28,397.2,28.5,402,27.1,406.1z"/>
<path class="st1" d="M252.8,370.9c0-28.2,0-56.3,0-84.5c0-2.7-0.5-4.1-3.3-5.7c-18.9-11.1-37.4-22.7-56.1-34.2
	c-2.4-1.5-4.8-2.3-7.7-2.3c-10.9,0.2-21.9,0.1-32.8,0.1c0-1.3,0-2.5,0-3.8c11.2,0,22.4,0.1,33.6,0c2,0,3.9,0.1,5.7,1.2
	c18.9,11.6,37.7,23.2,56.6,34.8c1.7,1,3.4,2,4.5,3.8c0.5,1.2,1.7,1.8,2.7,2.4c21.9,13.5,43.8,27,65.8,40.4c0.1,1.8,0.2,3.7,0.2,5.5
	c0,26.6,0,53.3,0,79.9c0,1.6-0.8,3.4,0.8,4.8c1.3,1.9,1,4.1,1,6.3c0,25.1,0.1,50.1,0.1,75.2c-1.3,0-2.6,0-3.8,0
	c0-25.4-0.2-50.8,0.3-76.2c0.1-5-1.2-7.3-5.4-9.8C294.2,396.4,273.5,383.5,252.8,370.9L252.8,370.9z"/>
<path class="st2" d="M322.1,240.3c-0.3,0-0.6,0-1,0c0-30.2,0-60.3-0.1-90.5c-0.3-0.3-0.6-0.6-0.8-0.9c-15.3,0-30.5-0.4-45.8,0
	c-8.9,0.2-15.5-7-15.3-15.5c0.5-23.9,0.2-47.8,0.2-71.6c0-9,5.2-14.5,14.1-14.6c32.2-0.1,64.4-0.1,96.6,0c8.4,0,14,5.9,14,14.4
	c0,24,0,48.1,0,72.1c0,9.3-5.9,15.1-15.3,15.1c-14.3,0-28.7,0.1-43,0.1c-0.3,0.3-0.6,0.6-0.8,0.9c0,28.4-0.1,56.7,0,85.1
	C324.8,237.4,324.7,239.4,322.1,240.3z M321.6,70.4c-16.2,0-32.3,0.1-48.5-0.1c-4.1,0-5.7,0.9-5.6,5.4c0.2,18.9,0.1,37.9,0.1,56.8
	c0,5.8,2.2,8.2,8,8.2c31,0,61.9,0,92.9,0c5.5,0,7.3-1.7,7.3-7.1c0-19.6-0.1-39.1,0.1-58.7c0-3.8-1.2-4.6-4.7-4.6
	C354.6,70.5,338.1,70.4,321.6,70.4z M334.2,54.8c-2.9-0.4-3.8,1.2-3.9,4c-0.1,3.2,1.3,4.2,4.4,4.2c2.9,0,4-1.2,4-4.1
	C338.8,55.7,337.4,54.4,334.2,54.8z M351.1,54.8c-3.2-0.4-4.2,1.2-4.2,4.3c0,3,1.4,3.9,4.2,4c3.2,0.1,4.3-1.3,4.2-4.4
	C355.3,55.6,354,54.4,351.1,54.8z M371.9,59.1c0.2-2.4-0.2-4.4-3.5-4.4c-2.6,0-4.9,0.1-4.9,3.7c0,2.5,0.2,4.6,3.5,4.6
	C369.7,62.9,372.2,62.9,371.9,59.1z"/>
<path class="st2" d="M449.5,243.1c2.8,0,5.8,0.6,8.3-0.3c3.9-1.5,7.2-4,11.7-1c1.2,0.8,2.8-1.5,3.3-3.6c0.4-1.8,0.3-4.7,2.6-4.8
	c2.5-0.2,3.1,2.6,3.7,4.6c0.4,1.3,0.3,3.1,2.2,2.8c1.4-0.2,1.5-1.7,1.7-2.9c0.3-2,0.8-3.9,1.3-5.8c0.3-1,0.7-2.2,2.2-1.9
	c1.5,0.3,2,1.4,1.8,2.8c-0.4,2.2-1.4,4.4-0.4,6.7c0.7,0.2,1.1,0,1.4-0.7c0.7-1.4,0.4-4,2.3-4c2.2,0,1,2.4,1.5,3.7
	c0.7,2.2,1.9,1.5,3.1,0.6c2.6-2.1,3.3-5,3.3-8.2c0.1-3.2-0.6-6.5,0.8-9.6c0.4-0.9,0.1-2.4,1.5-2.4c1.5,0,1.9,1.6,2,2.7
	c0.2,3.1,0.1,6.2,0.2,9.2c0,1,0.2,2,0.7,3c3.6-6.9,1.7-15,4.6-23.3c1.7,3.7,0.9,6.5,1.1,9.1c0.2,1.8-0.9,4.3,1.2,5
	c2,0.6,4.4-0.1,6.3-1.7c3.5-2.9,5.3-7.1,7.8-10.7c1-1.5,1.7-3,3.8-2.6c2.1,0.4,2.6,2.2,2.9,3.8c0.8,5.1,1.4,10.3,2,15.5
	c0.1,0.9-0.2,2,0.2,2.7c0.7,1.4,0.3,4.2,2.2,4c2.1-0.2,1.1-2.8,1.3-4.3c0.2-2.6-0.4-5.2,0.8-7.7c0.6-1.3,0.8-2.9,2.6-2.7
	c1.6,0.2,2,1.8,2.2,3.2c0.4,3.3-0.4,6.7,0.6,10.5c2.2-2.3,1.1-4.6,1.3-6.7c0.5-3.6-0.9-7.4,0.8-10.9c0.5-1.1,0.6-2.7,2.2-2.4
	c1.3,0.2,2.1,1.3,2.4,2.6c1,3.4,1.1,7,1,10.5c-0.1,3,0,6.1,0,9.2c2.4-0.1,2.6-1.7,2.8-2.9c0.5-4.9,0.8-9.8,1.1-14.6
	c0.3-6.7,0.6-13.4,2.4-19.9c0.3-1.2,0.2-3.2,2.1-3.1c1.5,0.1,1.9,1.8,1.9,3.2c0.1,7.4,0.5,14.8-0.4,22.1c-0.4,2.9-0.9,5.7,0.7,8.8
	c1.8-1.5,1.6-3.3,1.6-5.1c0.1-5.1,0.1-10.1,0.1-15.2c0-1.3,0.1-2.7,1.7-2.9c1.4-0.2,2.2,1,2.7,2.2c0.8,2,1.3,4.1,1.3,6.3
	c-0.1,5.5,0,11.1,0,16.6c0,2.2,0.1,4.3,1.3,6.3c2.2-0.9,1.4-2.8,1.4-4.3c0-2.6,0-5.2,0.9-7.7c0.4-1.1,0.3-2.7,2-2.6
	c1.5,0.1,2.4,1.4,2.5,2.9c0.2,2.5,0.1,4.9,0.1,7.4c0,1.4-0.1,2.8,0.2,4.1c0.2,1.1,0.6,2.6,2.2,2.6c1.5,0,2.1-1.1,2.3-2.4
	c0.6-2.7,1-5.4,1-8.2c0-1.3,0.1-3.5,2-3.6c1.4,0,2,1.6,2.5,3c0.9,2.2,0.7,4.5,0.9,6.8c0.3,2.9,0.9,5.7,5.1,4c2.3-1,4.6-0.2,6.7,0.7
	c4.9,2.3,9.9,3.1,15.2,2.7c1-0.1,2.1-0.2,3.1,0.8c-1.2,1.4-2.7,1-3.9,0.9c-4.6-0.4-8.9,0.6-13,2.2c-3.2,1.2-6.3,2.1-9.8,1
	c-3.3-1-3,2.1-3.2,3.7c-0.4,2.5-0.1,5.2-1.1,7.7c-0.5,1.2-1.2,2.5-2.4,2.6c-1.9,0-1.8-2.1-1.9-3.1c-0.3-2.9-0.4-5.8-1.1-8.6
	c-0.3-1.3-0.9-2.4-2.3-2.4c-1.6,0-2.1,1.5-2.2,2.6c-0.2,2.8-0.1,5.5-0.2,8.3c0,1.4,0,2.8-0.4,4.1c-0.3,1-1.1,2-2.3,2
	c-1.4,0.1-1.6-1.1-1.9-2.2c-0.6-2.4-1.2-4.7-1-7.2c0.1-1.7,0.7-3.7-1.1-5.4c-1.7,1.3-1.5,3.1-1.5,4.9c0,6.2,0.1,12.3-0.1,18.5
	c-0.1,3.1,0,7.9-3.7,7.8c-3.4-0.1-1.7-4.8-1.9-7.5c-0.4-5,0.7-10.1-0.8-15.3c-1.8,2.7-2.2,3.6-1.7,6.8c1.1,7.3,1.1,14.6,0.8,22
	c0,0.6,0,1.2-0.1,1.8c-0.1,1.4-0.3,3.2-1.8,3.4c-2,0.3-2.5-1.8-2.6-3.2c-0.8-6.2-2.2-12.3-2-18.6c0.2-6.4-0.7-12.7-2.2-19.1
	c-2.4,1.2-1.5,2.9-1.6,4.3c-0.2,4.9,0.2,9.8-0.9,14.7c-0.4,1.8-0.9,3.6-2.8,3.7c-2.1,0.1-2.1-2.2-2.3-3.5c-0.4-3.3-0.3-6.7-0.4-10.1
	c-0.1-2,0.4-4-0.5-5.9c-1.8,0-1.3,1.4-1.3,2.4c-0.1,2.6,0.1,5.2-0.2,7.8c-0.1,1.3-0.6,2.9-2.3,2.9c-1.5,0-1.8-1.3-2.3-2.5
	c-1.3-2.8-0.7-5.8-0.8-8.7c-0.1-1.4,0.5-3.3-1.1-3.6c-2.2-0.4-2,2.2-2.2,3.3c-0.9,5.9-1.6,11.8-2.2,17.7c-0.2,2.1-0.5,4.2-2.8,4.8
	c-2.6,0.8-3.3-1.7-4.4-3.2c-2-2.7-3.8-5.6-5.6-8.5c-1.1-1.7-2.6-2.6-4.4-3.2c-3.3-1.3-5-0.2-5.1,3.3c-0.1,3.1,0,6.3-0.7,9.4
	c-3.2-7.1-1.2-15.3-4.5-22.7c-1.9,1.5-1.2,3.3-1.3,4.8c-0.1,2.3,0,4.6-0.1,6.9c0,1.7,0,4.1-1.9,4.2c-2.3,0.1-1.4-2.5-1.8-4
	c-1.1-4.3-0.2-8.9-1.6-13.2c-0.7-2-1.5-4-3.8-4.1c-2.9-0.2-1.5,2.4-2,3.7c-0.2,0.6-0.3,1.2-1.1,1.3c-0.9,0.1-1.4-0.5-1.6-1.3
	c-0.2-1.4-0.4-2.7-1.8-3.9c-2.1,2,0,4-0.2,5.9c-0.2,1.7,0.9,4.3-1.8,4.5c-2,0.2-2.2-2.2-2.7-3.8c0-0.1,0-0.3,0-0.5
	c-0.6-2.3,0-6.1-2.3-6.5c-2.6-0.5-2,3.4-3.1,5.2c-0.8,1.2-1.3,2.6-3.1,2.2c-1.4-0.3-1.6-1.6-1.8-2.9c-1.3-6.7-2.2-7.1-8-4.1
	c-0.7,0.4-1.7,1.1-2.1,0.5c-3.6-5.4-9.2-2.6-13.9-3.5C449.5,245.4,449.5,244.3,449.5,243.1z"/>
<path class="st2" d="M152.9,240.4c0,1.3,0,2.5,0,3.8c-3.3,8.9-11.6,12.7-18.4,8.2c-3.9-2.6-6.6-6.4-6.5-11.5
	c0.1-2.7-0.9-4.6-2.8-6.4c-6.7-6.3-13.4-12.7-20-19.1c-1.5-1.5-2.8-2.2-4.8-0.9c-6.2,3.8-12.1,2.1-17.7-1.4c-2-1.2-2.9-1.3-4.4,0.6
	c-3.6,4.4-7.6,8.4-11.4,12.6c-3.5,3.8-2.5,6.8,2.4,8c1.2,0.3,2.4,0.6,3.5,1.1c4.2,1.8,7.8,2.5,11.6-1.4c3.1-3.2,10.6-3.1,14.2-0.8
	c4,2.6,6.3,8.3,5.2,12.9c-1,4.1-6.6,9.5-10.5,10.2c-4.2,0.7-10.3-3-12.7-8.1c-1.4-3.1-3.2-5-6.7-5.7c-5-1-9.6-3.1-14.1,2
	c-6.4,7.3-14.1,5.3-20.1,0.5c-5.8-4.6-6.7-14-2.4-20.5c4.2-6.4,14.8-8.5,21.3-3.6c3,2.3,4.7,1.5,6.3-1c1.4-2.3,3.5-3.8,5.2-5.9
	c3.3-4.1,7.3-7.2,4.8-14.1c-2.4-6.6,1.9-12.6,7.2-17c1.6-1.3,2.1-2.6,1.7-4.3c-1.5-7.2-2.9-14.3-4.6-21.4c-1-4.2-7.6-5.9-11.4-2.6
	c-4.1,3.5-7.7,7.6-11.5,11.3c-1.1,1.1-0.7,2.1-0.5,3.3c1,6.3-3.4,13.4-9.1,14.8c-6.8,1.6-12.8-2.4-15.3-9.3
	c-2.4-6.6,6.3-16.8,13.1-14.3c4.5,1.7,8.4,0.7,11.4-3.3c1.1-1.5,2.5-2.7,3.9-3.9c4.1-3.6,7.1-7,5.4-13.6
	c-1.5-6.1,4.4-13.4,10.3-15.1c6.8-1.9,15,1.2,18.4,7.1c3.6,6.1,3,13.4-3.1,17.8c-5.7,4.1-5.3,8-3.7,13.7c1.3,4.7,4,8.9,4.3,13.9
	c0.2,3.2,3.6,2.9,5.9,3.3c2.2,0.3,4.1,0.7,5.8,2.3c2.5,2.3,5.2,2,7.9-0.2c5-4.2,10.1-8.4,15.3-12.5c2-1.6,1.9-3.3,1.3-5.7
	c-1.5-5.9-0.3-11.5,4.5-15.4c5.2-4.3,11.2-5.8,17.5-2.2c5.4,3.1,8.5,7.6,8.2,14.2c-0.2,6.3-3.8,10.1-8.6,13.2
	c-4.2,2.7-8.5,1.6-12.8,0.4c-2.1-0.6-3.8-0.5-5.5,1c-6.1,5.2-12.2,10.2-18.5,15.2c-1.3,1-1.6,1.8-1.2,3.4c0.8,4,0.8,8-1.6,11.6
	c-1.4,2.1-1.1,4,0.9,5.7c7.2,6,13.7,12.8,20.3,19.5c1.6,1.6,2.8,1,4.5,0.4C143.7,227.8,152.2,232,152.9,240.4z M104.9,197.4
	c0-5.6-6.1-11.6-11.5-11.4c-6.2,0.2-12.4,6.3-12.3,12c0.1,6.3,6.1,12.1,12.4,11.9C100.1,209.8,105,204.4,104.9,197.4z M51.1,225.4
	c-5.8-0.3-9.8,2.6-10.1,7.2c-0.3,5,3.9,9.6,9,9.8c4.6,0.1,9.3-4.4,9.4-9.1C59.6,228.7,56.3,225.6,51.1,225.4z M89.2,138.8
	c0-5.5-2.9-8.4-8.7-8.4c-5,0-8.9,3.6-9,8.4c0,4.9,4.2,9.3,8.9,9.3C85.5,148,89.1,144.1,89.2,138.8z M151.1,160.2
	c0.1-5.4-3.5-9.3-8.4-9.3c-4.1,0-9.1,4.8-9.2,8.8c-0.1,5.1,3.7,8.8,9.1,8.8C148.2,168.5,151.1,165.8,151.1,160.2z M97.5,243.2
	c0-3.7-2.3-6.5-5.6-6.3c-3.4,0.2-5.7,2.3-6.2,5.7c-0.5,2.7,3.4,6.9,6.1,7C94.4,249.7,97.5,246.4,97.5,243.2z M38.2,171.7
	c0,3.1,3.1,6.6,5.9,6.6c2.1,0,5.9-4,5.9-6.3c0.1-3.1-3.2-6.8-6.1-6.3C40.7,166.3,37.9,167.7,38.2,171.7z M146.5,242.4
	c0-3.9-1.6-6.2-5.3-6.5c-3-0.2-6.8,2.9-6.5,5.7c0.4,3.5,2.4,6.1,6.2,6.2C144.6,247.9,146.3,245.6,146.5,242.4z"/>
<path class="st2" d="M469.7,398.7c2.2-7.4,7.6-11.8,14.3-14.7c15.7-6.7,32-7.6,48.8-5.9c9.7,1,19.1,2.6,27.9,7
	c8.4,4.2,12.9,10.4,12.6,20.5c-0.5,20.8-0.5,41.6,0,62.4c0.2,9.2-3.7,15.3-11.3,19.4c-9.7,5.2-20.4,7.7-31.3,8.2
	c-15.2,0.8-30.4,0.4-44.8-5.5c-5.3-2.2-10.3-4.7-13.5-9.7c-1.8-2.8-2.7-5.7-2.7-9.1c0.1-23.3,0-46.5,0-69.8
	C469.7,400.6,469.7,399.6,469.7,398.7z M521.6,418.2c11.1-0.3,22.1-1.4,32.5-5.6c5.3-2.1,11.5-4.5,11.5-11.1
	c0-6.6-6.1-9.2-11.5-11.1c-21.8-7.6-43.7-7.6-65.4,0.1c-5.3,1.8-11.1,4.5-11.3,10.8c-0.2,6.7,6,9.2,11.3,11.3
	C499.2,416.7,510.4,417.9,521.6,418.2z M523.6,466.3c3,0.6,7.9-0.6,12.7-1.2c8.7-1.1,17.3-2.9,24.7-8c2.9-2,4.6-4.6,4.8-8
	c0.2-3.2,0-6.5,0.1-9.7c0-2.5-0.6-3.2-2.8-1.4c-3,2.4-6.5,4.2-10.2,5.1c-25.1,6.5-49.9,8-73.6-5.7c-1.2-0.7-1.8-0.8-2.2,0.9
	c-2.7,11.1,1,18.2,11.6,22.4C499.4,464.9,510.4,465.9,523.6,466.3z M477.1,459.5c0,1.2,0,2.6,0,3.9c-0.1,13.8,1.6,16,14.8,20.5
	c6.3,2.1,12.7,3.1,19.3,3.8c15.2,1.6,30,0.2,44.3-5.4c10.1-4,13.5-12.8,9.7-22.4C535.9,473.5,506.9,473.7,477.1,459.5z M523.1,444.1
	c3.3,0.5,8.4-0.5,13.3-1.2c8.7-1.1,17.3-2.9,24.7-8.1c3.1-2.2,4.8-5.1,4.7-9c0-2.5-0.1-4.9,0-7.4c0.1-2.4-0.2-3.5-3-1.8
	c-10.5,6.1-22.2,8.2-34,8.7c-17.2,0.8-34.2-0.3-49.6-9.2c-1.3-0.7-1.8-0.6-2.1,1c-2.4,10.5,1.2,17.3,11.2,21.3
	C499,442.6,510.1,443.7,523.1,444.1z"/>
<path class="st2" d="M320.2,494.7c1.3,0,2.6,0,3.8,0c20.3,0,40.7,0,61,0c5.9,0,7.4,1.5,7.4,7.4c0,28.7,0,57.3,0,86
	c0,5.9-1.5,7.5-7.2,7.5c-41.6,0-83.2,0-124.8,0c-6.1,0-6.7-0.6-6.7-6.6c0-29.3,0-58.5,0-87.8c0-5.7,0.7-6.4,6.4-6.4
	C280.1,494.7,300.1,494.7,320.2,494.7z M323,586.2c18.5,0,36.9-0.1,55.4,0.1c3.7,0,4.7-1,4.7-4.7c-0.2-24.3-0.2-48.6,0-73
	c0-3.7-1-4.7-4.7-4.7c-36.9,0.1-73.9,0.1-110.8,0c-3.7,0-4.7,1-4.7,4.7c0.2,24.3,0.2,48.6,0,73c0,3.7,1,4.7,4.7,4.7
	C286.1,586.1,304.6,586.2,323,586.2z"/>
<path class="st2" d="M104.8,369.1c-1.6,12.3-3.1,24.5-4.7,36.8c0,0.2,0,0.3,0,0.5c-0.7,2,0.2,5.3-2.4,5.9c-2.9,0.6-2.6-2.9-3.6-4.5
	c-1.5-2.5-2.6-5.2-4.2-8.5c-3,4.7-3,9.9-4.5,14.5c-1.3,4.1-2,8.3-2.9,12.5c-0.3,1.6-1,3.4-2.6,3.3c-1.8,0-1.8-2-2-3.6
	c-1.8-13.1-3.7-26.3-5.5-39.4c-0.2-1.1-0.4-2.4-1.7-2.4c-1.6,0-1.1,1.6-1.3,2.5c-1.2,5.2-2.7,10.4-3.4,15.7
	c-0.5,3.1-1.9,3.8-4.6,3.7c-2.3-0.1-4.6,0-6.9,0c-2.2-0.1-4.2,0.1-5.9,1.9c-2.1,2.2-4.3,1.2-6.1-0.5c-2.1-2-1.9-4.5-0.2-6.7
	c1.6-2,3.9-1.6,5.9-0.6c1.6,0.8,2.7,2.2,4.8,2.3c9.5,0.4,9.9,0.5,11.8-11.4c1.2-7.6,3.3-14.9,4.8-22.4c0.2-1.1,0.1-2.2,1.6-2.3
	c1.7-0.1,1.9,1.1,2.1,2.4c1.2,8,2.4,16,3.6,24c1.1,7.6,2.2,15.2,4.3,22.8c1.7-7,3.3-14.1,5-21.1c0.4-1.5,0.2-3.7,2.3-4
	c1.9-0.2,2.3,1.9,2.9,3.2c1.4,2.9,2.7,5.8,4.2,9.2c2.7-4.8,1.7-9.8,2.4-14.4c2.3-15.4,3.9-30.8,5.7-46.3c0.2-1.4,0.7-2.4,2.1-2.6
	c1.7-0.2,2,1.4,2.2,2.5c0.6,3.9,0.6,7.9,1,11.9c1.3,13.4,1.9,26.9,3,40.3c0.8,9.7,1.9,19.5,3.5,29.3c1-6.6,2.4-13.1,2.8-19.7
	c0.5-7.2,2.7-14.1,3-21.3c0-1.3,0.7-2.1,1.9-2.2c1.9-0.1,2.1,1.6,2.5,2.8c1.8,6.5,3.5,13,5.4,19.5c0.3,1.1,0.1,2.8,1.8,2.8
	c1.2,0,1.3-1.6,1.9-2.4c0.5-0.8,0.8-1.6,1.3-2.5c1.2-2.3,2.1-5.7,4.5-5.9c2.7-0.3,3,3.5,4,5.5c1.9,4,5.2,1.7,6.6,0.8
	c3.8-2.4,6.3-1,8.9,1.5c0,1.1,0,2.3,0,3.4c-2.7,2.5-5.2,4.9-9,1.4c-0.6-0.6-2.1-0.4-3.1-0.3c-2.6,0.2-4.5-0.7-5.6-3.1
	c-1.5-3.4-2.8-2.4-4.1,0.2c-1.2,2.5-2.4,5-3.8,7.4c-0.7,1.1-1.6,2.7-3.1,2.4c-1.4-0.3-1.5-2-1.9-3.3c-1.5-5.6-3.1-11.1-4.9-17.2
	c-2.3,3-1.9,6.4-2.4,9.3c-2.1,13.6-3.8,27.2-5.6,40.8c-0.2,1.5-0.3,2.9-2.1,3c-2,0.1-2-2-2.1-3c-0.9-5.4-0.5-11-1.2-16.5
	c-2-17.6-2.3-35.3-4.7-52.9c-0.3-2-0.1-4-0.1-6c0-2.7,0-5.4,0-8.1C105.4,363.1,104.4,366,104.8,369.1z"/>
<path class="st1" d="M160.2,406.1c0-1.1,0-2.3,0-3.4c10.6,0,21.2-0.1,31.8-0.1c2.4,0,4.5-0.5,6.6-1.7c16.5-9.7,32.9-19.5,49.4-29.1
	c2.2-1.3,4.3-3.7,7.5-2.5l0-0.1c0.4,2.2-1.1,2.8-2.7,3.7c-17,10-34,20-51,30c-3.6,2.1-7.3,3.5-11.7,3.4
	C180.2,406,170.2,406.1,160.2,406.1z"/>
<path class="st1" d="M469.7,399.4c0,1,0,1.9,0,2.9c-5.4,0-10.8-0.6-16.1,0c-12.7,1.4-21.5-6-33-13.3c-10.6-6.7-19.3-13.1-29.9-17.9
	c-2.2-1-3.9-2.1-5.3-3.5c0.1-0.6,0.1-0.8,0.2-1.4c2-1.2,3.6,0.2,5.1,1.1c15.9,9.8,31.6,20,47.5,29.6c2.7,1.7,5.3,2.7,8.6,2.6
	C454.3,399.3,462,399.4,469.7,399.4z"/>
<path class="st2" d="M17,403c-0.3-5,2.1-9.8,4.7-14.5c0.6-1,1.5-1.9,2.3-2.8c1.1-1.1,2.5-1.3,3.8-0.5c1.7,1.1,0.7,2.5,0.1,3.6
	c-2.5,4.9-5.1,9.7-5.4,15.5c-0.3,6,1.5,11.4,4.5,16.5c1.1,1.8,3.2,4.1,0,5.8c-2.9,1.6-4.1-1.1-5.3-3C17.9,417.5,16.2,410.9,17,403z"
	/>
<path class="st1" d="M449.5,243.1c0,1.1,0,2.3,0,3.4c-19,12.1-37.9,24.3-56.9,36.4c-1.1,0.7-1.9,1.6-3.2,0.6
	c-0.2-0.2-0.2-0.4-0.1-0.6c0-1.5,0.9-2.4,2.2-3.2c18.4-11.7,36.8-23.5,55.1-35.3C447.5,244,448.5,243.6,449.5,243.1z"/>
<path class="st2" d="M27.1,406.1c1.5-4,1-8.8,4.4-12.3c1-1,2-2.2,3.6-1.3c1.5,0.8,1.7,2.3,1.1,3.6c-3.2,6.3-3.5,12.6,0,18.9
	c0.7,1.2,0.4,2.8-1.2,3.5c-1.6,0.7-3,0.1-4.1-1.2C28.1,414.2,28.5,409.9,27.1,406.1z"/>
<path class="st2" d="M322.4,75.9c9.4,0,18.8,0.1,28.1-0.1c3.6-0.1,4.8,1.2,4.8,4.8c0,10.9,0.1,10.9-10.6,10.9
	c-16.9,0-33.8-0.1-50.8,0.1c-4,0-5.4-1.2-5.3-5.3c0.3-12.2-1.4-10.4,10.6-10.5C307.1,75.8,314.7,75.9,322.4,75.9z"/>
<path class="st2" d="M288.8,112.9c0-4.5,0.1-8.9,0-13.4c-0.1-3.2,1.3-4.4,4.4-4.3c5.4,0.1,10.8,0.1,16.1,0c3-0.1,4.5,0.9,4.5,4.2
	c-0.1,8.9-0.1,17.8,0,26.8c0,3.2-1.3,4.4-4.4,4.3c-5.4-0.1-10.8-0.2-16.1,0c-3.5,0.1-4.6-1.3-4.5-4.7
	C288.9,121.5,288.8,117.2,288.8,112.9z"/>
<path class="st1" d="M336.8,102.8c4.9,0,9.9,0,14.8,0c1.6,0,3.8-0.5,3.6,2.2c-0.1,2-1.7,2.3-3.3,2.3c-10.3,0-20.6,0-31,0
	c-1.7,0-3.3-0.3-3.2-2.3c0.1-2.1,1.8-2.2,3.4-2.2C326.4,102.8,331.6,102.8,336.8,102.8z"/>
<path class="st1" d="M336.4,123c-4.9,0-9.9,0-14.8,0c-1.7,0-3.8,0.2-3.9-2.1c-0.1-2.4,1.9-2.3,3.7-2.4c10.2,0,20.3,0,30.5,0
	c1.5,0,3.4-0.4,3.4,2c0,2.3-1.8,2.5-3.6,2.5C346.6,123,341.5,123,336.4,123z"/>
<path class="st2" d="M336.3,99.1c-5.1,0-10.2,0-15.2,0c-1.4,0-3.1,0.1-3.1-1.9c0-1.9,1.7-1.9,3.1-1.9c10.5,0,20.9,0,31.4,0
	c1.4,0,3,0,2.8,2.1c-0.1,1.7-1.6,1.6-2.8,1.6C347,99.1,341.6,99.1,336.3,99.1z"/>
<path class="st2" d="M336.8,111c5.2,0,10.4,0,15.6,0c1.2,0,2.7-0.1,2.7,1.7c0,1.6-1.2,2-2.6,2c-10.7,0-21.5,0-32.2,0
	c-1.3,0-2.6-0.4-2.5-2c0.2-1.6,1.6-1.7,2.8-1.7C326.1,111,331.5,111,336.8,111z"/>
<path class="st2" d="M336.4,130.5c-5.1,0-10.1,0-15.2,0c-1.4,0-3.1,0.2-3.3-1.7c-0.2-1.9,1.5-2,2.9-2c10.6,0,21.2,0,31.8,0
	c1.2,0,2.7-0.1,2.6,1.8c-0.1,1.5-1.3,1.9-2.7,1.9C347.1,130.5,341.7,130.4,336.4,130.5C336.4,130.4,336.4,130.5,336.4,130.5z"/>
<path class="st2" d="M558.5,451.5c-0.4,2.2-1.6,3.7-4,3.5c-2-0.2-3.4-1.5-3.3-3.6c0.1-2.3,1.6-3.7,3.9-3.5
	C557.1,447.9,558.3,449.3,558.5,451.5z"/>
<path class="st2" d="M554.9,469.8c2.3,0.6,3.8,1.8,3.5,4.2c-0.3,2-1.7,3.3-3.8,3.2c-2.3-0.2-3.6-1.7-3.4-4
	C551.4,471,553,470.1,554.9,469.8z"/>
<path class="st2" d="M554.8,425.5c2.4,0.5,3.9,1.8,3.6,4.1c-0.2,2-1.6,3.4-3.7,3.2c-2.3-0.2-3.7-1.6-3.4-4
	C551.4,426.7,552.9,425.8,554.8,425.5z"/>
<path class="st2" d="M352.2,550.3c1.8-2.2,3.3-4.1,4.8-6.1c1.4-1.8,2.7-3.6,4.5-6c3.8,11.4,7.5,22.3,11.2,33.1c1.2,3.5-1.4,3-3.3,3
	c-11.1,0-22.2,0-33.3,0c-19.6,0-39.1,0-58.7,0c-4.6,0-4.9-0.6-2.9-4.7c4.3-8.7,12.2-11.3,20.9-12c5-0.4,10.2-0.8,15.1,0.7
	c3,0.9,4.5-1,5.8-3.2c5.4-8.4,10.9-16.8,16.2-25.2c1.8-2.8,2.8-3.5,5-0.2C342.1,536.6,347.1,543.2,352.2,550.3z"/>
<path class="st2" d="M294.5,542c-6.6,0-11.2-4.4-11.2-10.7c0-6,5-11.3,11-11.5c6.1-0.2,11.3,5.1,11.3,11.4
	C305.5,537.9,301.3,542,294.5,542z"/>
<path class="st3" d="M393,281.1c-10.9,5.6-21.1,12.4-31.6,18.6c-13.2,7.7-26.3,15.6-39.5,23.4c-21.9-13.5-43.9-26.9-65.8-40.4
	c-1-0.6-2.2-1.2-2.7-2.4c22.6-14.2,45.2-28.4,67.8-42.7c0.3,0,0.6,0,1,0c23.7,14.3,47.4,28.6,71.1,42.9c-0.2,0.5-0.2,0.5,0,0
	L393,281.1z"/>
<path class="st4" d="M322.9,413.3c-1.6-1.4-0.8-3.2-0.8-4.8c-0.1-26.6,0-53.3,0-79.9c0-1.8-0.1-3.7-0.2-5.5
	c13.2-7.8,26.3-15.7,39.5-23.4c10.6-6.2,20.7-13,31.6-18.6c0.1,8.7,0.2,17.5,0.3,26.2c0,21.2,0,42.4-0.1,63.6
	c-0.3,0.2-0.6,0.5-0.9,0.7C369.1,385.4,345.8,398.9,322.9,413.3z"/>
</svg>
