<svg id="Camada_1" xmlns="http://www.w3.org/2000/svg" viewBox="0 0 640 640"><style>.st0{fill:#0e244a}.st1{fill:#f0c841}.st2{fill:#1c7cd6}.st3{fill:#fff}</style><path class="st0" d="M8 441c61.8 0 123.6.1 185.5-.1 4.9 0 6.4.9 6.4 6.2-.3 45.2-.2 90.3 0 135.5 0 4.7-1 6.1-5.9 6.1-60.2-.2-120.3-.1-180.5-.1-1.8 0-3.6.2-5.4.4C8 539.7 8 490.3 8 441zm79 49c-6.6 0-12.1 5.5-12 12.1 0 6.4 5.3 11.8 11.7 11.9 6.6.2 12.2-5.2 12.3-11.8.1-6.6-5.3-12.1-12-12.2zm33 24c6.6 0 12-5.5 12-12.1-.1-6.6-5.6-12-12.2-11.9-6.4.1-11.7 5.5-11.7 11.9-.1 6.6 5.3 12.1 11.9 12.1zM634 589c-1.8-.1-3.6-.4-5.4-.4-60.1 0-120.2-.1-180.4.1-4.8 0-6.1-1.1-6-6 .3-28.6.2-57.3 0-85.9 0-4.5 1.2-5.5 5.6-5.5 60.1.1 120.2.1 180.4.1 2 0 3.9-.3 5.9-.4-.1 32.7-.1 65.3-.1 98zm-129.1-40c6.6.1 12.1-5.4 12.1-12s-5.5-12-12.1-12c-6.4.1-11.7 5.4-11.8 11.8-.2 6.6 5.2 12.1 11.8 12.2zm45.1-12.2c-.1-6.6-5.7-11.9-12.3-11.8-6.4.1-11.6 5.5-11.7 11.9 0 6.6 5.5 12.1 12 12 6.7.1 12.1-5.5 12-12.1zm33 .3c.1-6.6-5.3-12.1-12-12.1-6.4 0-11.8 5.2-12 11.6-.2 6.6 5.2 12.2 11.7 12.4 6.7.1 12.2-5.3 12.3-11.9zM425.3 484c0 33.2-.1 66.3.1 99.5 0 4.1-1 5.2-5.2 5.2-66-.1-132-.1-198 0-4.2 0-5.6-.8-5.6-5.4.2-66 .2-132 0-198 0-4.4 1.1-5.5 5.5-5.5 66 .2 132 .1 198 0 4.1 0 5.3.9 5.3 5.1-.2 33.1-.1 66.1-.1 99.1zm-104.6-45c-2.6 11-9.2 15.6-20 14.8 1.1 1.6 2 2.5 3 3.2 6.7 4.2 7.5 10.2 5.1 17.1-.3.8-1.5 1.7-.4 2.6.9.9 2 .2 2.7-.4 7-6.2 13.7-4.2 20.4.7.3.2.9.1 2.3.3-5-9.9-1.9-17.4 7-23.4-11.3.9-17.3-4.5-20.1-14.9z"/><path class="st1" d="M254.1 252.6c-4.5-4.7-9-7.8-14.2-10.2-7.7-3.5-15-7.8-22.3-12-19.2-11.1-27.3-42.2-19.4-61.4 5.4-12.9 14.4-22.4 27.3-27.7 5.3-2.2 7-5.1 6.7-10.5-.5-8.7-.1-10.1 8.3-8.8 24.9 3.8 133.8 4.1 158.5 0 7.4 0 8.7 1 7.8 8.5-.7 6.1 1.5 8.8 7 11.2 24.5 10.6 35.1 36.9 27 62.3-5.6 17.6-18.4 27-33.6 34.6-7.7 3.8-16 6.6-22.3 14 3.5.1 6.2 1.5 7.9 4.2 1.7 2.7 1.7 5.8 1.1 8.7-1 5.3-8.8 9.7-15.1 8.8-6.6-1-11.5-4.5-14.1-10.5-1.6-3.7-2.5-3.3-4.8-.4-6.3 8.2-13.2 15.9-22.2 21.3-3.3 2-4.7 5-4.7 8.8.1 8.5.2 17-.1 25.5-.1 3.8 1.5 5.1 4.9 5.1h13c8.6 0 13.1 4.4 13.1 12.7 0 8.2-4.5 13-13 13.1-18.5.1-37 .1-55.5 0-4.3 0-8.6.6-12.9-.8-6-1.9-8.6-7-7.6-15.4.6-5.6 4.6-9.4 10.3-9.6 5.2-.2 10.3 0 15.5-.1 3.4 0 4.9-1.3 4.7-5.2-.4-8.5-.2-17-.1-25.5.1-3.9-1.3-6.8-4.6-8.8-9.1-5.4-15.9-13-22.2-21.3-2.5-3.2-3.1-2.6-4.7.6-5.2 10.7-18.2 13.9-26.2 6.5-3.1-2.9-4.4-6.5-3-10.8 1.5-4.3 4.2-6.7 9.5-6.9zm125.8-22.8c10.5-4.9 19.7-9 28.7-13.6 24.9-12.8 20.8-43.3.8-55.7-4.7-2.9-6.3-2.3-7.6 3.1-3.5 14.2-7.2 28.3-12.5 42-2.9 7.6-5.8 15.1-9.4 24.2zm-122.6-.4c.3-.3.6-.7.8-1-.3-.7-.5-1.5-.8-2.2-4.8-11.3-9.3-22.7-12.9-34.4-2.9-9.4-5.6-18.7-7.5-28.3-.6-2.8-1.8-5.9-5.7-3.9-17.6 8.8-24.8 33.4-11.5 48.7 9.9 11.4 25.2 13.6 37.6 21.1z"/><g><path class="st2" d="M235.2 398.8h-3.4c-.4 0-.9.1-1.3.1-.1 0-.3.1-.3.2-.6 1.4-1.2 2.7-1.8 4.1 0 .1.1.2.1.5-.9-.4-1.7-.8-2.5-1.1-.8-.3-1.6-.7-2.4-.9-.2-.1-.5.1-.7.2-1.2 1.1-2.3 2.3-3.6 3.6-.3-.4-.6-.7-1-1.1-.3-.3-.7-.5-1-.8-.2-.2-.3-.5-.5-.7-.6-.9-1.5-1.1-2.6-.5-.9.4-1.9.9-2.8 1.4-.3.1-.6.2-.6-.3 0-.4-.2-.7-.4-1-.4-.9-.9-1.7-1.3-2.6-.5-1.1-.5-1-1.7-.9-.4 0-.9-.1-1.4-.1-.6 0-1.3.1-1.9.1-.5 0-.7-.2-.7-.7v-3.1c0-1.2-.5-1.8-1.6-2-.3-.1-.7-.2-1-.3-.5-.2-.9-.4-1.4-.4-.6-.1-.7-.4-.5-.9l1.2-3.3c.1-.2.1-.4.3-.5.4-.5.3-.8-.1-1.2-.4-.3-.7-.7-1.1-1.1-.7-.7-1.5-1.3-2.2-2.1-.1-.1 0-.5.1-.7.8-.9 1.7-1.7 2.5-2.5s.9-1.2.2-2.2c-.2-.3-.3-.7-.4-1-.2-.4-.4-.8-.7-1.2-.3-.4-.4-.8.2-1.1 1-.5 2.1-1 3.2-1.4.2-.1.4-.2.6-.2.8-.2.9-.7.9-1.4-.1-.6 0-1.2 0-1.8 0-.6-.1-1.3-.1-1.9 0-.5.1-.7.6-.7 1.2.1 2.5.1 3.7.1.7 0 1-.2 1.2-.8.4-1.2.9-2.3 1.4-3.4.1-.1.1-.3.2-.6.6.3 1.3.5 1.9.8l2.1.9c.5.2 1 .2 1.4-.3.9-1 1.9-2 2.9-2.9.3-.3.6-.6 1 .1.2.3.6.5.9.8.1.1.3.2.4.4.1.2.2.4.4.6.5.5 1 .9 1.6 1.5.8-.4 1.7-.9 2.7-1.3.5-.2 1.1-.5 1.6-.5.3 0 .7.5.9.8.6 1.3 1 2.6 1.6 3.9h3.2c.7 0 1.3.1 2 .1.1 0 .4.3.4.5 0 1.3 0 2.5-.1 3.8 0 .6.1.9.8 1 .5.1.9.4 1.4.6.7.3 1.4.6 2.1.8.7.2.5.6.4 1-.4 1-.9 2-1.4 3-.2.4-.3.7-.5 1.2 1.3 1.3 2.6 2.6 3.9 4-1.3 1.2-2.4 2.3-3.6 3.4.5 1.1 1 2.1 1.5 3.1.2.4.3.9.4 1.4 0 .1-.2.4-.4.5-1.4.7-2.7 1.3-4.1 2-.1.1-.3.2-.3.3v3c-.4.3-.5 1-.5 1.7zm-14.9 0c4.4-.4 8.3-2.1 11.2-5.5 2.8-3.3 4.2-7.3 3.7-11.7-.4-4.6-2.6-8.4-6.2-11.2-3.3-2.5-7.2-3.5-11.3-3.1-3.5.3-6.5 1.7-9.1 4.2-4.7 4.6-6.1 10-4.3 16.3 1.1 3.6 3.3 6.4 6.4 8.5 2.8 1.8 6.1 2.7 9.6 2.5z"/><path class="st2" d="M209.3 407.7c1.7-.7 3.3-1.4 4.9-2.1l.6-.3c.4-.3.5 0 .7.3.3.4.6.7 1 1 .4.3.8 1 .6 1.5-.6 1.6-1.1 3.2-1.7 4.8-.6 1.6-1.1 3.2-1.7 4.8-.5 1.5-1 2.9-1.5 4.4l-1.5 4.2c-.5 1.5-1.1 3.1-1.6 4.6-.3 1-.6 1.9-.9 2.9h-.3c-.2-.3-.3-.6-.5-.9-.3-.4-.6-.7-.9-1.1-.2-.3-.2-.6-.4-.9-.7-.9-1.4-1.8-2-2.7-.3-.4-.5-.8-.7-1.2-.2-.4-.5-.5-1-.4-1.3.4-2.6.8-3.9 1.1-1 .3-2 .5-3 .8-.4.1-.9.3-1.4.5.2-.6.4-1.1.5-1.6.6-1.8 1.3-3.6 1.9-5.4.5-1.5 1-3 1.6-4.6.5-1.6 1.1-3.1 1.6-4.7.5-1.4 1.1-2.8 1.6-4.3l1.5-4.5c.2-.5.3-1 .4-1.6.2-.7.6-.8 1.2-.8.7.1 1.5 0 2.2 0 .3 0 .6-.1.5.4 0 .2.1.4.2.6.5 1 1 2 1.4 3 .3 1 .4 1.6.6 2.2zM244.3 428.1c-1.1-.2-2.1-.5-3.2-.7l-3.3-.6c-.4-.1-.7-.3-1.1-.4-1.1-.3-1.3-.2-1.9.8-1.2 2.1-2.4 4.2-3.6 6.2-.1.2-.3.4-.5.6-.5-1.2-.9-2.3-1.4-3.4-.4-1-.9-1.9-1.3-2.9-.2-.5-.4-1-.6-1.6-.5-1.3-1-2.5-1.5-3.8-.4-1-1-1.9-1.4-2.9-.4-1.1-.8-2.2-1.2-3.2-.4-1-.9-1.9-1.4-2.9-.2-.4-.2-.8-.4-1.2-.4-1-.9-2-1.3-3-.1-.2 0-.5.1-.7 1-1.1 2.1-2.1 3.1-3.1.2-.2.6-.1.9 0 .5.1 1 .3 1.5.6.4.2.7.4 1 .5.8.3 1.5.6 2.3.9.5.2.6.1.8-.4.3-1 .7-2 1.1-2.9.2-.6.5-1.3.9-1.8.3-.3.9-.3 1.4-.5 3.7 8.8 7.3 17.4 10.9 26.1.2.2.2.2.1.3z"/><path class="st3" d="M220.3 398.8c-3.5.3-6.8-.7-9.6-2.6-3.1-2-5.3-4.8-6.4-8.5-1.8-6.3-.4-11.7 4.3-16.3 2.6-2.5 5.6-3.9 9.1-4.2 4.1-.4 8 .6 11.3 3.1 3.7 2.8 5.8 6.6 6.2 11.2.4 4.4-.9 8.3-3.7 11.7-3 3.5-6.8 5.2-11.2 5.6zm-4.6-28.3c-2.5.9-4.7 2.3-6.5 4.3-1.8 2.1-2.8 4.6-3 7.3-.2 4.8 1.6 8.8 5.6 11.7 2.8 2 6.2 2.7 9.6 2.1 2.3-.4 4.5-1.2 6.3-2.8 3.9-3.5 5.2-7.9 4.3-12.9-.5-3-2.1-5.6-4.5-7.4-3.4-2.5-7.4-3.5-11.8-2.3z"/><path class="st2" d="M215.7 370.5c4.4-1.2 8.4-.3 11.9 2.4 2.3 1.8 3.9 4.4 4.5 7.4.9 5-.4 9.4-4.3 12.9-1.8 1.6-4 2.4-6.3 2.8-3.4.6-6.7-.1-9.6-2.1-4-2.8-5.8-6.9-5.6-11.7.1-2.7 1.2-5.2 3-7.3 1.7-2.1 3.9-3.5 6.4-4.4z"/></g><g><path class="st3" d="M347.9 167.8c-1.3-.6-1.4-.6-1.3-.6 1.5.2 4 1.8 4.9 2.8 2.5 2.8 3.6 6.2 3.9 9.8.3 5.6 0 11.3-.8 16.9-.4 2.6-1 5.3-2 7.8-1.6 3.8-4.3 6.3-8.7 6.9-3.3.5-6.5.9-9.8 1-10.5.4-20.9-.1-31.4-.2-4.4 0-8.8-.2-13.3-.2h-1c.2-4.1.4-8.1.6-12.2h.9c11.7.2 23.5.5 35.2.6 2.8 0 5.7-.2 8.6-.3.6 0 1.1-.2 1.6-.2 2-.3 3.1-1.5 3.6-3.2.4-1.2.6-2.5.7-3.7.2-2.9.3-5.9.4-8.8 0-.8-.2-1.6-.4-2.3-.6-2.2-2.1-3.6-4.6-3.7-3.2-.2-6.3-.5-9.5-.6-6.3-.2-12.5-.2-18.8-.4h-.9c.2-4 .4-7.9.6-11.9h.8c5.9.1 11.9.1 17.8.4 5.7.2 11.5.6 17.2.9 1.5.1 3 .4 4.4.7.5 0 .9.3 1.3.5"/><path class="st3" d="M290.1 181.2c.3-5.2.6-10.3.8-15.4 0-.7.2-.8.9-.8 3.7.1 7.4.2 11.2.2.6 0 .8.2.8.8-.6 10.3-1.1 20.7-1.6 31 0 .6-.3.8-.9.8-3.7-.1-7.5-.2-11.2-.2-.6 0-.8-.2-.8-.8.2-5.2.5-10.4.8-15.6zM320.7 197.5c-2.1 0-4.3-.1-6.4-.1.3-5.2.6-10.4.8-15.6 2.1 0 4.2.1 6.4.1-.3 5.2-.5 10.3-.8 15.6zM305.1 185.7c2.2 0 4.3.1 6.4.1-.2 3.8-.4 7.6-.6 11.5-2.1 0-4.3-.1-6.4-.1.2-3.8.4-7.6.6-11.5z"/></g></svg>