<svg id="Camada_1" xmlns="http://www.w3.org/2000/svg" viewBox="0 0 960 560"><style>.st0{fill:#fff}</style><path class="st0" d="M618.1 61.9c-7.4-3.5-8-3.6-7.4-3.5 8.3 1 22.9 10.6 28.2 16.4 15.2 16.6 22.4 36.5 24.7 58.6 3.4 33.8 3.4 67.5.6 101.3-1.3 15.9-3.9 31.6-8.9 46.8-7.6 23-22.5 38.2-46.8 42.3-18.2 3.1-36.6 5.8-55 6.9-59 3.7-118 1.6-177.1 2-25 .2-49.9 0-74.9 0h-5.4v-73.2h5.2c66.1 0 132.3.2 198.4-.1 16-.1 32.1-1.6 48.1-2.7 3.1-.2 6.1-1.1 9.1-1.6 10.9-2 16.9-9.2 19.3-19.3 1.7-7.3 2.8-15 3-22.5.3-17.6-.1-35.2-.6-52.8-.1-4.7-1.5-9.4-2.9-13.9-4.2-13.3-12.7-21.4-27.3-21.9-17.8-.7-35.7-2.2-53.5-2.4-35.3-.4-70.5-.1-105.8-.1h-4.9V50.6h4.3c33.5 0 66.9-.4 100.4.3 32.4.6 64.7 2.2 97.1 3.8 8.4.4 16.8 2.2 25.1 3.7 2.4.5 4.7 2.3 7 3.5"/><path class="st0" d="M296.2 148.4c0-30.9.1-61.7-.1-92.6 0-4 1.1-4.9 5-4.9 21 .2 41.9.2 62.9 0 3.6 0 4.5 1.1 4.5 4.6-.1 62-.1 124 0 186 0 3.6-1.2 4.6-4.6 4.6-21.1-.1-42.2-.1-63.3 0-3.6 0-4.5-1.2-4.5-4.6.2-31.1.1-62.1.1-93.1zM529.7 406.7c14.2.4 26.8.1 39.3 1.4 20.5 2.1 28 9.8 29.2 30.3.8 14.1.6 28.3-.3 42.4-1.2 17.7-10.4 27-28.2 27.5-25.8.8-51.7.8-77.5 0-17.4-.5-27.1-9.9-28.2-27.2-1-15.6-.8-31.4.3-47 1.2-16.3 10.1-24.5 26.4-25.8 13.5-1.1 27.1-1.1 39-1.6zm1.8 78.1c7.5-.5 15.5-.7 23.3-1.7 8.1-1.1 11.7-5.1 12.3-13.4.5-7.3.6-14.7.2-21.9-.6-9.6-4.8-14.1-14.5-14.8-11.8-.8-23.6-.8-35.4-.8-3.8 0-7.7.7-11.4 1.4-6.6 1.1-10.3 5.4-10.8 11.8-.6 7.8-.9 15.7-.4 23.5.7 9.5 4.1 13.1 13.5 14.4 7.5 1 15.2 1 23.2 1.5zM119.3 507.6c-16.1 0-32.2-.1-48.2.1-3.3 0-4.4-.9-4.4-4.3.1-30.2.1-60.4 0-90.7 0-3.1.8-4.2 4.1-4.2 28.2.1 56.3-.2 84.5.2 7.8.1 15.9 1.6 23.4 3.8 11.4 3.4 18 12.7 18.2 24.6.3 14.8.3 29.6 0 44.4-.3 14-8.9 23.3-22.8 25.3-3.7.5-7.4.8-11.1.8-14.6.1-29.1 0-43.7 0zm-22.8-75c0 16.9 0 33 .1 49.2 0 .8 1.7 2.2 2.5 2.2 17.6.1 35.2.3 52.8 0 10.2-.2 15.3-6.1 15.4-16.4v-18.1c0-8.6-4.3-14.1-12.7-16-2.7-.6-5.6-.9-8.4-.9-13.5-.1-27-.1-40.5-.1-2.8.1-5.8.1-9.2.1zM713.3 469.4c9.7 0 19.2 0 28.7.1.7 0 2.1 1.3 2 2-.5 7-.6 14.1-2.2 20.9-1.8 7.2-7.3 12-14.5 13.7-6.9 1.7-14.1 2.9-21.3 3.1-17.7.4-35.5.1-53.2 0-3.8 0-7.7-.6-11.5-1.3-13.9-2.6-23.2-11-24.4-25.1-1.2-16-1.4-32.2.1-48.1 1.5-16.7 10.8-24.4 28.6-26.3 7.9-.9 15.9-1.1 23.9-1.1 16.3.1 32.7 0 48.9 1.1 15.5 1 22.5 8.5 24.3 23.9.5 3.9.1 7.9.1 12.3h-30c-2.1-9.6-5.3-12.3-15.1-12.3-12.3 0-24.7 0-37 .8-9.3.6-12.7 4.5-13.2 13.8-.4 7.6-.4 15.2 0 22.7.4 8.3 4 13.1 12.4 13.7 13.9.9 28 1 41.9.2 8.6-.6 10.5-3.8 11.5-14.1zM349.7 508.1c-10.9 0-21.3.1-31.7-.1-1 0-2.2-1.1-2.8-2.1-2.4-3.8-4.7-7.7-6.8-11.7-1.1-2.1-2.5-2.8-4.9-2.7-18.1.1-36.3.1-54.4 0-2.4 0-3.7.8-4.8 2.8-2.1 4-4.4 7.9-6.8 11.6-.6 1-2.1 2-3.2 2-10.1.2-20.3.1-31.2.1.8-1.7 1.4-2.9 2-4 16.7-30.6 33.4-61.1 50-91.7 1.7-3.1 3.5-4.3 7.1-4.2 10.4.3 20.8.1 31.3.1 1.9 0 3.2.2 4.3 2.2 17 31.8 34.1 63.6 51.1 95.4.3.6.4 1 .8 2.3zm-53.9-40.7c-6.5-11.8-12.7-23.1-19.3-35-6.5 12.1-12.5 23.3-18.8 35h38.1zM895.5 508.1c-11 0-21.2.1-31.5-.1-1.1 0-2.5-1.2-3.1-2.2-2.5-3.9-4.6-8-7.1-11.9-.7-1.1-2.5-2.2-3.8-2.2-18.5-.1-37.1-.1-55.6 0-1.3 0-3.1 1.1-3.8 2.2-2.6 3.8-4.7 8-7.1 11.9-.6 1-2 2.2-3.1 2.2-9.9.1-19.8.1-29.7 0-.3 0-.7-.2-1.4-.5.7-1.4 1.4-2.8 2.1-4.1 16.6-30.4 33.3-60.9 49.8-91.4 1.6-2.9 3.2-3.9 6.5-3.9 10.5.2 21.1 0 31.6.2 1.4 0 3.5 1.1 4.1 2.3 17.1 31.6 34.1 63.4 51.1 95.1.2.5.4 1.1 1 2.4zm-54-40.6c-6.5-11.9-12.7-23.2-19.3-35.1-6.5 12-12.5 23.4-18.8 35.1h38.1zM452.1 408.5v24.4h-41.7v75h-30.1v-75h-41.8v-24.4h113.6zM473.4 242.5h-36.1v-93.6h36.1v93.6zM382.2 173.8h36.3v68.7h-36.3v-68.7z"/></svg>