<?xml version="1.0" encoding="utf-8"?>
<svg version="1.1" id="Camada_1" xmlns="http://www.w3.org/2000/svg" xmlns:xlink="http://www.w3.org/1999/xlink" x="0px" y="0px"
	 viewBox="0 0 960 560" style="enable-background:new 0 0 960 560;" xml:space="preserve">
<g>
	<path d="M636.4,53.8c-7.9-3.7-8.5-3.8-7.9-3.7c8.8,1.1,24.3,11.3,29.9,17.4c16.2,17.6,23.8,38.6,26.1,62.1
		c3.6,35.8,3.6,71.6,0.6,107.4c-1.4,16.9-4.1,33.5-9.5,49.7c-8.1,24.4-23.9,40.5-49.6,44.8c-19.3,3.3-38.8,6.1-58.3,7.3
		c-62.5,3.9-125.2,1.7-187.8,2.2c-26.5,0.2-52.9,0-79.4,0c-1.8,0-3.5,0-5.7,0c0-25.8,0-51.3,0-77.6c1.8,0,3.7,0,5.5,0
		c70.1,0,140.2,0.2,210.4-0.1c17-0.1,34-1.7,51-2.8c3.2-0.2,6.4-1.1,9.6-1.7c11.5-2.1,17.9-9.8,20.5-20.5c1.8-7.8,3-15.9,3.1-23.9
		c0.3-18.7-0.1-37.4-0.6-56c-0.1-4.9-1.5-10-3-14.7c-4.4-14.1-13.5-22.6-29-23.2c-18.9-0.7-37.8-2.3-56.8-2.5
		c-37.4-0.4-74.8-0.1-112.1-0.1c-1.6,0-3.2,0-5.2,0c0-25.6,0-50.5,0-75.9c1.6,0,3.1,0,4.5,0c35.5,0.1,70.9-0.4,106.4,0.3
		c34.3,0.7,68.6,2.3,102.9,4c8.9,0.4,17.8,2.3,26.7,3.9C631.5,50.6,633.9,52.5,636.4,53.8"/>
	<path d="M295.1,145.5c0-32.7,0.1-65.5-0.1-98.2c0-4.2,1.2-5.2,5.3-5.2c22.2,0.2,44.5,0.2,66.7,0c3.9,0,4.8,1.2,4.8,4.9
		c-0.1,65.7-0.1,131.5,0,197.2c0,3.8-1.2,4.8-4.9,4.8c-22.4-0.1-44.7-0.2-67.1,0c-3.8,0-4.8-1.3-4.8-4.9
		C295.2,211.2,295.1,178.3,295.1,145.5z"/>
	<path d="M542.6,419.4c15,0.5,28.5,0.1,41.7,1.5c21.7,2.2,29.7,10.3,31,32.1c0.9,14.9,0.7,30-0.4,44.9
		c-1.3,18.7-11.1,28.6-29.9,29.2c-27.4,0.8-54.8,0.8-82.2,0c-18.5-0.5-28.7-10.5-29.9-28.8c-1-16.6-0.9-33.3,0.4-49.8
		c1.3-17.3,10.7-26,28-27.4C515.6,419.9,530,419.9,542.6,419.4z M544.5,502.2c7.9-0.6,16.4-0.7,24.7-1.9c8.6-1.2,12.4-5.4,13.1-14.2
		c0.6-7.7,0.7-15.5,0.2-23.3c-0.6-10.2-5.1-14.9-15.4-15.6c-12.5-0.8-25-0.8-37.6-0.9c-4,0-8.1,0.8-12.1,1.5
		c-7,1.2-10.9,5.7-11.4,12.5c-0.6,8.3-1,16.6-0.4,24.9c0.7,10,4.3,13.8,14.3,15.3C527.9,501.6,536,501.6,544.5,502.2z"/>
	<path d="M107.5,526.3c-17,0-34.1-0.1-51.1,0.1c-3.5,0-4.7-0.9-4.7-4.6c0.1-32,0.1-64.1,0-96.1c0-3.3,0.8-4.5,4.3-4.5
		c29.9,0.1,59.7-0.2,89.6,0.3c8.3,0.1,16.8,1.6,24.8,4c12.1,3.6,19,13.5,19.3,26.1c0.3,15.7,0.3,31.4,0,47
		c-0.3,14.9-9.5,24.7-24.2,26.8c-3.9,0.6-7.9,0.8-11.8,0.9C138.3,526.4,122.9,526.3,107.5,526.3z M83.3,446.8c0,17.9,0,35,0.1,52.2
		c0,0.8,1.8,2.4,2.7,2.4c18.7,0.1,37.4,0.3,56,0c10.8-0.2,16.3-6.5,16.3-17.3c0-6.4,0-12.8,0-19.2c0-9.2-4.5-14.9-13.4-16.9
		c-2.9-0.6-5.9-1-8.9-1c-14.3-0.1-28.6-0.1-42.9-0.1C90.1,446.8,87,446.8,83.3,446.8z"/>
	<path d="M737.3,485.8c10.3,0,20.4,0,30.4,0.1c0.8,0,2.2,1.4,2.2,2.1c-0.6,7.4-0.6,15-2.3,22.2c-1.9,7.6-7.8,12.7-15.3,14.5
		c-7.4,1.8-15,3.1-22.5,3.3c-18.8,0.4-37.6,0.1-56.4,0c-4.1,0-8.2-0.6-12.2-1.4c-14.7-2.7-24.7-11.7-25.8-26.6
		c-1.3-16.9-1.5-34.1,0.1-51c1.6-17.7,11.5-25.8,30.3-27.9c8.4-0.9,16.9-1.2,25.3-1.2c17.3,0.1,34.6,0,51.9,1.1
		c16.4,1.1,23.8,9.1,25.7,25.3c0.5,4.1,0.1,8.4,0.1,13c-5.4,0-10.7,0-16,0c-5.3,0-10.6,0-15.8,0c-2.3-10.2-5.6-13.1-16-13
		c-13.1,0-26.2,0-39.2,0.8c-9.9,0.6-13.5,4.7-14,14.7c-0.4,8-0.4,16.1,0,24.1c0.4,8.8,4.3,13.9,13.1,14.5c14.8,0.9,29.7,1,44.4,0.2
		C734.2,500.1,736.2,496.7,737.3,485.8z"/>
	<path d="M351.8,526.8c-11.5,0-22.6,0.1-33.6-0.1c-1,0-2.3-1.2-3-2.2c-2.5-4-5-8.1-7.2-12.4c-1.2-2.3-2.7-2.9-5.2-2.9
		c-19.2,0.1-38.5,0.1-57.7,0c-2.6,0-3.9,0.9-5.1,3c-2.3,4.2-4.7,8.3-7.2,12.3c-0.7,1.1-2.2,2.2-3.4,2.2c-10.8,0.2-21.5,0.1-33.1,0.1
		c0.9-1.8,1.5-3,2.2-4.3c17.7-32.4,35.4-64.8,53-97.2c1.8-3.3,3.7-4.6,7.5-4.5c11,0.3,22.1,0.1,33.1,0.1c2,0,3.4,0.2,4.6,2.4
		c18,33.8,36.1,67.5,54.2,101.2C351.2,525,351.3,525.5,351.8,526.8z M294.6,483.7c-6.9-12.6-13.5-24.5-20.4-37.1
		c-6.9,12.8-13.3,24.7-19.9,37.1C267.9,483.7,280.8,483.7,294.6,483.7z"/>
	<path d="M930.5,526.8c-11.6,0-22.5,0.1-33.4-0.1c-1.1,0-2.6-1.3-3.3-2.3c-2.6-4.1-4.9-8.5-7.6-12.6c-0.8-1.2-2.7-2.3-4-2.4
		c-19.6-0.2-39.3-0.2-58.9,0c-1.4,0-3.3,1.2-4.1,2.4c-2.7,4.1-4.9,8.5-7.6,12.6c-0.7,1.1-2.2,2.3-3.3,2.3c-10.5,0.2-21,0.1-31.5,0
		c-0.4,0-0.7-0.3-1.5-0.5c0.8-1.5,1.5-2.9,2.2-4.3c17.6-32.3,35.3-64.5,52.8-96.9c1.6-3,3.4-4.2,6.9-4.1c11.2,0.3,22.4,0,33.6,0.2
		c1.5,0,3.7,1.1,4.4,2.4c18.2,33.5,36.2,67.2,54.2,100.8C929.7,524.9,929.9,525.5,930.5,526.8z M873.2,483.7
		c-6.9-12.6-13.5-24.6-20.4-37.2c-6.8,12.8-13.3,24.8-20,37.2C846.5,483.7,859.4,483.7,873.2,483.7z"/>
	<path d="M460.3,421.2c0,8.6,0,17,0,25.9c-14.7,0-29.3,0-44.2,0c0,26.7,0,53,0,79.5c-10.7,0-21.1,0-32,0c0-26.3,0-52.7,0-79.5
		c-15.1,0-29.6,0-44.4,0c0-8.8,0-17.2,0-25.9C380,421.2,420.1,421.2,460.3,421.2z"/>
	<path d="M482.9,245.3c-12.8,0-25.4,0-38.3,0c0-33.2,0-66.1,0-99.2c12.8,0,25.4,0,38.3,0C482.9,179,482.9,211.9,482.9,245.3z"/>
	<path d="M386.2,172.5c12.9,0,25.5,0,38.5,0c0,24.2,0,48.4,0,72.8c-12.7,0-25.5,0-38.5,0C386.2,221,386.2,197,386.2,172.5z"/>
</g>
</svg>
