<?xml version="1.0" encoding="utf-8"?>
<svg version="1.1" id="Camada_1" xmlns="http://www.w3.org/2000/svg" xmlns:xlink="http://www.w3.org/1999/xlink" x="0px" y="0px"
	 viewBox="0 0 960 560" style="enable-background:new 0 0 960 560;" xml:space="preserve">
<style type="text/css">
	.st0{fill:#FFFFFF;}
</style>
<g>
	<path class="st0" d="M618.1,61.9c-7.4-3.5-8-3.6-7.4-3.5c8.3,1,22.9,10.6,28.2,16.4c15.2,16.6,22.4,36.5,24.7,58.6
		c3.4,33.8,3.4,67.5,0.6,101.3c-1.3,15.9-3.9,31.6-8.9,46.8c-7.6,23-22.5,38.2-46.8,42.3c-18.2,3.1-36.6,5.8-55,6.9
		c-59,3.7-118,1.6-177.1,2c-25,0.2-49.9,0-74.9,0c-1.7,0-3.3,0-5.4,0c0-24.3,0-48.4,0-73.2c1.7,0,3.5,0,5.2,0
		c66.1,0,132.3,0.2,198.4-0.1c16-0.1,32.1-1.6,48.1-2.7c3.1-0.2,6.1-1.1,9.1-1.6c10.9-2,16.9-9.2,19.3-19.3c1.7-7.3,2.8-15,3-22.5
		c0.3-17.6-0.1-35.2-0.6-52.8c-0.1-4.7-1.5-9.4-2.9-13.9c-4.2-13.3-12.7-21.4-27.3-21.9c-17.8-0.7-35.7-2.2-53.5-2.4
		c-35.3-0.4-70.5-0.1-105.8-0.1c-1.5,0-3,0-4.9,0c0-24.1,0-47.6,0-71.6c1.5,0,2.9,0,4.3,0c33.5,0,66.9-0.4,100.4,0.3
		c32.4,0.6,64.7,2.2,97.1,3.8c8.4,0.4,16.8,2.2,25.1,3.7C613.5,58.9,615.8,60.7,618.1,61.9"/>
	<path class="st0" d="M296.2,148.4c0-30.9,0.1-61.7-0.1-92.6c0-4,1.1-4.9,5-4.9c21,0.2,41.9,0.2,62.9,0c3.6,0,4.5,1.1,4.5,4.6
		c-0.1,62-0.1,124,0,186c0,3.6-1.2,4.6-4.6,4.6c-21.1-0.1-42.2-0.1-63.3,0c-3.6,0-4.5-1.2-4.5-4.6
		C296.3,210.4,296.2,179.4,296.2,148.4z"/>
	<path class="st0" d="M529.7,406.7c14.2,0.4,26.8,0.1,39.3,1.4c20.5,2.1,28,9.8,29.2,30.3c0.8,14.1,0.6,28.3-0.3,42.4
		c-1.2,17.7-10.4,27-28.2,27.5c-25.8,0.8-51.7,0.8-77.5,0c-17.4-0.5-27.1-9.9-28.2-27.2c-1-15.6-0.8-31.4,0.3-47
		c1.2-16.3,10.1-24.5,26.4-25.8C504.2,407.2,517.8,407.2,529.7,406.7z M531.5,484.8c7.5-0.5,15.5-0.7,23.3-1.7
		c8.1-1.1,11.7-5.1,12.3-13.4c0.5-7.3,0.6-14.7,0.2-21.9c-0.6-9.6-4.8-14.1-14.5-14.8c-11.8-0.8-23.6-0.8-35.4-0.8
		c-3.8,0-7.7,0.7-11.4,1.4c-6.6,1.1-10.3,5.4-10.8,11.8c-0.6,7.8-0.9,15.7-0.4,23.5c0.7,9.5,4.1,13.1,13.5,14.4
		C515.8,484.3,523.5,484.3,531.5,484.8z"/>
	<path class="st0" d="M119.3,507.6c-16.1,0-32.2-0.1-48.2,0.1c-3.3,0-4.4-0.9-4.4-4.3c0.1-30.2,0.1-60.4,0-90.7
		c0-3.1,0.8-4.2,4.1-4.2c28.2,0.1,56.3-0.2,84.5,0.2c7.8,0.1,15.9,1.6,23.4,3.8c11.4,3.4,18,12.7,18.2,24.6
		c0.3,14.8,0.3,29.6,0,44.4c-0.3,14-8.9,23.3-22.8,25.3c-3.7,0.5-7.4,0.8-11.1,0.8C148.4,507.7,133.9,507.6,119.3,507.6z
		 M96.5,432.6c0,16.9,0,33,0.1,49.2c0,0.8,1.7,2.2,2.5,2.2c17.6,0.1,35.2,0.3,52.8,0c10.2-0.2,15.3-6.1,15.4-16.4c0-6,0-12.1,0-18.1
		c0-8.6-4.3-14.1-12.7-16c-2.7-0.6-5.6-0.9-8.4-0.9c-13.5-0.1-27-0.1-40.5-0.1C102.9,432.6,99.9,432.6,96.5,432.6z"/>
	<path class="st0" d="M713.3,469.4c9.7,0,19.2,0,28.7,0.1c0.7,0,2.1,1.3,2,2c-0.5,7-0.6,14.1-2.2,20.9c-1.8,7.2-7.3,12-14.5,13.7
		c-6.9,1.7-14.1,2.9-21.3,3.1c-17.7,0.4-35.5,0.1-53.2,0c-3.8,0-7.7-0.6-11.5-1.3c-13.9-2.6-23.2-11-24.4-25.1
		c-1.2-16-1.4-32.2,0.1-48.1c1.5-16.7,10.8-24.4,28.6-26.3c7.9-0.9,15.9-1.1,23.9-1.1c16.3,0.1,32.7,0,48.9,1.1
		c15.5,1,22.5,8.5,24.3,23.9c0.5,3.9,0.1,7.9,0.1,12.3c-5.1,0-10.1,0-15.1,0c-5,0-10,0-14.9,0c-2.1-9.6-5.3-12.3-15.1-12.3
		c-12.3,0-24.7,0-37,0.8c-9.3,0.6-12.7,4.5-13.2,13.8c-0.4,7.6-0.4,15.2,0,22.7c0.4,8.3,4,13.1,12.4,13.7c13.9,0.9,28,1,41.9,0.2
		C710.4,482.9,712.3,479.7,713.3,469.4z"/>
	<path class="st0" d="M349.7,508.1c-10.9,0-21.3,0.1-31.7-0.1c-1,0-2.2-1.1-2.8-2.1c-2.4-3.8-4.7-7.7-6.8-11.7
		c-1.1-2.1-2.5-2.8-4.9-2.7c-18.1,0.1-36.3,0.1-54.4,0c-2.4,0-3.7,0.8-4.8,2.8c-2.1,4-4.4,7.9-6.8,11.6c-0.6,1-2.1,2-3.2,2
		c-10.1,0.2-20.3,0.1-31.2,0.1c0.8-1.7,1.4-2.9,2-4c16.7-30.6,33.4-61.1,50-91.7c1.7-3.1,3.5-4.3,7.1-4.2
		c10.4,0.3,20.8,0.1,31.3,0.1c1.9,0,3.2,0.2,4.3,2.2c17,31.8,34.1,63.6,51.1,95.4C349.2,506.4,349.3,506.8,349.7,508.1z
		 M295.8,467.4c-6.5-11.8-12.7-23.1-19.3-35c-6.5,12.1-12.5,23.3-18.8,35C270.6,467.4,282.7,467.4,295.8,467.4z"/>
	<path class="st0" d="M895.5,508.1c-11,0-21.2,0.1-31.5-0.1c-1.1,0-2.5-1.2-3.1-2.2c-2.5-3.9-4.6-8-7.1-11.9
		c-0.7-1.1-2.5-2.2-3.8-2.2c-18.5-0.1-37.1-0.1-55.6,0c-1.3,0-3.1,1.1-3.8,2.2c-2.6,3.8-4.7,8-7.1,11.9c-0.6,1-2,2.2-3.1,2.2
		c-9.9,0.1-19.8,0.1-29.7,0c-0.3,0-0.7-0.2-1.4-0.5c0.7-1.4,1.4-2.8,2.1-4.1c16.6-30.4,33.3-60.9,49.8-91.4c1.6-2.9,3.2-3.9,6.5-3.9
		c10.5,0.2,21.1,0,31.6,0.2c1.4,0,3.5,1.1,4.1,2.3c17.1,31.6,34.1,63.4,51.1,95.1C894.7,506.2,894.9,506.8,895.5,508.1z
		 M841.5,467.5c-6.5-11.9-12.7-23.2-19.3-35.1c-6.5,12-12.5,23.4-18.8,35.1C816.3,467.5,828.5,467.5,841.5,467.5z"/>
	<path class="st0" d="M452.1,408.5c0,8.1,0,16,0,24.4c-13.9,0-27.6,0-41.7,0c0,25.2,0,50,0,75c-10.1,0-19.9,0-30.1,0
		c0-24.8,0-49.7,0-75c-14.2,0-27.9,0-41.8,0c0-8.3,0-16.3,0-24.4C376.4,408.5,414.1,408.5,452.1,408.5z"/>
	<path class="st0" d="M473.4,242.5c-12.1,0-24,0-36.1,0c0-31.3,0-62.3,0-93.6c12,0,23.9,0,36.1,0C473.4,180,473.4,211.1,473.4,242.5
		z"/>
	<path class="st0" d="M382.2,173.8c12.2,0,24.1,0,36.3,0c0,22.9,0,45.6,0,68.7c-12,0-24,0-36.3,0C382.2,219.7,382.2,197,382.2,173.8
		z"/>
</g>
</svg>
